<svg width="849" height="92" viewBox="0 0 849 92" fill="none" xmlns="http://www.w3.org/2000/svg">
<path d="M844.346 21.5326C840.98 21.5326 838.226 18.794 838.205 15.423L838.184 11.0015H10.6042L10.5833 15.423C10.5676 18.794 7.81337 21.5326 4.44238 21.5326H0V80.8097H4.44238C7.82905 80.8097 10.5833 83.5639 10.5833 86.9506V91.393H838.205V86.9506C838.205 83.5639 840.959 80.8097 844.346 80.8097H848.788V21.5326H844.346Z" fill="#7F798A"/>
<path d="M844.346 10.5311C840.98 10.5311 838.226 7.79246 838.205 4.42148L838.184 0H10.6042L10.5833 4.42148C10.5676 7.79246 7.81337 10.5311 4.44238 10.5311H0V69.8082H4.44238C7.82905 69.8082 10.5833 72.5624 10.5833 75.9491V80.3915H838.205V75.9491C838.205 72.5624 840.959 69.8082 844.346 69.8082H848.788V10.5311H844.346Z" fill="#F4F4F4"/>
<path d="M833.768 4.4425H15.0257C14.9996 10.2646 10.2697 14.9736 4.44238 14.9736V65.3659C10.2854 65.3659 15.0257 70.1062 15.0257 75.9492H833.762C833.762 70.1062 838.503 65.3659 844.346 65.3659V14.9736C838.518 14.9736 833.794 10.2646 833.762 4.4425H833.768Z" stroke="#F20505" stroke-width="2.09053" stroke-miterlimit="10"/>
<path d="M89.707 41.7139C89.5352 42.4014 89.306 43.0244 89.0195 43.583C88.7331 44.1416 88.3822 44.6178 87.9668 45.0117C87.5586 45.4056 87.0788 45.71 86.5273 45.9248C85.9831 46.1396 85.3564 46.2471 84.6475 46.2471C83.6663 46.2471 82.8356 46.0465 82.1553 45.6455C81.4749 45.2373 80.9163 44.6966 80.4795 44.0234C80.0498 43.3431 79.7383 42.5697 79.5449 41.7031C79.3587 40.8294 79.2656 39.9235 79.2656 38.9854C79.2656 38.0472 79.3587 37.1413 79.5449 36.2676C79.7383 35.3939 80.0462 34.624 80.4688 33.958C80.8984 33.292 81.4427 32.7585 82.1016 32.3574C82.7604 31.9492 83.5661 31.7451 84.5186 31.7451C84.8265 31.7451 85.138 31.7845 85.4531 31.8633C85.7682 31.9421 86.0618 32.0638 86.334 32.2285C86.6061 32.3861 86.8424 32.583 87.043 32.8193C87.2507 33.0557 87.3975 33.3278 87.4834 33.6357V31.9814H89.4922V37.2881H87.4834C87.4834 36.8512 87.4297 36.4215 87.3223 35.999C87.2148 35.5693 87.043 35.1898 86.8066 34.8604C86.5703 34.5309 86.2731 34.2624 85.915 34.0547C85.557 33.847 85.1344 33.7432 84.6475 33.7432C84.0173 33.7432 83.5016 33.8971 83.1006 34.2051C82.6995 34.513 82.3773 34.9176 82.1338 35.4189C81.8903 35.9202 81.7184 36.4824 81.6182 37.1055C81.5251 37.7285 81.4785 38.3551 81.4785 38.9854C81.4785 39.6156 81.5251 40.2458 81.6182 40.876C81.7184 41.5062 81.8867 42.0719 82.123 42.5732C82.3594 43.0674 82.6816 43.4684 83.0898 43.7764C83.498 44.0843 84.0173 44.2383 84.6475 44.2383C85.557 44.2383 86.2552 43.9482 86.7422 43.3682C87.2363 42.7881 87.6302 42.0075 87.9238 41.0264L89.707 41.7139ZM91.1357 38.9854C91.1357 38.0472 91.236 37.1413 91.4365 36.2676C91.637 35.3939 91.9486 34.624 92.3711 33.958C92.7936 33.292 93.3451 32.7585 94.0254 32.3574C94.7129 31.9492 95.54 31.7451 96.5068 31.7451C97.4736 31.7451 98.2972 31.9492 98.9775 32.3574C99.665 32.7585 100.224 33.292 100.653 33.958C101.083 34.624 101.395 35.3939 101.588 36.2676C101.781 37.1413 101.878 38.0472 101.878 38.9854C101.878 39.9235 101.781 40.8294 101.588 41.7031C101.395 42.5697 101.087 43.3431 100.664 44.0234C100.242 44.6966 99.6865 45.2373 98.999 45.6455C98.3187 46.0465 97.488 46.2471 96.5068 46.2471C95.5257 46.2471 94.6914 46.0465 94.0039 45.6455C93.3236 45.2373 92.7686 44.6966 92.3389 44.0234C91.9163 43.3431 91.612 42.5697 91.4258 41.7031C91.2324 40.8294 91.1357 39.9235 91.1357 38.9854ZM93.3594 38.9854C93.3594 39.6156 93.4059 40.2458 93.499 40.876C93.5993 41.5062 93.764 42.0719 93.9932 42.5732C94.2295 43.0674 94.5482 43.4684 94.9492 43.7764C95.3574 44.0843 95.8766 44.2383 96.5068 44.2383C97.137 44.2383 97.6527 44.0843 98.0537 43.7764C98.4619 43.4684 98.7806 43.0674 99.0098 42.5732C99.2461 42.0719 99.4108 41.5062 99.5039 40.876C99.6042 40.2458 99.6543 39.6156 99.6543 38.9854C99.6543 38.3551 99.6042 37.7285 99.5039 37.1055C99.4108 36.4824 99.2461 35.9202 99.0098 35.4189C98.7806 34.9176 98.4583 34.513 98.043 34.2051C97.6348 33.8971 97.1227 33.7432 96.5068 33.7432C95.4827 33.7432 94.7021 34.2051 94.165 35.1289C93.6279 36.0527 93.3594 37.3382 93.3594 38.9854ZM113.512 36.1709C113.512 37.5745 113.086 38.6201 112.233 39.3076C111.381 39.988 110.192 40.3281 108.667 40.3281H106.25V46H104.026V31.9814H108.646C110.185 31.9814 111.381 32.3359 112.233 33.0449C113.086 33.7467 113.512 34.7887 113.512 36.1709ZM111.288 36.1387C111.288 35.4225 111.052 34.8854 110.579 34.5273C110.114 34.1693 109.476 33.9902 108.667 33.9902H106.25V38.3193H108.667C109.476 38.3193 110.114 38.1403 110.579 37.7822C111.052 37.4242 111.288 36.8763 111.288 36.1387ZM125.736 33.9902H124.727L121.622 40.2852V44.002H123.867V46H117.164V44.002H119.398V40.2852L116.305 33.9902H115.295V31.9814H119.71V33.9902H118.743L120.526 38.1045L122.288 33.9902H121.321V31.9814H125.736V33.9902Z" fill="#1A10A3"/>
<path d="M186.871 48H181.879V45.8203H182.746L181.141 42.3633L179.535 45.8203H180.391V48H175.445V45.8203H176.77L179.746 40.2773L176.816 34.8984H175.715V32.707H180.566V34.8984H179.582L181.141 38.2852L182.723 34.8984H181.762V32.707H186.637V34.8984H185.453L182.535 40.2773L185.512 45.8203H186.871V48ZM199.973 48H194.98V45.8203H195.848L194.242 42.3633L192.637 45.8203H193.492V48H188.547V45.8203H189.871L192.848 40.2773L189.918 34.8984H188.816V32.707H193.668V34.8984H192.684L194.242 38.2852L195.824 34.8984H194.863V32.707H199.738V34.8984H198.555L195.637 40.2773L198.613 45.8203H199.973V48ZM213.074 48H208.082V45.8203H208.949L207.344 42.3633L205.738 45.8203H206.594V48H201.648V45.8203H202.973L205.949 40.2773L203.02 34.8984H201.918V32.707H206.77V34.8984H205.785L207.344 38.2852L208.926 34.8984H207.965V32.707H212.84V34.8984H211.656L208.738 40.2773L211.715 45.8203H213.074V48ZM226.176 48H221.184V45.8203H222.051L220.445 42.3633L218.84 45.8203H219.695V48H214.75V45.8203H216.074L219.051 40.2773L216.121 34.8984H215.02V32.707H219.871V34.8984H218.887L220.445 38.2852L222.027 34.8984H221.066V32.707H225.941V34.8984H224.758L221.84 40.2773L224.816 45.8203H226.176V48ZM239.277 48H234.285V45.8203H235.152L233.547 42.3633L231.941 45.8203H232.797V48H227.852V45.8203H229.176L232.152 40.2773L229.223 34.8984H228.121V32.707H232.973V34.8984H231.988L233.547 38.2852L235.129 34.8984H234.168V32.707H239.043V34.8984H237.859L234.941 40.2773L237.918 45.8203H239.277V48ZM252.379 48H247.387V45.8203H248.254L246.648 42.3633L245.043 45.8203H245.898V48H240.953V45.8203H242.277L245.254 40.2773L242.324 34.8984H241.223V32.707H246.074V34.8984H245.09L246.648 38.2852L248.23 34.8984H247.27V32.707H252.145V34.8984H250.961L248.043 40.2773L251.02 45.8203H252.379V48ZM265.48 48H260.488V45.8203H261.355L259.75 42.3633L258.145 45.8203H259V48H254.055V45.8203H255.379L258.355 40.2773L255.426 34.8984H254.324V32.707H259.176V34.8984H258.191L259.75 38.2852L261.332 34.8984H260.371V32.707H265.246V34.8984H264.062L261.145 40.2773L264.121 45.8203H265.48V48ZM278.582 48H273.59V45.8203H274.457L272.852 42.3633L271.246 45.8203H272.102V48H267.156V45.8203H268.48L271.457 40.2773L268.527 34.8984H267.426V32.707H272.277V34.8984H271.293L272.852 38.2852L274.434 34.8984H273.473V32.707H278.348V34.8984H277.164L274.246 40.2773L277.223 45.8203H278.582V48ZM291.684 48H286.691V45.8203H287.559L285.953 42.3633L284.348 45.8203H285.203V48H280.258V45.8203H281.582L284.559 40.2773L281.629 34.8984H280.527V32.707H285.379V34.8984H284.395L285.953 38.2852L287.535 34.8984H286.574V32.707H291.449V34.8984H290.266L287.348 40.2773L290.324 45.8203H291.684V48ZM304.785 48H299.793V45.8203H300.66L299.055 42.3633L297.449 45.8203H298.305V48H293.359V45.8203H294.684L297.66 40.2773L294.73 34.8984H293.629V32.707H298.48V34.8984H297.496L299.055 38.2852L300.637 34.8984H299.676V32.707H304.551V34.8984H303.367L300.449 40.2773L303.426 45.8203H304.785V48ZM317.887 48H312.895V45.8203H313.762L312.156 42.3633L310.551 45.8203H311.406V48H306.461V45.8203H307.785L310.762 40.2773L307.832 34.8984H306.73V32.707H311.582V34.8984H310.598L312.156 38.2852L313.738 34.8984H312.777V32.707H317.652V34.8984H316.469L313.551 40.2773L316.527 45.8203H317.887V48ZM330.988 48H325.996V45.8203H326.863L325.258 42.3633L323.652 45.8203H324.508V48H319.562V45.8203H320.887L323.863 40.2773L320.934 34.8984H319.832V32.707H324.684V34.8984H323.699L325.258 38.2852L326.84 34.8984H325.879V32.707H330.754V34.8984H329.57L326.652 40.2773L329.629 45.8203H330.988V48ZM344.09 48H339.098V45.8203H339.965L338.359 42.3633L336.754 45.8203H337.609V48H332.664V45.8203H333.988L336.965 40.2773L334.035 34.8984H332.934V32.707H337.785V34.8984H336.801L338.359 38.2852L339.941 34.8984H338.98V32.707H343.855V34.8984H342.672L339.754 40.2773L342.73 45.8203H344.09V48ZM357.191 48H352.199V45.8203H353.066L351.461 42.3633L349.855 45.8203H350.711V48H345.766V45.8203H347.09L350.066 40.2773L347.137 34.8984H346.035V32.707H350.887V34.8984H349.902L351.461 38.2852L353.043 34.8984H352.082V32.707H356.957V34.8984H355.773L352.855 40.2773L355.832 45.8203H357.191V48ZM370.293 48H365.301V45.8203H366.168L364.562 42.3633L362.957 45.8203H363.812V48H358.867V45.8203H360.191L363.168 40.2773L360.238 34.8984H359.137V32.707H363.988V34.8984H363.004L364.562 38.2852L366.145 34.8984H365.184V32.707H370.059V34.8984H368.875L365.957 40.2773L368.934 45.8203H370.293V48ZM383.395 48H378.402V45.8203H379.27L377.664 42.3633L376.059 45.8203H376.914V48H371.969V45.8203H373.293L376.27 40.2773L373.34 34.8984H372.238V32.707H377.09V34.8984H376.105L377.664 38.2852L379.246 34.8984H378.285V32.707H383.16V34.8984H381.977L379.059 40.2773L382.035 45.8203H383.395V48ZM396.496 48H391.504V45.8203H392.371L390.766 42.3633L389.16 45.8203H390.016V48H385.07V45.8203H386.395L389.371 40.2773L386.441 34.8984H385.34V32.707H390.191V34.8984H389.207L390.766 38.2852L392.348 34.8984H391.387V32.707H396.262V34.8984H395.078L392.16 40.2773L395.137 45.8203H396.496V48ZM409.598 48H404.605V45.8203H405.473L403.867 42.3633L402.262 45.8203H403.117V48H398.172V45.8203H399.496L402.473 40.2773L399.543 34.8984H398.441V32.707H403.293V34.8984H402.309L403.867 38.2852L405.449 34.8984H404.488V32.707H409.363V34.8984H408.18L405.262 40.2773L408.238 45.8203H409.598V48ZM422.699 48H417.707V45.8203H418.574L416.969 42.3633L415.363 45.8203H416.219V48H411.273V45.8203H412.598L415.574 40.2773L412.645 34.8984H411.543V32.707H416.395V34.8984H415.41L416.969 38.2852L418.551 34.8984H417.59V32.707H422.465V34.8984H421.281L418.363 40.2773L421.34 45.8203H422.699V48ZM435.801 48H430.809V45.8203H431.676L430.07 42.3633L428.465 45.8203H429.32V48H424.375V45.8203H425.699L428.676 40.2773L425.746 34.8984H424.645V32.707H429.496V34.8984H428.512L430.07 38.2852L431.652 34.8984H430.691V32.707H435.566V34.8984H434.383L431.465 40.2773L434.441 45.8203H435.801V48ZM448.902 48H443.91V45.8203H444.777L443.172 42.3633L441.566 45.8203H442.422V48H437.477V45.8203H438.801L441.777 40.2773L438.848 34.8984H437.746V32.707H442.598V34.8984H441.613L443.172 38.2852L444.754 34.8984H443.793V32.707H448.668V34.8984H447.484L444.566 40.2773L447.543 45.8203H448.902V48ZM462.004 48H457.012V45.8203H457.879L456.273 42.3633L454.668 45.8203H455.523V48H450.578V45.8203H451.902L454.879 40.2773L451.949 34.8984H450.848V32.707H455.699V34.8984H454.715L456.273 38.2852L457.855 34.8984H456.895V32.707H461.77V34.8984H460.586L457.668 40.2773L460.645 45.8203H462.004V48ZM475.105 48H470.113V45.8203H470.98L469.375 42.3633L467.77 45.8203H468.625V48H463.68V45.8203H465.004L467.98 40.2773L465.051 34.8984H463.949V32.707H468.801V34.8984H467.816L469.375 38.2852L470.957 34.8984H469.996V32.707H474.871V34.8984H473.688L470.77 40.2773L473.746 45.8203H475.105V48ZM488.207 48H483.215V45.8203H484.082L482.477 42.3633L480.871 45.8203H481.727V48H476.781V45.8203H478.105L481.082 40.2773L478.152 34.8984H477.051V32.707H481.902V34.8984H480.918L482.477 38.2852L484.059 34.8984H483.098V32.707H487.973V34.8984H486.789L483.871 40.2773L486.848 45.8203H488.207V48ZM501.309 48H496.316V45.8203H497.184L495.578 42.3633L493.973 45.8203H494.828V48H489.883V45.8203H491.207L494.184 40.2773L491.254 34.8984H490.152V32.707H495.004V34.8984H494.02L495.578 38.2852L497.16 34.8984H496.199V32.707H501.074V34.8984H499.891L496.973 40.2773L499.949 45.8203H501.309V48ZM514.41 48H509.418V45.8203H510.285L508.68 42.3633L507.074 45.8203H507.93V48H502.984V45.8203H504.309L507.285 40.2773L504.355 34.8984H503.254V32.707H508.105V34.8984H507.121L508.68 38.2852L510.262 34.8984H509.301V32.707H514.176V34.8984H512.992L510.074 40.2773L513.051 45.8203H514.41V48ZM527.512 48H522.52V45.8203H523.387L521.781 42.3633L520.176 45.8203H521.031V48H516.086V45.8203H517.41L520.387 40.2773L517.457 34.8984H516.355V32.707H521.207V34.8984H520.223L521.781 38.2852L523.363 34.8984H522.402V32.707H527.277V34.8984H526.094L523.176 40.2773L526.152 45.8203H527.512V48ZM540.613 48H535.621V45.8203H536.488L534.883 42.3633L533.277 45.8203H534.133V48H529.188V45.8203H530.512L533.488 40.2773L530.559 34.8984H529.457V32.707H534.309V34.8984H533.324L534.883 38.2852L536.465 34.8984H535.504V32.707H540.379V34.8984H539.195L536.277 40.2773L539.254 45.8203H540.613V48ZM553.715 48H548.723V45.8203H549.59L547.984 42.3633L546.379 45.8203H547.234V48H542.289V45.8203H543.613L546.59 40.2773L543.66 34.8984H542.559V32.707H547.41V34.8984H546.426L547.984 38.2852L549.566 34.8984H548.605V32.707H553.48V34.8984H552.297L549.379 40.2773L552.355 45.8203H553.715V48ZM566.816 48H561.824V45.8203H562.691L561.086 42.3633L559.48 45.8203H560.336V48H555.391V45.8203H556.715L559.691 40.2773L556.762 34.8984H555.66V32.707H560.512V34.8984H559.527L561.086 38.2852L562.668 34.8984H561.707V32.707H566.582V34.8984H565.398L562.48 40.2773L565.457 45.8203H566.816V48ZM579.918 48H574.926V45.8203H575.793L574.188 42.3633L572.582 45.8203H573.438V48H568.492V45.8203H569.816L572.793 40.2773L569.863 34.8984H568.762V32.707H573.613V34.8984H572.629L574.188 38.2852L575.77 34.8984H574.809V32.707H579.684V34.8984H578.5L575.582 40.2773L578.559 45.8203H579.918V48ZM593.02 48H588.027V45.8203H588.895L587.289 42.3633L585.684 45.8203H586.539V48H581.594V45.8203H582.918L585.895 40.2773L582.965 34.8984H581.863V32.707H586.715V34.8984H585.73L587.289 38.2852L588.871 34.8984H587.91V32.707H592.785V34.8984H591.602L588.684 40.2773L591.66 45.8203H593.02V48ZM606.121 48H601.129V45.8203H601.996L600.391 42.3633L598.785 45.8203H599.641V48H594.695V45.8203H596.02L598.996 40.2773L596.066 34.8984H594.965V32.707H599.816V34.8984H598.832L600.391 38.2852L601.973 34.8984H601.012V32.707H605.887V34.8984H604.703L601.785 40.2773L604.762 45.8203H606.121V48ZM619.223 48H614.23V45.8203H615.098L613.492 42.3633L611.887 45.8203H612.742V48H607.797V45.8203H609.121L612.098 40.2773L609.168 34.8984H608.066V32.707H612.918V34.8984H611.934L613.492 38.2852L615.074 34.8984H614.113V32.707H618.988V34.8984H617.805L614.887 40.2773L617.863 45.8203H619.223V48ZM632.324 48H627.332V45.8203H628.199L626.594 42.3633L624.988 45.8203H625.844V48H620.898V45.8203H622.223L625.199 40.2773L622.27 34.8984H621.168V32.707H626.02V34.8984H625.035L626.594 38.2852L628.176 34.8984H627.215V32.707H632.09V34.8984H630.906L627.988 40.2773L630.965 45.8203H632.324V48ZM645.426 48H640.434V45.8203H641.301L639.695 42.3633L638.09 45.8203H638.945V48H634V45.8203H635.324L638.301 40.2773L635.371 34.8984H634.27V32.707H639.121V34.8984H638.137L639.695 38.2852L641.277 34.8984H640.316V32.707H645.191V34.8984H644.008L641.09 40.2773L644.066 45.8203H645.426V48ZM658.527 48H653.535V45.8203H654.402L652.797 42.3633L651.191 45.8203H652.047V48H647.102V45.8203H648.426L651.402 40.2773L648.473 34.8984H647.371V32.707H652.223V34.8984H651.238L652.797 38.2852L654.379 34.8984H653.418V32.707H658.293V34.8984H657.109L654.191 40.2773L657.168 45.8203H658.527V48ZM671.629 48H666.637V45.8203H667.504L665.898 42.3633L664.293 45.8203H665.148V48H660.203V45.8203H661.527L664.504 40.2773L661.574 34.8984H660.473V32.707H665.324V34.8984H664.34L665.898 38.2852L667.48 34.8984H666.52V32.707H671.395V34.8984H670.211L667.293 40.2773L670.27 45.8203H671.629V48ZM684.73 48H679.738V45.8203H680.605L679 42.3633L677.395 45.8203H678.25V48H673.305V45.8203H674.629L677.605 40.2773L674.676 34.8984H673.574V32.707H678.426V34.8984H677.441L679 38.2852L680.582 34.8984H679.621V32.707H684.496V34.8984H683.312L680.395 40.2773L683.371 45.8203H684.73V48ZM697.832 48H692.84V45.8203H693.707L692.102 42.3633L690.496 45.8203H691.352V48H686.406V45.8203H687.73L690.707 40.2773L687.777 34.8984H686.676V32.707H691.527V34.8984H690.543L692.102 38.2852L693.684 34.8984H692.723V32.707H697.598V34.8984H696.414L693.496 40.2773L696.473 45.8203H697.832V48ZM710.934 48H705.941V45.8203H706.809L705.203 42.3633L703.598 45.8203H704.453V48H699.508V45.8203H700.832L703.809 40.2773L700.879 34.8984H699.777V32.707H704.629V34.8984H703.645L705.203 38.2852L706.785 34.8984H705.824V32.707H710.699V34.8984H709.516L706.598 40.2773L709.574 45.8203H710.934V48ZM724.035 48H719.043V45.8203H719.91L718.305 42.3633L716.699 45.8203H717.555V48H712.609V45.8203H713.934L716.91 40.2773L713.98 34.8984H712.879V32.707H717.73V34.8984H716.746L718.305 38.2852L719.887 34.8984H718.926V32.707H723.801V34.8984H722.617L719.699 40.2773L722.676 45.8203H724.035V48ZM737.137 48H732.145V45.8203H733.012L731.406 42.3633L729.801 45.8203H730.656V48H725.711V45.8203H727.035L730.012 40.2773L727.082 34.8984H725.98V32.707H730.832V34.8984H729.848L731.406 38.2852L732.988 34.8984H732.027V32.707H736.902V34.8984H735.719L732.801 40.2773L735.777 45.8203H737.137V48ZM750.238 48H745.246V45.8203H746.113L744.508 42.3633L742.902 45.8203H743.758V48H738.812V45.8203H740.137L743.113 40.2773L740.184 34.8984H739.082V32.707H743.934V34.8984H742.949L744.508 38.2852L746.09 34.8984H745.129V32.707H750.004V34.8984H748.82L745.902 40.2773L748.879 45.8203H750.238V48ZM763.34 48H758.348V45.8203H759.215L757.609 42.3633L756.004 45.8203H756.859V48H751.914V45.8203H753.238L756.215 40.2773L753.285 34.8984H752.184V32.707H757.035V34.8984H756.051L757.609 38.2852L759.191 34.8984H758.23V32.707H763.105V34.8984H761.922L759.004 40.2773L761.98 45.8203H763.34V48Z" fill="#F20505"/>
</svg>
