<svg width="460" height="449" viewBox="0 0 460 449" fill="none" xmlns="http://www.w3.org/2000/svg">
<g style="mix-blend-mode:multiply" opacity="0.3">
<path d="M451.542 32.9923C445.776 32.9923 441.057 28.7899 441.021 23.6172L440.985 16.8325H18.1677L18.1319 23.6172C18.105 28.7899 13.3863 32.9923 7.61091 32.9923H0V432.76H7.61091C13.4131 432.76 18.1319 436.986 18.1319 442.183V449H441.021V442.183C441.021 436.986 445.74 432.76 451.542 432.76H459.153V32.9923H451.542Z" fill="#1D181F"/>
</g>
<path d="M451.542 16.1114C445.776 16.1114 441.057 11.9091 441.021 6.73635L440.985 -0.0483398H18.1677L18.1319 6.73635C18.105 11.9091 13.3863 16.1114 7.61091 16.1114H0V415.879H7.61091C13.4131 415.879 18.1319 420.105 18.1319 425.302V432.119H441.021V425.302C441.021 420.105 445.74 415.879 451.542 415.879H459.153V16.1114H451.542Z" fill="#F2F2F2"/>
<path d="M451.542 16.1114C445.776 16.1114 441.057 11.9091 441.021 6.73635L440.985 -0.0483398H18.1677L18.1319 6.73635C18.105 11.9091 13.3863 16.1114 7.61091 16.1114H0V415.879H7.61091C13.4131 415.879 18.1319 420.105 18.1319 425.302V432.119H441.021V425.302C441.021 420.105 445.74 415.879 451.542 415.879H459.153V16.1114H451.542Z" fill="url(#paint0_linear_101_449)" fill-opacity="0.62"/>
<path d="M433.419 6.76855H25.743C25.6982 15.7025 17.5948 22.9283 7.61108 22.9283V409.062C17.6217 409.062 25.743 416.336 25.743 425.302H433.41C433.41 416.336 441.532 409.062 451.542 409.062V22.9283C441.559 22.9283 433.464 15.7025 433.41 6.76855H433.419Z" stroke="#F20505" stroke-width="3.20576" stroke-miterlimit="10"/>
<defs>
<linearGradient id="paint0_linear_101_449" x1="229.576" y1="-0.0483398" x2="229.576" y2="432.119" gradientUnits="userSpaceOnUse">
<stop stop-color="#EFEFEF"/>
<stop offset="1" stop-color="#BEC1CE"/>
</linearGradient>
</defs>
</svg>
