<svg width="2280" height="244" viewBox="0 0 2280 244" fill="none" xmlns="http://www.w3.org/2000/svg">
<rect width="2280" height="244" fill="#F5F5F5"/>
<rect y="46" width="1442" height="151" fill="#2734BD"/>
<g clip-path="url(#clip0_0_1)">
<path d="M1442 0H0V46.2594H1442V0Z" fill="#271F91"/>
<path d="M18.7459 12.5449L21.8606 18.8897L28.8687 19.8991L23.8217 24.8308L25.0042 31.81L18.7459 28.5223L12.4876 31.81L13.67 24.8308L8.62305 19.8991L15.6312 18.8897L18.7459 12.5449Z" fill="#F4F4F4"/>
<path d="M74.9261 12.5449L78.0408 18.8897L85.0489 19.8991L80.0019 24.8308L81.1843 31.81L74.9261 28.5223L68.6678 31.81L69.8502 24.8308L64.8032 19.8991L71.8113 18.8897L74.9261 12.5449Z" fill="#F4F4F4"/>
<path d="M131.106 12.5449L134.221 18.8897L141.229 19.8991L136.182 24.8308L137.365 31.81L131.106 28.5223L124.848 31.81L126.031 24.8308L120.984 19.8991L127.992 18.8897L131.106 12.5449Z" fill="#F4F4F4"/>
<path d="M187.287 12.5449L190.401 18.8897L197.409 19.8991L192.362 24.8308L193.545 31.81L187.287 28.5223L181.028 31.81L182.211 24.8308L177.164 19.8991L184.172 18.8897L187.287 12.5449Z" fill="#F4F4F4"/>
<path d="M243.467 12.5449L246.582 18.8897L253.59 19.8991L248.543 24.8308L249.725 31.81L243.467 28.5223L237.209 31.81L238.391 24.8308L233.344 19.8991L240.352 18.8897L243.467 12.5449Z" fill="#F4F4F4"/>
<path d="M299.647 12.5449L302.762 18.8897L309.77 19.8991L304.723 24.8308L305.906 31.81L299.647 28.5223L293.389 31.81L294.571 24.8308L289.524 19.8991L296.533 18.8897L299.647 12.5449Z" fill="#F4F4F4"/>
<path d="M355.828 12.5449L358.943 18.8897L365.951 19.8991L360.904 24.8308L362.086 31.81L355.828 28.5223L349.57 31.81L350.752 24.8308L345.705 19.8991L352.713 18.8897L355.828 12.5449Z" fill="#F4F4F4"/>
<path d="M412.008 12.5449L415.123 18.8897L422.131 19.8991L417.084 24.8308L418.267 31.81L412.008 28.5223L405.75 31.81L406.932 24.8308L401.885 19.8991L408.894 18.8897L412.008 12.5449Z" fill="#F4F4F4"/>
<path d="M468.189 12.5449L471.303 18.8897L478.311 19.8991L473.264 24.8308L474.447 31.81L468.189 28.5223L461.93 31.81L463.113 24.8308L458.066 19.8991L465.074 18.8897L468.189 12.5449Z" fill="#F4F4F4"/>
<path d="M524.369 12.5449L527.484 18.8897L534.492 19.8991L529.445 24.8308L530.627 31.81L524.369 28.5223L518.111 31.81L519.293 24.8308L514.246 19.8991L521.254 18.8897L524.369 12.5449Z" fill="#F4F4F4"/>
<path d="M580.549 12.5449L583.664 18.8897L590.672 19.8991L585.625 24.8308L586.807 31.81L580.549 28.5223L574.291 31.81L575.473 24.8308L570.426 19.8991L577.434 18.8897L580.549 12.5449Z" fill="#F4F4F4"/>
<path d="M636.73 12.5449L639.844 18.8897L646.852 19.8991L641.805 24.8308L642.988 31.81L636.73 28.5223L630.471 31.81L631.654 24.8308L626.607 19.8991L633.615 18.8897L636.73 12.5449Z" fill="#F4F4F4"/>
<path d="M692.91 12.5449L696.024 18.8897L703.033 19.8991L697.986 24.8308L699.168 31.81L692.91 28.5223L686.651 31.81L687.834 24.8308L682.787 19.8991L689.795 18.8897L692.91 12.5449Z" fill="#F4F4F4"/>
<path d="M749.09 12.5449L752.205 18.8897L759.213 19.8991L754.166 24.8308L755.348 31.81L749.09 28.5223L742.832 31.81L744.014 24.8308L738.967 19.8991L745.975 18.8897L749.09 12.5449Z" fill="#F4F4F4"/>
<path d="M805.27 12.5449L808.385 18.8897L815.393 19.8991L810.346 24.8308L811.529 31.81L805.27 28.5223L799.012 31.81L800.194 24.8308L795.147 19.8991L802.156 18.8897L805.27 12.5449Z" fill="#F4F4F4"/>
<path d="M861.451 12.5449L864.565 18.8897L871.573 19.8991L866.526 24.8308L867.709 31.81L861.451 28.5223L855.192 31.81L856.375 24.8308L851.328 19.8991L858.336 18.8897L861.451 12.5449Z" fill="#F4F4F4"/>
<path d="M917.631 12.5449L920.745 18.8897L927.754 19.8991L922.707 24.8308L923.889 31.81L917.631 28.5223L911.372 31.81L912.555 24.8308L907.508 19.8991L914.516 18.8897L917.631 12.5449Z" fill="#F4F4F4"/>
<path d="M973.811 12.5449L976.926 18.8897L983.934 19.8991L978.887 24.8308L980.069 31.81L973.811 28.5223L967.553 31.81L968.735 24.8308L963.688 19.8991L970.696 18.8897L973.811 12.5449Z" fill="#F4F4F4"/>
<path d="M1029.99 12.5449L1033.11 18.8897L1040.11 19.8991L1035.07 24.8308L1036.25 31.81L1029.99 28.5223L1023.73 31.81L1024.92 24.8308L1019.87 19.8991L1026.88 18.8897L1029.99 12.5449Z" fill="#F4F4F4"/>
<path d="M1086.17 12.5449L1089.29 18.8897L1096.29 19.8991L1091.25 24.8308L1092.43 31.81L1086.17 28.5223L1079.91 31.81L1081.1 24.8308L1076.05 19.8991L1083.06 18.8897L1086.17 12.5449Z" fill="#F4F4F4"/>
<path d="M1142.35 12.5449L1145.47 18.8897L1152.48 19.8991L1147.43 24.8308L1148.61 31.81L1142.35 28.5223L1136.09 31.81L1137.28 24.8308L1132.23 19.8991L1139.24 18.8897L1142.35 12.5449Z" fill="#F4F4F4"/>
<path d="M1198.53 12.5449L1201.65 18.8897L1208.66 19.8991L1203.61 24.8308L1204.79 31.81L1198.53 28.5223L1192.27 31.81L1193.46 24.8308L1188.41 19.8991L1195.42 18.8897L1198.53 12.5449Z" fill="#F4F4F4"/>
<path d="M1254.71 12.5449L1257.83 18.8897L1264.84 19.8991L1259.79 24.8308L1260.97 31.81L1254.71 28.5223L1248.45 31.81L1249.64 24.8308L1244.59 19.8991L1251.6 18.8897L1254.71 12.5449Z" fill="#F4F4F4"/>
<path d="M1310.89 12.5449L1314.01 18.8897L1321.02 19.8991L1315.97 24.8308L1317.15 31.81L1310.89 28.5223L1304.64 31.81L1305.82 24.8308L1300.77 19.8991L1307.78 18.8897L1310.89 12.5449Z" fill="#F4F4F4"/>
<path d="M1367.07 12.5449L1370.19 18.8897L1377.2 19.8991L1372.15 24.8308L1373.33 31.81L1367.07 28.5223L1360.82 31.81L1362 24.8308L1356.95 19.8991L1363.96 18.8897L1367.07 12.5449Z" fill="#F4F4F4"/>
<path d="M1423.25 12.5449L1426.37 18.8897L1433.38 19.8991L1428.33 24.8308L1429.51 31.81L1423.25 28.5223L1417 31.81L1418.18 24.8308L1413.13 19.8991L1420.14 18.8897L1423.25 12.5449Z" fill="#F4F4F4"/>
</g>
<g clip-path="url(#clip1_0_1)">
<path d="M1442 197H0V243.259H1442V197Z" fill="#271F90"/>
<path d="M18.7459 209.545L21.8606 215.89L28.8687 216.899L23.8217 221.831L25.0042 228.81L18.7459 225.522L12.4876 228.81L13.67 221.831L8.62305 216.899L15.6312 215.89L18.7459 209.545Z" fill="#F4F4F4"/>
<path d="M74.9261 209.545L78.0408 215.89L85.0489 216.899L80.0019 221.831L81.1843 228.81L74.9261 225.522L68.6678 228.81L69.8502 221.831L64.8032 216.899L71.8113 215.89L74.9261 209.545Z" fill="#F4F4F4"/>
<path d="M131.106 209.545L134.221 215.89L141.229 216.899L136.182 221.831L137.365 228.81L131.106 225.522L124.848 228.81L126.031 221.831L120.984 216.899L127.992 215.89L131.106 209.545Z" fill="#F4F4F4"/>
<path d="M187.287 209.545L190.401 215.89L197.409 216.899L192.362 221.831L193.545 228.81L187.287 225.522L181.028 228.81L182.211 221.831L177.164 216.899L184.172 215.89L187.287 209.545Z" fill="#F4F4F4"/>
<path d="M243.467 209.545L246.582 215.89L253.59 216.899L248.543 221.831L249.725 228.81L243.467 225.522L237.209 228.81L238.391 221.831L233.344 216.899L240.352 215.89L243.467 209.545Z" fill="#F4F4F4"/>
<path d="M299.647 209.545L302.762 215.89L309.77 216.899L304.723 221.831L305.906 228.81L299.647 225.522L293.389 228.81L294.571 221.831L289.524 216.899L296.533 215.89L299.647 209.545Z" fill="#F4F4F4"/>
<path d="M355.828 209.545L358.943 215.89L365.951 216.899L360.904 221.831L362.086 228.81L355.828 225.522L349.57 228.81L350.752 221.831L345.705 216.899L352.713 215.89L355.828 209.545Z" fill="#F4F4F4"/>
<path d="M412.008 209.545L415.123 215.89L422.131 216.899L417.084 221.831L418.267 228.81L412.008 225.522L405.75 228.81L406.932 221.831L401.885 216.899L408.894 215.89L412.008 209.545Z" fill="#F4F4F4"/>
<path d="M468.189 209.545L471.303 215.89L478.311 216.899L473.264 221.831L474.447 228.81L468.189 225.522L461.93 228.81L463.113 221.831L458.066 216.899L465.074 215.89L468.189 209.545Z" fill="#F4F4F4"/>
<path d="M524.369 209.545L527.484 215.89L534.492 216.899L529.445 221.831L530.627 228.81L524.369 225.522L518.111 228.81L519.293 221.831L514.246 216.899L521.254 215.89L524.369 209.545Z" fill="#F4F4F4"/>
<path d="M580.549 209.545L583.664 215.89L590.672 216.899L585.625 221.831L586.807 228.81L580.549 225.522L574.291 228.81L575.473 221.831L570.426 216.899L577.434 215.89L580.549 209.545Z" fill="#F4F4F4"/>
<path d="M636.73 209.545L639.844 215.89L646.852 216.899L641.805 221.831L642.988 228.81L636.73 225.522L630.471 228.81L631.654 221.831L626.607 216.899L633.615 215.89L636.73 209.545Z" fill="#F4F4F4"/>
<path d="M692.91 209.545L696.024 215.89L703.033 216.899L697.986 221.831L699.168 228.81L692.91 225.522L686.651 228.81L687.834 221.831L682.787 216.899L689.795 215.89L692.91 209.545Z" fill="#F4F4F4"/>
<path d="M749.09 209.545L752.205 215.89L759.213 216.899L754.166 221.831L755.348 228.81L749.09 225.522L742.832 228.81L744.014 221.831L738.967 216.899L745.975 215.89L749.09 209.545Z" fill="#F4F4F4"/>
<path d="M805.27 209.545L808.385 215.89L815.393 216.899L810.346 221.831L811.529 228.81L805.27 225.522L799.012 228.81L800.194 221.831L795.147 216.899L802.156 215.89L805.27 209.545Z" fill="#F4F4F4"/>
<path d="M861.451 209.545L864.565 215.89L871.573 216.899L866.526 221.831L867.709 228.81L861.451 225.522L855.192 228.81L856.375 221.831L851.328 216.899L858.336 215.89L861.451 209.545Z" fill="#F4F4F4"/>
<path d="M917.631 209.545L920.745 215.89L927.754 216.899L922.707 221.831L923.889 228.81L917.631 225.522L911.372 228.81L912.555 221.831L907.508 216.899L914.516 215.89L917.631 209.545Z" fill="#F4F4F4"/>
<path d="M973.811 209.545L976.926 215.89L983.934 216.899L978.887 221.831L980.069 228.81L973.811 225.522L967.553 228.81L968.735 221.831L963.688 216.899L970.696 215.89L973.811 209.545Z" fill="#F4F4F4"/>
<path d="M1029.99 209.545L1033.11 215.89L1040.11 216.899L1035.07 221.831L1036.25 228.81L1029.99 225.522L1023.73 228.81L1024.92 221.831L1019.87 216.899L1026.88 215.89L1029.99 209.545Z" fill="#F4F4F4"/>
<path d="M1086.17 209.545L1089.29 215.89L1096.29 216.899L1091.25 221.831L1092.43 228.81L1086.17 225.522L1079.91 228.81L1081.1 221.831L1076.05 216.899L1083.06 215.89L1086.17 209.545Z" fill="#F4F4F4"/>
<path d="M1142.35 209.545L1145.47 215.89L1152.48 216.899L1147.43 221.831L1148.61 228.81L1142.35 225.522L1136.09 228.81L1137.28 221.831L1132.23 216.899L1139.24 215.89L1142.35 209.545Z" fill="#F4F4F4"/>
<path d="M1198.53 209.545L1201.65 215.89L1208.66 216.899L1203.61 221.831L1204.79 228.81L1198.53 225.522L1192.27 228.81L1193.46 221.831L1188.41 216.899L1195.42 215.89L1198.53 209.545Z" fill="#F4F4F4"/>
<path d="M1254.71 209.545L1257.83 215.89L1264.84 216.899L1259.79 221.831L1260.97 228.81L1254.71 225.522L1248.45 228.81L1249.64 221.831L1244.59 216.899L1251.6 215.89L1254.71 209.545Z" fill="#F4F4F4"/>
<path d="M1310.89 209.545L1314.01 215.89L1321.02 216.899L1315.97 221.831L1317.15 228.81L1310.89 225.522L1304.64 228.81L1305.82 221.831L1300.77 216.899L1307.78 215.89L1310.89 209.545Z" fill="#F4F4F4"/>
<path d="M1367.07 209.545L1370.19 215.89L1377.2 216.899L1372.15 221.831L1373.33 228.81L1367.07 225.522L1360.82 228.81L1362 221.831L1356.95 216.899L1363.96 215.89L1367.07 209.545Z" fill="#F4F4F4"/>
<path d="M1423.25 209.545L1426.37 215.89L1433.38 216.899L1428.33 221.831L1429.51 228.81L1423.25 225.522L1417 228.81L1418.18 221.831L1413.13 216.899L1420.14 215.89L1423.25 209.545Z" fill="#F4F4F4"/>
</g>
<rect x="838" y="46" width="1442" height="151" fill="#2734BD"/>
<g clip-path="url(#clip2_0_1)">
<path d="M2280 0H838V46.2594H2280V0Z" fill="#271F91"/>
<path d="M856.746 12.5449L859.861 18.8897L866.869 19.8991L861.822 24.8308L863.004 31.81L856.746 28.5223L850.488 31.81L851.67 24.8308L846.623 19.8991L853.631 18.8897L856.746 12.5449Z" fill="#F4F4F4"/>
<path d="M912.926 12.5449L916.041 18.8897L923.049 19.8991L918.002 24.8308L919.184 31.81L912.926 28.5223L906.668 31.81L907.85 24.8308L902.803 19.8991L909.811 18.8897L912.926 12.5449Z" fill="#F4F4F4"/>
<path d="M969.106 12.5449L972.221 18.8897L979.229 19.8991L974.182 24.8308L975.365 31.81L969.106 28.5223L962.848 31.81L964.031 24.8308L958.984 19.8991L965.992 18.8897L969.106 12.5449Z" fill="#F4F4F4"/>
<path d="M1025.29 12.5449L1028.4 18.8897L1035.41 19.8991L1030.36 24.8308L1031.55 31.81L1025.29 28.5223L1019.03 31.81L1020.21 24.8308L1015.16 19.8991L1022.17 18.8897L1025.29 12.5449Z" fill="#F4F4F4"/>
<path d="M1081.47 12.5449L1084.58 18.8897L1091.59 19.8991L1086.54 24.8308L1087.73 31.81L1081.47 28.5223L1075.21 31.81L1076.39 24.8308L1071.34 19.8991L1078.35 18.8897L1081.47 12.5449Z" fill="#F4F4F4"/>
<path d="M1137.65 12.5449L1140.76 18.8897L1147.77 19.8991L1142.72 24.8308L1143.91 31.81L1137.65 28.5223L1131.39 31.81L1132.57 24.8308L1127.52 19.8991L1134.53 18.8897L1137.65 12.5449Z" fill="#F4F4F4"/>
<path d="M1193.83 12.5449L1196.94 18.8897L1203.95 19.8991L1198.9 24.8308L1200.09 31.81L1193.83 28.5223L1187.57 31.81L1188.75 24.8308L1183.71 19.8991L1190.71 18.8897L1193.83 12.5449Z" fill="#F4F4F4"/>
<path d="M1250.01 12.5449L1253.12 18.8897L1260.13 19.8991L1255.08 24.8308L1256.27 31.81L1250.01 28.5223L1243.75 31.81L1244.93 24.8308L1239.89 19.8991L1246.89 18.8897L1250.01 12.5449Z" fill="#F4F4F4"/>
<path d="M1306.19 12.5449L1309.3 18.8897L1316.31 19.8991L1311.26 24.8308L1312.45 31.81L1306.19 28.5223L1299.93 31.81L1301.11 24.8308L1296.07 19.8991L1303.07 18.8897L1306.19 12.5449Z" fill="#F4F4F4"/>
<path d="M1362.37 12.5449L1365.48 18.8897L1372.49 19.8991L1367.44 24.8308L1368.63 31.81L1362.37 28.5223L1356.11 31.81L1357.29 24.8308L1352.25 19.8991L1359.25 18.8897L1362.37 12.5449Z" fill="#F4F4F4"/>
<path d="M1418.55 12.5449L1421.66 18.8897L1428.67 19.8991L1423.63 24.8308L1424.81 31.81L1418.55 28.5223L1412.29 31.81L1413.47 24.8308L1408.43 19.8991L1415.43 18.8897L1418.55 12.5449Z" fill="#F4F4F4"/>
<path d="M1474.73 12.5449L1477.84 18.8897L1484.85 19.8991L1479.81 24.8308L1480.99 31.81L1474.73 28.5223L1468.47 31.81L1469.65 24.8308L1464.61 19.8991L1471.61 18.8897L1474.73 12.5449Z" fill="#F4F4F4"/>
<path d="M1530.91 12.5449L1534.02 18.8897L1541.03 19.8991L1535.99 24.8308L1537.17 31.81L1530.91 28.5223L1524.65 31.81L1525.83 24.8308L1520.79 19.8991L1527.8 18.8897L1530.91 12.5449Z" fill="#F4F4F4"/>
<path d="M1587.09 12.5449L1590.2 18.8897L1597.21 19.8991L1592.17 24.8308L1593.35 31.81L1587.09 28.5223L1580.83 31.81L1582.01 24.8308L1576.97 19.8991L1583.98 18.8897L1587.09 12.5449Z" fill="#F4F4F4"/>
<path d="M1643.27 12.5449L1646.39 18.8897L1653.39 19.8991L1648.35 24.8308L1649.53 31.81L1643.27 28.5223L1637.01 31.81L1638.19 24.8308L1633.15 19.8991L1640.16 18.8897L1643.27 12.5449Z" fill="#F4F4F4"/>
<path d="M1699.45 12.5449L1702.57 18.8897L1709.57 19.8991L1704.53 24.8308L1705.71 31.81L1699.45 28.5223L1693.19 31.81L1694.37 24.8308L1689.33 19.8991L1696.34 18.8897L1699.45 12.5449Z" fill="#F4F4F4"/>
<path d="M1755.63 12.5449L1758.75 18.8897L1765.75 19.8991L1760.71 24.8308L1761.89 31.81L1755.63 28.5223L1749.37 31.81L1750.56 24.8308L1745.51 19.8991L1752.52 18.8897L1755.63 12.5449Z" fill="#F4F4F4"/>
<path d="M1811.81 12.5449L1814.93 18.8897L1821.93 19.8991L1816.89 24.8308L1818.07 31.81L1811.81 28.5223L1805.55 31.81L1806.74 24.8308L1801.69 19.8991L1808.7 18.8897L1811.81 12.5449Z" fill="#F4F4F4"/>
<path d="M1867.99 12.5449L1871.11 18.8897L1878.11 19.8991L1873.07 24.8308L1874.25 31.81L1867.99 28.5223L1861.73 31.81L1862.92 24.8308L1857.87 19.8991L1864.88 18.8897L1867.99 12.5449Z" fill="#F4F4F4"/>
<path d="M1924.17 12.5449L1927.29 18.8897L1934.29 19.8991L1929.25 24.8308L1930.43 31.81L1924.17 28.5223L1917.91 31.81L1919.1 24.8308L1914.05 19.8991L1921.06 18.8897L1924.17 12.5449Z" fill="#F4F4F4"/>
<path d="M1980.35 12.5449L1983.47 18.8897L1990.48 19.8991L1985.43 24.8308L1986.61 31.81L1980.35 28.5223L1974.09 31.81L1975.28 24.8308L1970.23 19.8991L1977.24 18.8897L1980.35 12.5449Z" fill="#F4F4F4"/>
<path d="M2036.53 12.5449L2039.65 18.8897L2046.66 19.8991L2041.61 24.8308L2042.79 31.81L2036.53 28.5223L2030.27 31.81L2031.46 24.8308L2026.41 19.8991L2033.42 18.8897L2036.53 12.5449Z" fill="#F4F4F4"/>
<path d="M2092.71 12.5449L2095.83 18.8897L2102.84 19.8991L2097.79 24.8308L2098.97 31.81L2092.71 28.5223L2086.45 31.81L2087.64 24.8308L2082.59 19.8991L2089.6 18.8897L2092.71 12.5449Z" fill="#F4F4F4"/>
<path d="M2148.89 12.5449L2152.01 18.8897L2159.02 19.8991L2153.97 24.8308L2155.15 31.81L2148.89 28.5223L2142.64 31.81L2143.82 24.8308L2138.77 19.8991L2145.78 18.8897L2148.89 12.5449Z" fill="#F4F4F4"/>
<path d="M2205.07 12.5449L2208.19 18.8897L2215.2 19.8991L2210.15 24.8308L2211.33 31.81L2205.07 28.5223L2198.82 31.81L2200 24.8308L2194.95 19.8991L2201.96 18.8897L2205.07 12.5449Z" fill="#F4F4F4"/>
<path d="M2261.25 12.5449L2264.37 18.8897L2271.38 19.8991L2266.33 24.8308L2267.51 31.81L2261.25 28.5223L2255 31.81L2256.18 24.8308L2251.13 19.8991L2258.14 18.8897L2261.25 12.5449Z" fill="#F4F4F4"/>
</g>
<g clip-path="url(#clip3_0_1)">
<path d="M2280 197H838V243.259H2280V197Z" fill="#271F90"/>
<path d="M856.746 209.545L859.861 215.89L866.869 216.899L861.822 221.831L863.004 228.81L856.746 225.522L850.488 228.81L851.67 221.831L846.623 216.899L853.631 215.89L856.746 209.545Z" fill="#F4F4F4"/>
<path d="M912.926 209.545L916.041 215.89L923.049 216.899L918.002 221.831L919.184 228.81L912.926 225.522L906.668 228.81L907.85 221.831L902.803 216.899L909.811 215.89L912.926 209.545Z" fill="#F4F4F4"/>
<path d="M969.106 209.545L972.221 215.89L979.229 216.899L974.182 221.831L975.365 228.81L969.106 225.522L962.848 228.81L964.031 221.831L958.984 216.899L965.992 215.89L969.106 209.545Z" fill="#F4F4F4"/>
<path d="M1025.29 209.545L1028.4 215.89L1035.41 216.899L1030.36 221.831L1031.55 228.81L1025.29 225.522L1019.03 228.81L1020.21 221.831L1015.16 216.899L1022.17 215.89L1025.29 209.545Z" fill="#F4F4F4"/>
<path d="M1081.47 209.545L1084.58 215.89L1091.59 216.899L1086.54 221.831L1087.73 228.81L1081.47 225.522L1075.21 228.81L1076.39 221.831L1071.34 216.899L1078.35 215.89L1081.47 209.545Z" fill="#F4F4F4"/>
<path d="M1137.65 209.545L1140.76 215.89L1147.77 216.899L1142.72 221.831L1143.91 228.81L1137.65 225.522L1131.39 228.81L1132.57 221.831L1127.52 216.899L1134.53 215.89L1137.65 209.545Z" fill="#F4F4F4"/>
<path d="M1193.83 209.545L1196.94 215.89L1203.95 216.899L1198.9 221.831L1200.09 228.81L1193.83 225.522L1187.57 228.81L1188.75 221.831L1183.71 216.899L1190.71 215.89L1193.83 209.545Z" fill="#F4F4F4"/>
<path d="M1250.01 209.545L1253.12 215.89L1260.13 216.899L1255.08 221.831L1256.27 228.81L1250.01 225.522L1243.75 228.81L1244.93 221.831L1239.89 216.899L1246.89 215.89L1250.01 209.545Z" fill="#F4F4F4"/>
<path d="M1306.19 209.545L1309.3 215.89L1316.31 216.899L1311.26 221.831L1312.45 228.81L1306.19 225.522L1299.93 228.81L1301.11 221.831L1296.07 216.899L1303.07 215.89L1306.19 209.545Z" fill="#F4F4F4"/>
<path d="M1362.37 209.545L1365.48 215.89L1372.49 216.899L1367.44 221.831L1368.63 228.81L1362.37 225.522L1356.11 228.81L1357.29 221.831L1352.25 216.899L1359.25 215.89L1362.37 209.545Z" fill="#F4F4F4"/>
<path d="M1418.55 209.545L1421.66 215.89L1428.67 216.899L1423.63 221.831L1424.81 228.81L1418.55 225.522L1412.29 228.81L1413.47 221.831L1408.43 216.899L1415.43 215.89L1418.55 209.545Z" fill="#F4F4F4"/>
<path d="M1474.73 209.545L1477.84 215.89L1484.85 216.899L1479.81 221.831L1480.99 228.81L1474.73 225.522L1468.47 228.81L1469.65 221.831L1464.61 216.899L1471.61 215.89L1474.73 209.545Z" fill="#F4F4F4"/>
<path d="M1530.91 209.545L1534.02 215.89L1541.03 216.899L1535.99 221.831L1537.17 228.81L1530.91 225.522L1524.65 228.81L1525.83 221.831L1520.79 216.899L1527.8 215.89L1530.91 209.545Z" fill="#F4F4F4"/>
<path d="M1587.09 209.545L1590.2 215.89L1597.21 216.899L1592.17 221.831L1593.35 228.81L1587.09 225.522L1580.83 228.81L1582.01 221.831L1576.97 216.899L1583.98 215.89L1587.09 209.545Z" fill="#F4F4F4"/>
<path d="M1643.27 209.545L1646.39 215.89L1653.39 216.899L1648.35 221.831L1649.53 228.81L1643.27 225.522L1637.01 228.81L1638.19 221.831L1633.15 216.899L1640.16 215.89L1643.27 209.545Z" fill="#F4F4F4"/>
<path d="M1699.45 209.545L1702.57 215.89L1709.57 216.899L1704.53 221.831L1705.71 228.81L1699.45 225.522L1693.19 228.81L1694.37 221.831L1689.33 216.899L1696.34 215.89L1699.45 209.545Z" fill="#F4F4F4"/>
<path d="M1755.63 209.545L1758.75 215.89L1765.75 216.899L1760.71 221.831L1761.89 228.81L1755.63 225.522L1749.37 228.81L1750.56 221.831L1745.51 216.899L1752.52 215.89L1755.63 209.545Z" fill="#F4F4F4"/>
<path d="M1811.81 209.545L1814.93 215.89L1821.93 216.899L1816.89 221.831L1818.07 228.81L1811.81 225.522L1805.55 228.81L1806.74 221.831L1801.69 216.899L1808.7 215.89L1811.81 209.545Z" fill="#F4F4F4"/>
<path d="M1867.99 209.545L1871.11 215.89L1878.11 216.899L1873.07 221.831L1874.25 228.81L1867.99 225.522L1861.73 228.81L1862.92 221.831L1857.87 216.899L1864.88 215.89L1867.99 209.545Z" fill="#F4F4F4"/>
<path d="M1924.17 209.545L1927.29 215.89L1934.29 216.899L1929.25 221.831L1930.43 228.81L1924.17 225.522L1917.91 228.81L1919.1 221.831L1914.05 216.899L1921.06 215.89L1924.17 209.545Z" fill="#F4F4F4"/>
<path d="M1980.35 209.545L1983.47 215.89L1990.48 216.899L1985.43 221.831L1986.61 228.81L1980.35 225.522L1974.09 228.81L1975.28 221.831L1970.23 216.899L1977.24 215.89L1980.35 209.545Z" fill="#F4F4F4"/>
<path d="M2036.53 209.545L2039.65 215.89L2046.66 216.899L2041.61 221.831L2042.79 228.81L2036.53 225.522L2030.27 228.81L2031.46 221.831L2026.41 216.899L2033.42 215.89L2036.53 209.545Z" fill="#F4F4F4"/>
<path d="M2092.71 209.545L2095.83 215.89L2102.84 216.899L2097.79 221.831L2098.97 228.81L2092.71 225.522L2086.45 228.81L2087.64 221.831L2082.59 216.899L2089.6 215.89L2092.71 209.545Z" fill="#F4F4F4"/>
<path d="M2148.89 209.545L2152.01 215.89L2159.02 216.899L2153.97 221.831L2155.15 228.81L2148.89 225.522L2142.64 228.81L2143.82 221.831L2138.77 216.899L2145.78 215.89L2148.89 209.545Z" fill="#F4F4F4"/>
<path d="M2205.07 209.545L2208.19 215.89L2215.2 216.899L2210.15 221.831L2211.33 228.81L2205.07 225.522L2198.82 228.81L2200 221.831L2194.95 216.899L2201.96 215.89L2205.07 209.545Z" fill="#F4F4F4"/>
<path d="M2261.25 209.545L2264.37 215.89L2271.38 216.899L2266.33 221.831L2267.51 228.81L2261.25 225.522L2255 228.81L2256.18 221.831L2251.13 216.899L2258.14 215.89L2261.25 209.545Z" fill="#F4F4F4"/>
</g>
<defs>
<clipPath id="clip0_0_1">
<rect width="1442" height="46.2594" fill="white"/>
</clipPath>
<clipPath id="clip1_0_1">
<rect width="1442" height="46.2594" fill="white" transform="translate(0 197)"/>
</clipPath>
<clipPath id="clip2_0_1">
<rect width="1442" height="46.2594" fill="white" transform="translate(838)"/>
</clipPath>
<clipPath id="clip3_0_1">
<rect width="1442" height="46.2594" fill="white" transform="translate(838 197)"/>
</clipPath>
</defs>
</svg>
