<svg width="2004" height="244" viewBox="0 0 2004 244" fill="none" xmlns="http://www.w3.org/2000/svg">
<rect y="46" width="2004" height="151" fill="#2734BD"/>
<path d="M1422.35 97.533C1418.98 97.533 1416.23 94.7944 1416.2 91.4234L1416.18 87.002H588.604L588.583 91.4234C588.568 94.7944 585.813 97.533 582.442 97.533H578V156.81H582.442C585.829 156.81 588.583 159.564 588.583 162.951V167.393H1416.2V162.951C1416.2 159.564 1418.96 156.81 1422.35 156.81H1426.79V97.533H1422.35Z" fill="#7F798A"/>
<path d="M1422.35 86.5311C1418.98 86.5311 1416.23 83.7925 1416.2 80.4215L1416.18 76H588.604L588.583 80.4215C588.568 83.7925 585.813 86.5311 582.442 86.5311H578V145.808H582.442C585.829 145.808 588.583 148.562 588.583 151.949V156.391H1416.2V151.949C1416.2 148.562 1418.96 145.808 1422.35 145.808H1426.79V86.5311H1422.35Z" fill="#F4F4F4"/>
<path d="M1411.77 80.4424H593.026C593 86.2645 588.27 90.9734 582.442 90.9734V141.366C588.285 141.366 593.026 146.106 593.026 151.949H1411.76C1411.76 146.106 1416.5 141.366 1422.35 141.366V90.9734C1416.52 90.9734 1411.79 86.2645 1411.76 80.4424H1411.77Z" stroke="#F20505" stroke-width="2.09053" stroke-miterlimit="10"/>
<path d="M667.707 117.714C667.535 118.401 667.306 119.024 667.02 119.583C666.733 120.142 666.382 120.618 665.967 121.012C665.559 121.406 665.079 121.71 664.527 121.925C663.983 122.14 663.356 122.247 662.647 122.247C661.666 122.247 660.836 122.047 660.155 121.646C659.475 121.237 658.916 120.697 658.479 120.023C658.05 119.343 657.738 118.57 657.545 117.703C657.359 116.829 657.266 115.924 657.266 114.985C657.266 114.047 657.359 113.141 657.545 112.268C657.738 111.394 658.046 110.624 658.469 109.958C658.898 109.292 659.443 108.758 660.102 108.357C660.76 107.949 661.566 107.745 662.519 107.745C662.826 107.745 663.138 107.785 663.453 107.863C663.768 107.942 664.062 108.064 664.334 108.229C664.606 108.386 664.842 108.583 665.043 108.819C665.251 109.056 665.397 109.328 665.483 109.636V107.981H667.492V113.288H665.483C665.483 112.851 665.43 112.422 665.322 111.999C665.215 111.569 665.043 111.19 664.807 110.86C664.57 110.531 664.273 110.262 663.915 110.055C663.557 109.847 663.134 109.743 662.647 109.743C662.017 109.743 661.502 109.897 661.101 110.205C660.7 110.513 660.377 110.918 660.134 111.419C659.89 111.92 659.718 112.482 659.618 113.105C659.525 113.729 659.479 114.355 659.479 114.985C659.479 115.616 659.525 116.246 659.618 116.876C659.718 117.506 659.887 118.072 660.123 118.573C660.359 119.067 660.682 119.468 661.09 119.776C661.498 120.084 662.017 120.238 662.647 120.238C663.557 120.238 664.255 119.948 664.742 119.368C665.236 118.788 665.63 118.007 665.924 117.026L667.707 117.714ZM669.136 114.985C669.136 114.047 669.236 113.141 669.437 112.268C669.637 111.394 669.949 110.624 670.371 109.958C670.794 109.292 671.345 108.758 672.025 108.357C672.713 107.949 673.54 107.745 674.507 107.745C675.474 107.745 676.297 107.949 676.978 108.357C677.665 108.758 678.224 109.292 678.653 109.958C679.083 110.624 679.395 111.394 679.588 112.268C679.781 113.141 679.878 114.047 679.878 114.985C679.878 115.924 679.781 116.829 679.588 117.703C679.395 118.57 679.087 119.343 678.664 120.023C678.242 120.697 677.687 121.237 676.999 121.646C676.319 122.047 675.488 122.247 674.507 122.247C673.526 122.247 672.691 122.047 672.004 121.646C671.324 121.237 670.769 120.697 670.339 120.023C669.916 119.343 669.612 118.57 669.426 117.703C669.232 116.829 669.136 115.924 669.136 114.985ZM671.359 114.985C671.359 115.616 671.406 116.246 671.499 116.876C671.599 117.506 671.764 118.072 671.993 118.573C672.229 119.067 672.548 119.468 672.949 119.776C673.357 120.084 673.877 120.238 674.507 120.238C675.137 120.238 675.653 120.084 676.054 119.776C676.462 119.468 676.781 119.067 677.01 118.573C677.246 118.072 677.411 117.506 677.504 116.876C677.604 116.246 677.654 115.616 677.654 114.985C677.654 114.355 677.604 113.729 677.504 113.105C677.411 112.482 677.246 111.92 677.01 111.419C676.781 110.918 676.458 110.513 676.043 110.205C675.635 109.897 675.123 109.743 674.507 109.743C673.483 109.743 672.702 110.205 672.165 111.129C671.628 112.053 671.359 113.338 671.359 114.985ZM691.512 112.171C691.512 113.575 691.086 114.62 690.233 115.308C689.381 115.988 688.192 116.328 686.667 116.328H684.25V122H682.026V107.981H686.646C688.185 107.981 689.381 108.336 690.233 109.045C691.086 109.747 691.512 110.789 691.512 112.171ZM689.288 112.139C689.288 111.423 689.052 110.885 688.579 110.527C688.114 110.169 687.476 109.99 686.667 109.99H684.25V114.319H686.667C687.476 114.319 688.114 114.14 688.579 113.782C689.052 113.424 689.288 112.876 689.288 112.139ZM703.736 109.99H702.727L699.622 116.285V120.002H701.867V122H695.164V120.002H697.398V116.285L694.305 109.99H693.295V107.981H697.71V109.99H696.743L698.526 114.104L700.288 109.99H699.321V107.981H703.736V109.99Z" fill="#1A10A3"/>
<path d="M764.871 124H759.879V121.82H760.746L759.141 118.363L757.535 121.82H758.391V124H753.445V121.82H754.77L757.746 116.277L754.816 110.898H753.715V108.707H758.566V110.898H757.582L759.141 114.285L760.723 110.898H759.762V108.707H764.637V110.898H763.453L760.535 116.277L763.512 121.82H764.871V124ZM777.973 124H772.98V121.82H773.848L772.242 118.363L770.637 121.82H771.492V124H766.547V121.82H767.871L770.848 116.277L767.918 110.898H766.816V108.707H771.668V110.898H770.684L772.242 114.285L773.824 110.898H772.863V108.707H777.738V110.898H776.555L773.637 116.277L776.613 121.82H777.973V124ZM791.074 124H786.082V121.82H786.949L785.344 118.363L783.738 121.82H784.594V124H779.648V121.82H780.973L783.949 116.277L781.02 110.898H779.918V108.707H784.77V110.898H783.785L785.344 114.285L786.926 110.898H785.965V108.707H790.84V110.898H789.656L786.738 116.277L789.715 121.82H791.074V124ZM804.176 124H799.184V121.82H800.051L798.445 118.363L796.84 121.82H797.695V124H792.75V121.82H794.074L797.051 116.277L794.121 110.898H793.02V108.707H797.871V110.898H796.887L798.445 114.285L800.027 110.898H799.066V108.707H803.941V110.898H802.758L799.84 116.277L802.816 121.82H804.176V124ZM817.277 124H812.285V121.82H813.152L811.547 118.363L809.941 121.82H810.797V124H805.852V121.82H807.176L810.152 116.277L807.223 110.898H806.121V108.707H810.973V110.898H809.988L811.547 114.285L813.129 110.898H812.168V108.707H817.043V110.898H815.859L812.941 116.277L815.918 121.82H817.277V124ZM830.379 124H825.387V121.82H826.254L824.648 118.363L823.043 121.82H823.898V124H818.953V121.82H820.277L823.254 116.277L820.324 110.898H819.223V108.707H824.074V110.898H823.09L824.648 114.285L826.23 110.898H825.27V108.707H830.145V110.898H828.961L826.043 116.277L829.02 121.82H830.379V124ZM843.48 124H838.488V121.82H839.355L837.75 118.363L836.145 121.82H837V124H832.055V121.82H833.379L836.355 116.277L833.426 110.898H832.324V108.707H837.176V110.898H836.191L837.75 114.285L839.332 110.898H838.371V108.707H843.246V110.898H842.062L839.145 116.277L842.121 121.82H843.48V124ZM856.582 124H851.59V121.82H852.457L850.852 118.363L849.246 121.82H850.102V124H845.156V121.82H846.48L849.457 116.277L846.527 110.898H845.426V108.707H850.277V110.898H849.293L850.852 114.285L852.434 110.898H851.473V108.707H856.348V110.898H855.164L852.246 116.277L855.223 121.82H856.582V124ZM869.684 124H864.691V121.82H865.559L863.953 118.363L862.348 121.82H863.203V124H858.258V121.82H859.582L862.559 116.277L859.629 110.898H858.527V108.707H863.379V110.898H862.395L863.953 114.285L865.535 110.898H864.574V108.707H869.449V110.898H868.266L865.348 116.277L868.324 121.82H869.684V124ZM882.785 124H877.793V121.82H878.66L877.055 118.363L875.449 121.82H876.305V124H871.359V121.82H872.684L875.66 116.277L872.73 110.898H871.629V108.707H876.48V110.898H875.496L877.055 114.285L878.637 110.898H877.676V108.707H882.551V110.898H881.367L878.449 116.277L881.426 121.82H882.785V124ZM895.887 124H890.895V121.82H891.762L890.156 118.363L888.551 121.82H889.406V124H884.461V121.82H885.785L888.762 116.277L885.832 110.898H884.73V108.707H889.582V110.898H888.598L890.156 114.285L891.738 110.898H890.777V108.707H895.652V110.898H894.469L891.551 116.277L894.527 121.82H895.887V124ZM908.988 124H903.996V121.82H904.863L903.258 118.363L901.652 121.82H902.508V124H897.562V121.82H898.887L901.863 116.277L898.934 110.898H897.832V108.707H902.684V110.898H901.699L903.258 114.285L904.84 110.898H903.879V108.707H908.754V110.898H907.57L904.652 116.277L907.629 121.82H908.988V124ZM922.09 124H917.098V121.82H917.965L916.359 118.363L914.754 121.82H915.609V124H910.664V121.82H911.988L914.965 116.277L912.035 110.898H910.934V108.707H915.785V110.898H914.801L916.359 114.285L917.941 110.898H916.98V108.707H921.855V110.898H920.672L917.754 116.277L920.73 121.82H922.09V124ZM935.191 124H930.199V121.82H931.066L929.461 118.363L927.855 121.82H928.711V124H923.766V121.82H925.09L928.066 116.277L925.137 110.898H924.035V108.707H928.887V110.898H927.902L929.461 114.285L931.043 110.898H930.082V108.707H934.957V110.898H933.773L930.855 116.277L933.832 121.82H935.191V124ZM948.293 124H943.301V121.82H944.168L942.562 118.363L940.957 121.82H941.812V124H936.867V121.82H938.191L941.168 116.277L938.238 110.898H937.137V108.707H941.988V110.898H941.004L942.562 114.285L944.145 110.898H943.184V108.707H948.059V110.898H946.875L943.957 116.277L946.934 121.82H948.293V124ZM961.395 124H956.402V121.82H957.27L955.664 118.363L954.059 121.82H954.914V124H949.969V121.82H951.293L954.27 116.277L951.34 110.898H950.238V108.707H955.09V110.898H954.105L955.664 114.285L957.246 110.898H956.285V108.707H961.16V110.898H959.977L957.059 116.277L960.035 121.82H961.395V124ZM974.496 124H969.504V121.82H970.371L968.766 118.363L967.16 121.82H968.016V124H963.07V121.82H964.395L967.371 116.277L964.441 110.898H963.34V108.707H968.191V110.898H967.207L968.766 114.285L970.348 110.898H969.387V108.707H974.262V110.898H973.078L970.16 116.277L973.137 121.82H974.496V124ZM987.598 124H982.605V121.82H983.473L981.867 118.363L980.262 121.82H981.117V124H976.172V121.82H977.496L980.473 116.277L977.543 110.898H976.441V108.707H981.293V110.898H980.309L981.867 114.285L983.449 110.898H982.488V108.707H987.363V110.898H986.18L983.262 116.277L986.238 121.82H987.598V124ZM1000.7 124H995.707V121.82H996.574L994.969 118.363L993.363 121.82H994.219V124H989.273V121.82H990.598L993.574 116.277L990.645 110.898H989.543V108.707H994.395V110.898H993.41L994.969 114.285L996.551 110.898H995.59V108.707H1000.46V110.898H999.281L996.363 116.277L999.34 121.82H1000.7V124ZM1013.8 124H1008.81V121.82H1009.68L1008.07 118.363L1006.46 121.82H1007.32V124H1002.38V121.82H1003.7L1006.68 116.277L1003.75 110.898H1002.64V108.707H1007.5V110.898H1006.51L1008.07 114.285L1009.65 110.898H1008.69V108.707H1013.57V110.898H1012.38L1009.46 116.277L1012.44 121.82H1013.8V124ZM1026.9 124H1021.91V121.82H1022.78L1021.17 118.363L1019.57 121.82H1020.42V124H1015.48V121.82H1016.8L1019.78 116.277L1016.85 110.898H1015.75V108.707H1020.6V110.898H1019.61L1021.17 114.285L1022.75 110.898H1021.79V108.707H1026.67V110.898H1025.48L1022.57 116.277L1025.54 121.82H1026.9V124ZM1040 124H1035.01V121.82H1035.88L1034.27 118.363L1032.67 121.82H1033.52V124H1028.58V121.82H1029.9L1032.88 116.277L1029.95 110.898H1028.85V108.707H1033.7V110.898H1032.71L1034.27 114.285L1035.86 110.898H1034.89V108.707H1039.77V110.898H1038.59L1035.67 116.277L1038.64 121.82H1040V124ZM1053.11 124H1048.11V121.82H1048.98L1047.38 118.363L1045.77 121.82H1046.62V124H1041.68V121.82H1043L1045.98 116.277L1043.05 110.898H1041.95V108.707H1046.8V110.898H1045.82L1047.38 114.285L1048.96 110.898H1048V108.707H1052.87V110.898H1051.69L1048.77 116.277L1051.75 121.82H1053.11V124ZM1066.21 124H1061.21V121.82H1062.08L1060.48 118.363L1058.87 121.82H1059.73V124H1054.78V121.82H1056.11L1059.08 116.277L1056.15 110.898H1055.05V108.707H1059.9V110.898H1058.92L1060.48 114.285L1062.06 110.898H1061.1V108.707H1065.97V110.898H1064.79L1061.87 116.277L1064.85 121.82H1066.21V124ZM1079.31 124H1074.32V121.82H1075.18L1073.58 118.363L1071.97 121.82H1072.83V124H1067.88V121.82H1069.21L1072.18 116.277L1069.25 110.898H1068.15V108.707H1073V110.898H1072.02L1073.58 114.285L1075.16 110.898H1074.2V108.707H1079.07V110.898H1077.89L1074.97 116.277L1077.95 121.82H1079.31V124ZM1092.41 124H1087.42V121.82H1088.29L1086.68 118.363L1085.07 121.82H1085.93V124H1080.98V121.82H1082.31L1085.29 116.277L1082.36 110.898H1081.25V108.707H1086.11V110.898H1085.12L1086.68 114.285L1088.26 110.898H1087.3V108.707H1092.18V110.898H1090.99L1088.07 116.277L1091.05 121.82H1092.41V124ZM1105.51 124H1100.52V121.82H1101.39L1099.78 118.363L1098.18 121.82H1099.03V124H1094.09V121.82H1095.41L1098.39 116.277L1095.46 110.898H1094.36V108.707H1099.21V110.898H1098.22L1099.78 114.285L1101.36 110.898H1100.4V108.707H1105.28V110.898H1104.09L1101.18 116.277L1104.15 121.82H1105.51V124ZM1118.61 124H1113.62V121.82H1114.49L1112.88 118.363L1111.28 121.82H1112.13V124H1107.19V121.82H1108.51L1111.49 116.277L1108.56 110.898H1107.46V108.707H1112.31V110.898H1111.32L1112.88 114.285L1114.46 110.898H1113.5V108.707H1118.38V110.898H1117.2L1114.28 116.277L1117.25 121.82H1118.61V124ZM1131.71 124H1126.72V121.82H1127.59L1125.98 118.363L1124.38 121.82H1125.23V124H1120.29V121.82H1121.61L1124.59 116.277L1121.66 110.898H1120.56V108.707H1125.41V110.898H1124.43L1125.98 114.285L1127.57 110.898H1126.61V108.707H1131.48V110.898H1130.3L1127.38 116.277L1130.36 121.82H1131.71V124ZM1144.82 124H1139.82V121.82H1140.69L1139.09 118.363L1137.48 121.82H1138.34V124H1133.39V121.82H1134.71L1137.69 116.277L1134.76 110.898H1133.66V108.707H1138.51V110.898H1137.53L1139.09 114.285L1140.67 110.898H1139.71V108.707H1144.58V110.898H1143.4L1140.48 116.277L1143.46 121.82H1144.82V124ZM1157.92 124H1152.93V121.82H1153.79L1152.19 118.363L1150.58 121.82H1151.44V124H1146.49V121.82H1147.82L1150.79 116.277L1147.86 110.898H1146.76V108.707H1151.61V110.898H1150.63L1152.19 114.285L1153.77 110.898H1152.81V108.707H1157.68V110.898H1156.5L1153.58 116.277L1156.56 121.82H1157.92V124ZM1171.02 124H1166.03V121.82H1166.89L1165.29 118.363L1163.68 121.82H1164.54V124H1159.59V121.82H1160.92L1163.89 116.277L1160.96 110.898H1159.86V108.707H1164.71V110.898H1163.73L1165.29 114.285L1166.87 110.898H1165.91V108.707H1170.79V110.898H1169.6L1166.68 116.277L1169.66 121.82H1171.02V124ZM1184.12 124H1179.13V121.82H1180L1178.39 118.363L1176.79 121.82H1177.64V124H1172.7V121.82H1174.02L1177 116.277L1174.07 110.898H1172.96V108.707H1177.82V110.898H1176.83L1178.39 114.285L1179.97 110.898H1179.01V108.707H1183.89V110.898H1182.7L1179.79 116.277L1182.76 121.82H1184.12V124ZM1197.22 124H1192.23V121.82H1193.1L1191.49 118.363L1189.89 121.82H1190.74V124H1185.8V121.82H1187.12L1190.1 116.277L1187.17 110.898H1186.07V108.707H1190.92V110.898H1189.93L1191.49 114.285L1193.07 110.898H1192.11V108.707H1196.99V110.898H1195.8L1192.89 116.277L1195.86 121.82H1197.22V124ZM1210.32 124H1205.33V121.82H1206.2L1204.59 118.363L1202.99 121.82H1203.84V124H1198.9V121.82H1200.22L1203.2 116.277L1200.27 110.898H1199.17V108.707H1204.02V110.898H1203.04L1204.59 114.285L1206.18 110.898H1205.21V108.707H1210.09V110.898H1208.91L1205.99 116.277L1208.96 121.82H1210.32V124ZM1223.43 124H1218.43V121.82H1219.3L1217.7 118.363L1216.09 121.82H1216.95V124H1212V121.82H1213.32L1216.3 116.277L1213.37 110.898H1212.27V108.707H1217.12V110.898H1216.14L1217.7 114.285L1219.28 110.898H1218.32V108.707H1223.19V110.898H1222.01L1219.09 116.277L1222.07 121.82H1223.43V124ZM1236.53 124H1231.54V121.82H1232.4L1230.8 118.363L1229.19 121.82H1230.05V124H1225.1V121.82H1226.43L1229.4 116.277L1226.47 110.898H1225.37V108.707H1230.22V110.898H1229.24L1230.8 114.285L1232.38 110.898H1231.42V108.707H1236.29V110.898H1235.11L1232.19 116.277L1235.17 121.82H1236.53V124ZM1249.63 124H1244.64V121.82H1245.5L1243.9 118.363L1242.29 121.82H1243.15V124H1238.2V121.82H1239.53L1242.5 116.277L1239.57 110.898H1238.47V108.707H1243.32V110.898H1242.34L1243.9 114.285L1245.48 110.898H1244.52V108.707H1249.39V110.898H1248.21L1245.29 116.277L1248.27 121.82H1249.63V124ZM1262.73 124H1257.74V121.82H1258.61L1257 118.363L1255.39 121.82H1256.25V124H1251.3V121.82H1252.63L1255.61 116.277L1252.68 110.898H1251.57V108.707H1256.43V110.898H1255.44L1257 114.285L1258.58 110.898H1257.62V108.707H1262.5V110.898H1261.31L1258.39 116.277L1261.37 121.82H1262.73V124ZM1275.83 124H1270.84V121.82H1271.71L1270.1 118.363L1268.5 121.82H1269.35V124H1264.41V121.82H1265.73L1268.71 116.277L1265.78 110.898H1264.68V108.707H1269.53V110.898H1268.54L1270.1 114.285L1271.68 110.898H1270.72V108.707H1275.6V110.898H1274.41L1271.5 116.277L1274.47 121.82H1275.83V124ZM1288.93 124H1283.94V121.82H1284.81L1283.2 118.363L1281.6 121.82H1282.45V124H1277.51V121.82H1278.83L1281.81 116.277L1278.88 110.898H1277.78V108.707H1282.63V110.898H1281.64L1283.2 114.285L1284.79 110.898H1283.82V108.707H1288.7V110.898H1287.52L1284.6 116.277L1287.57 121.82H1288.93V124ZM1302.04 124H1297.04V121.82H1297.91L1296.3 118.363L1294.7 121.82H1295.55V124H1290.61V121.82H1291.93L1294.91 116.277L1291.98 110.898H1290.88V108.707H1295.73V110.898H1294.75L1296.3 114.285L1297.89 110.898H1296.93V108.707H1301.8V110.898H1300.62L1297.7 116.277L1300.68 121.82H1302.04V124ZM1315.14 124H1310.14V121.82H1311.01L1309.41 118.363L1307.8 121.82H1308.66V124H1303.71V121.82H1305.04L1308.01 116.277L1305.08 110.898H1303.98V108.707H1308.83V110.898H1307.85L1309.41 114.285L1310.99 110.898H1310.03V108.707H1314.9V110.898H1313.72L1310.8 116.277L1313.78 121.82H1315.14V124ZM1328.24 124H1323.25V121.82H1324.11L1322.51 118.363L1320.9 121.82H1321.76V124H1316.81V121.82H1318.14L1321.11 116.277L1318.18 110.898H1317.08V108.707H1321.93V110.898H1320.95L1322.51 114.285L1324.09 110.898H1323.13V108.707H1328V110.898H1326.82L1323.9 116.277L1326.88 121.82H1328.24V124ZM1341.34 124H1336.35V121.82H1337.21L1335.61 118.363L1334 121.82H1334.86V124H1329.91V121.82H1331.24L1334.21 116.277L1331.29 110.898H1330.18V108.707H1335.04V110.898H1334.05L1335.61 114.285L1337.19 110.898H1336.23V108.707H1341.11V110.898H1339.92L1337 116.277L1339.98 121.82H1341.34V124Z" fill="#F20505"/>
<g clip-path="url(#clip0_128_24)">
<path d="M1442 0H0V46.2594H1442V0Z" fill="#271F91"/>
<path d="M18.7459 12.5449L21.8606 18.8897L28.8687 19.8991L23.8217 24.8308L25.0042 31.81L18.7459 28.5223L12.4876 31.81L13.67 24.8308L8.62305 19.8991L15.6312 18.8897L18.7459 12.5449Z" fill="#F4F4F4"/>
<path d="M74.9261 12.5449L78.0408 18.8897L85.0489 19.8991L80.0019 24.8308L81.1843 31.81L74.9261 28.5223L68.6678 31.81L69.8502 24.8308L64.8032 19.8991L71.8113 18.8897L74.9261 12.5449Z" fill="#F4F4F4"/>
<path d="M131.106 12.5449L134.221 18.8897L141.229 19.8991L136.182 24.8308L137.365 31.81L131.106 28.5223L124.848 31.81L126.031 24.8308L120.984 19.8991L127.992 18.8897L131.106 12.5449Z" fill="#F4F4F4"/>
<path d="M187.287 12.5449L190.401 18.8897L197.409 19.8991L192.362 24.8308L193.545 31.81L187.287 28.5223L181.028 31.81L182.211 24.8308L177.164 19.8991L184.172 18.8897L187.287 12.5449Z" fill="#F4F4F4"/>
<path d="M243.467 12.5449L246.582 18.8897L253.59 19.8991L248.543 24.8308L249.725 31.81L243.467 28.5223L237.209 31.81L238.391 24.8308L233.344 19.8991L240.352 18.8897L243.467 12.5449Z" fill="#F4F4F4"/>
<path d="M299.647 12.5449L302.762 18.8897L309.77 19.8991L304.723 24.8308L305.906 31.81L299.647 28.5223L293.389 31.81L294.571 24.8308L289.524 19.8991L296.533 18.8897L299.647 12.5449Z" fill="#F4F4F4"/>
<path d="M355.828 12.5449L358.943 18.8897L365.951 19.8991L360.904 24.8308L362.086 31.81L355.828 28.5223L349.57 31.81L350.752 24.8308L345.705 19.8991L352.713 18.8897L355.828 12.5449Z" fill="#F4F4F4"/>
<path d="M412.008 12.5449L415.123 18.8897L422.131 19.8991L417.084 24.8308L418.267 31.81L412.008 28.5223L405.75 31.81L406.932 24.8308L401.885 19.8991L408.894 18.8897L412.008 12.5449Z" fill="#F4F4F4"/>
<path d="M468.189 12.5449L471.303 18.8897L478.312 19.8991L473.265 24.8308L474.447 31.81L468.189 28.5223L461.93 31.81L463.113 24.8308L458.066 19.8991L465.074 18.8897L468.189 12.5449Z" fill="#F4F4F4"/>
<path d="M524.369 12.5449L527.484 18.8897L534.492 19.8991L529.445 24.8308L530.627 31.81L524.369 28.5223L518.111 31.81L519.293 24.8308L514.246 19.8991L521.254 18.8897L524.369 12.5449Z" fill="#F4F4F4"/>
<path d="M580.549 12.5449L583.664 18.8897L590.672 19.8991L585.625 24.8308L586.807 31.81L580.549 28.5223L574.291 31.81L575.473 24.8308L570.426 19.8991L577.434 18.8897L580.549 12.5449Z" fill="#F4F4F4"/>
<path d="M636.73 12.5449L639.844 18.8897L646.852 19.8991L641.805 24.8308L642.988 31.81L636.73 28.5223L630.471 31.81L631.654 24.8308L626.607 19.8991L633.615 18.8897L636.73 12.5449Z" fill="#F4F4F4"/>
<path d="M692.91 12.5449L696.024 18.8897L703.033 19.8991L697.986 24.8308L699.168 31.81L692.91 28.5223L686.651 31.81L687.834 24.8308L682.787 19.8991L689.795 18.8897L692.91 12.5449Z" fill="#F4F4F4"/>
<path d="M749.09 12.5449L752.205 18.8897L759.213 19.8991L754.166 24.8308L755.348 31.81L749.09 28.5223L742.832 31.81L744.014 24.8308L738.967 19.8991L745.975 18.8897L749.09 12.5449Z" fill="#F4F4F4"/>
<path d="M805.27 12.5449L808.385 18.8897L815.393 19.8991L810.346 24.8308L811.529 31.81L805.27 28.5223L799.012 31.81L800.194 24.8308L795.147 19.8991L802.156 18.8897L805.27 12.5449Z" fill="#F4F4F4"/>
<path d="M861.451 12.5449L864.565 18.8897L871.573 19.8991L866.526 24.8308L867.709 31.81L861.451 28.5223L855.192 31.81L856.375 24.8308L851.328 19.8991L858.336 18.8897L861.451 12.5449Z" fill="#F4F4F4"/>
<path d="M917.631 12.5449L920.745 18.8897L927.754 19.8991L922.707 24.8308L923.889 31.81L917.631 28.5223L911.372 31.81L912.555 24.8308L907.508 19.8991L914.516 18.8897L917.631 12.5449Z" fill="#F4F4F4"/>
<path d="M973.811 12.5449L976.926 18.8897L983.934 19.8991L978.887 24.8308L980.069 31.81L973.811 28.5223L967.553 31.81L968.735 24.8308L963.688 19.8991L970.696 18.8897L973.811 12.5449Z" fill="#F4F4F4"/>
<path d="M1029.99 12.5449L1033.11 18.8897L1040.11 19.8991L1035.07 24.8308L1036.25 31.81L1029.99 28.5223L1023.73 31.81L1024.92 24.8308L1019.87 19.8991L1026.88 18.8897L1029.99 12.5449Z" fill="#F4F4F4"/>
<path d="M1086.17 12.5449L1089.29 18.8897L1096.29 19.8991L1091.25 24.8308L1092.43 31.81L1086.17 28.5223L1079.91 31.81L1081.1 24.8308L1076.05 19.8991L1083.06 18.8897L1086.17 12.5449Z" fill="#F4F4F4"/>
<path d="M1142.35 12.5449L1145.47 18.8897L1152.48 19.8991L1147.43 24.8308L1148.61 31.81L1142.35 28.5223L1136.09 31.81L1137.28 24.8308L1132.23 19.8991L1139.24 18.8897L1142.35 12.5449Z" fill="#F4F4F4"/>
<path d="M1198.53 12.5449L1201.65 18.8897L1208.66 19.8991L1203.61 24.8308L1204.79 31.81L1198.53 28.5223L1192.27 31.81L1193.46 24.8308L1188.41 19.8991L1195.42 18.8897L1198.53 12.5449Z" fill="#F4F4F4"/>
<path d="M1254.71 12.5449L1257.83 18.8897L1264.84 19.8991L1259.79 24.8308L1260.97 31.81L1254.71 28.5223L1248.45 31.81L1249.64 24.8308L1244.59 19.8991L1251.6 18.8897L1254.71 12.5449Z" fill="#F4F4F4"/>
<path d="M1310.89 12.5449L1314.01 18.8897L1321.02 19.8991L1315.97 24.8308L1317.15 31.81L1310.89 28.5223L1304.64 31.81L1305.82 24.8308L1300.77 19.8991L1307.78 18.8897L1310.89 12.5449Z" fill="#F4F4F4"/>
<path d="M1367.07 12.5449L1370.19 18.8897L1377.2 19.8991L1372.15 24.8308L1373.33 31.81L1367.07 28.5223L1360.82 31.81L1362 24.8308L1356.95 19.8991L1363.96 18.8897L1367.07 12.5449Z" fill="#F4F4F4"/>
<path d="M1423.25 12.5449L1426.37 18.8897L1433.38 19.8991L1428.33 24.8308L1429.51 31.81L1423.25 28.5223L1417 31.81L1418.18 24.8308L1413.13 19.8991L1420.14 18.8897L1423.25 12.5449Z" fill="#F4F4F4"/>
</g>
<g clip-path="url(#clip1_128_24)">
<path d="M1442 197H0V243.259H1442V197Z" fill="#271F90"/>
<path d="M18.7459 209.545L21.8606 215.89L28.8687 216.899L23.8217 221.831L25.0042 228.81L18.7459 225.522L12.4876 228.81L13.67 221.831L8.62305 216.899L15.6312 215.89L18.7459 209.545Z" fill="#F4F4F4"/>
<path d="M74.9261 209.545L78.0408 215.89L85.0489 216.899L80.0019 221.831L81.1843 228.81L74.9261 225.522L68.6678 228.81L69.8502 221.831L64.8032 216.899L71.8113 215.89L74.9261 209.545Z" fill="#F4F4F4"/>
<path d="M131.106 209.545L134.221 215.89L141.229 216.899L136.182 221.831L137.365 228.81L131.106 225.522L124.848 228.81L126.031 221.831L120.984 216.899L127.992 215.89L131.106 209.545Z" fill="#F4F4F4"/>
<path d="M187.287 209.545L190.401 215.89L197.409 216.899L192.362 221.831L193.545 228.81L187.287 225.522L181.028 228.81L182.211 221.831L177.164 216.899L184.172 215.89L187.287 209.545Z" fill="#F4F4F4"/>
<path d="M243.467 209.545L246.582 215.89L253.59 216.899L248.543 221.831L249.725 228.81L243.467 225.522L237.209 228.81L238.391 221.831L233.344 216.899L240.352 215.89L243.467 209.545Z" fill="#F4F4F4"/>
<path d="M299.647 209.545L302.762 215.89L309.77 216.899L304.723 221.831L305.906 228.81L299.647 225.522L293.389 228.81L294.571 221.831L289.524 216.899L296.533 215.89L299.647 209.545Z" fill="#F4F4F4"/>
<path d="M355.828 209.545L358.943 215.89L365.951 216.899L360.904 221.831L362.086 228.81L355.828 225.522L349.57 228.81L350.752 221.831L345.705 216.899L352.713 215.89L355.828 209.545Z" fill="#F4F4F4"/>
<path d="M412.008 209.545L415.123 215.89L422.131 216.899L417.084 221.831L418.267 228.81L412.008 225.522L405.75 228.81L406.932 221.831L401.885 216.899L408.894 215.89L412.008 209.545Z" fill="#F4F4F4"/>
<path d="M468.189 209.545L471.303 215.89L478.312 216.899L473.265 221.831L474.447 228.81L468.189 225.522L461.93 228.81L463.113 221.831L458.066 216.899L465.074 215.89L468.189 209.545Z" fill="#F4F4F4"/>
<path d="M524.369 209.545L527.484 215.89L534.492 216.899L529.445 221.831L530.627 228.81L524.369 225.522L518.111 228.81L519.293 221.831L514.246 216.899L521.254 215.89L524.369 209.545Z" fill="#F4F4F4"/>
<path d="M580.549 209.545L583.664 215.89L590.672 216.899L585.625 221.831L586.807 228.81L580.549 225.522L574.291 228.81L575.473 221.831L570.426 216.899L577.434 215.89L580.549 209.545Z" fill="#F4F4F4"/>
<path d="M636.73 209.545L639.844 215.89L646.852 216.899L641.805 221.831L642.988 228.81L636.73 225.522L630.471 228.81L631.654 221.831L626.607 216.899L633.615 215.89L636.73 209.545Z" fill="#F4F4F4"/>
<path d="M692.91 209.545L696.024 215.89L703.033 216.899L697.986 221.831L699.168 228.81L692.91 225.522L686.651 228.81L687.834 221.831L682.787 216.899L689.795 215.89L692.91 209.545Z" fill="#F4F4F4"/>
<path d="M749.09 209.545L752.205 215.89L759.213 216.899L754.166 221.831L755.348 228.81L749.09 225.522L742.832 228.81L744.014 221.831L738.967 216.899L745.975 215.89L749.09 209.545Z" fill="#F4F4F4"/>
<path d="M805.27 209.545L808.385 215.89L815.393 216.899L810.346 221.831L811.529 228.81L805.27 225.522L799.012 228.81L800.194 221.831L795.147 216.899L802.156 215.89L805.27 209.545Z" fill="#F4F4F4"/>
<path d="M861.451 209.545L864.565 215.89L871.573 216.899L866.526 221.831L867.709 228.81L861.451 225.522L855.192 228.81L856.375 221.831L851.328 216.899L858.336 215.89L861.451 209.545Z" fill="#F4F4F4"/>
<path d="M917.631 209.545L920.745 215.89L927.754 216.899L922.707 221.831L923.889 228.81L917.631 225.522L911.372 228.81L912.555 221.831L907.508 216.899L914.516 215.89L917.631 209.545Z" fill="#F4F4F4"/>
<path d="M973.811 209.545L976.926 215.89L983.934 216.899L978.887 221.831L980.069 228.81L973.811 225.522L967.553 228.81L968.735 221.831L963.688 216.899L970.696 215.89L973.811 209.545Z" fill="#F4F4F4"/>
<path d="M1029.99 209.545L1033.11 215.89L1040.11 216.899L1035.07 221.831L1036.25 228.81L1029.99 225.522L1023.73 228.81L1024.92 221.831L1019.87 216.899L1026.88 215.89L1029.99 209.545Z" fill="#F4F4F4"/>
<path d="M1086.17 209.545L1089.29 215.89L1096.29 216.899L1091.25 221.831L1092.43 228.81L1086.17 225.522L1079.91 228.81L1081.1 221.831L1076.05 216.899L1083.06 215.89L1086.17 209.545Z" fill="#F4F4F4"/>
<path d="M1142.35 209.545L1145.47 215.89L1152.48 216.899L1147.43 221.831L1148.61 228.81L1142.35 225.522L1136.09 228.81L1137.28 221.831L1132.23 216.899L1139.24 215.89L1142.35 209.545Z" fill="#F4F4F4"/>
<path d="M1198.53 209.545L1201.65 215.89L1208.66 216.899L1203.61 221.831L1204.79 228.81L1198.53 225.522L1192.27 228.81L1193.46 221.831L1188.41 216.899L1195.42 215.89L1198.53 209.545Z" fill="#F4F4F4"/>
<path d="M1254.71 209.545L1257.83 215.89L1264.84 216.899L1259.79 221.831L1260.97 228.81L1254.71 225.522L1248.45 228.81L1249.64 221.831L1244.59 216.899L1251.6 215.89L1254.71 209.545Z" fill="#F4F4F4"/>
<path d="M1310.89 209.545L1314.01 215.89L1321.02 216.899L1315.97 221.831L1317.15 228.81L1310.89 225.522L1304.64 228.81L1305.82 221.831L1300.77 216.899L1307.78 215.89L1310.89 209.545Z" fill="#F4F4F4"/>
<path d="M1367.07 209.545L1370.19 215.89L1377.2 216.899L1372.15 221.831L1373.33 228.81L1367.07 225.522L1360.82 228.81L1362 221.831L1356.95 216.899L1363.96 215.89L1367.07 209.545Z" fill="#F4F4F4"/>
<path d="M1423.25 209.545L1426.37 215.89L1433.38 216.899L1428.33 221.831L1429.51 228.81L1423.25 225.522L1417 228.81L1418.18 221.831L1413.13 216.899L1420.14 215.89L1423.25 209.545Z" fill="#F4F4F4"/>
<g clip-path="url(#clip2_128_24)">
<path d="M2374 167H932V213.259H2374V167Z" fill="#271F91"/>
<path d="M950.746 179.545L953.861 185.89L960.869 186.899L955.822 191.831L957.004 198.81L950.746 195.522L944.488 198.81L945.67 191.831L940.623 186.899L947.631 185.89L950.746 179.545Z" fill="#F4F4F4"/>
<path d="M1006.93 179.545L1010.04 185.89L1017.05 186.899L1012 191.831L1013.18 198.81L1006.93 195.522L1000.67 198.81L1001.85 191.831L996.803 186.899L1003.81 185.89L1006.93 179.545Z" fill="#F4F4F4"/>
<path d="M1063.11 179.545L1066.22 185.89L1073.23 186.899L1068.18 191.831L1069.36 198.81L1063.11 195.522L1056.85 198.81L1058.03 191.831L1052.98 186.899L1059.99 185.89L1063.11 179.545Z" fill="#F4F4F4"/>
<path d="M1119.29 179.545L1122.4 185.89L1129.41 186.899L1124.36 191.831L1125.55 198.81L1119.29 195.522L1113.03 198.81L1114.21 191.831L1109.16 186.899L1116.17 185.89L1119.29 179.545Z" fill="#F4F4F4"/>
<path d="M1175.47 179.545L1178.58 185.89L1185.59 186.899L1180.54 191.831L1181.73 198.81L1175.47 195.522L1169.21 198.81L1170.39 191.831L1165.34 186.899L1172.35 185.89L1175.47 179.545Z" fill="#F4F4F4"/>
<path d="M1231.65 179.545L1234.76 185.89L1241.77 186.899L1236.72 191.831L1237.91 198.81L1231.65 195.522L1225.39 198.81L1226.57 191.831L1221.52 186.899L1228.53 185.89L1231.65 179.545Z" fill="#F4F4F4"/>
<path d="M1287.83 179.545L1290.94 185.89L1297.95 186.899L1292.9 191.831L1294.09 198.81L1287.83 195.522L1281.57 198.81L1282.75 191.831L1277.71 186.899L1284.71 185.89L1287.83 179.545Z" fill="#F4F4F4"/>
<path d="M1344.01 179.545L1347.12 185.89L1354.13 186.899L1349.08 191.831L1350.27 198.81L1344.01 195.522L1337.75 198.81L1338.93 191.831L1333.89 186.899L1340.89 185.89L1344.01 179.545Z" fill="#F4F4F4"/>
<path d="M1400.19 179.545L1403.3 185.89L1410.31 186.899L1405.26 191.831L1406.45 198.81L1400.19 195.522L1393.93 198.81L1395.11 191.831L1390.07 186.899L1397.07 185.89L1400.19 179.545Z" fill="#F4F4F4"/>
</g>
</g>
<g clip-path="url(#clip3_128_24)">
<path d="M2004 0H562V46.2594H2004V0Z" fill="#271F91"/>
<path d="M580.746 12.5449L583.861 18.8897L590.869 19.8991L585.822 24.8308L587.004 31.81L580.746 28.5223L574.488 31.81L575.67 24.8308L570.623 19.8991L577.631 18.8897L580.746 12.5449Z" fill="#F4F4F4"/>
<path d="M636.926 12.5449L640.041 18.8897L647.049 19.8991L642.002 24.8308L643.184 31.81L636.926 28.5223L630.668 31.81L631.85 24.8308L626.803 19.8991L633.811 18.8897L636.926 12.5449Z" fill="#F4F4F4"/>
<path d="M693.106 12.5449L696.221 18.8897L703.229 19.8991L698.182 24.8308L699.365 31.81L693.106 28.5223L686.848 31.81L688.031 24.8308L682.984 19.8991L689.992 18.8897L693.106 12.5449Z" fill="#F4F4F4"/>
<path d="M749.287 12.5449L752.401 18.8897L759.409 19.8991L754.362 24.8308L755.545 31.81L749.287 28.5223L743.028 31.81L744.211 24.8308L739.164 19.8991L746.172 18.8897L749.287 12.5449Z" fill="#F4F4F4"/>
<path d="M805.467 12.5449L808.582 18.8897L815.59 19.8991L810.543 24.8308L811.725 31.81L805.467 28.5223L799.209 31.81L800.391 24.8308L795.344 19.8991L802.352 18.8897L805.467 12.5449Z" fill="#F4F4F4"/>
<path d="M861.647 12.5449L864.762 18.8897L871.77 19.8991L866.723 24.8308L867.906 31.81L861.647 28.5223L855.389 31.81L856.571 24.8308L851.524 19.8991L858.533 18.8897L861.647 12.5449Z" fill="#F4F4F4"/>
<path d="M917.828 12.5449L920.943 18.8897L927.951 19.8991L922.904 24.8308L924.086 31.81L917.828 28.5223L911.57 31.81L912.752 24.8308L907.705 19.8991L914.713 18.8897L917.828 12.5449Z" fill="#F4F4F4"/>
<path d="M974.008 12.5449L977.123 18.8897L984.131 19.8991L979.084 24.8308L980.267 31.81L974.008 28.5223L967.75 31.81L968.932 24.8308L963.885 19.8991L970.894 18.8897L974.008 12.5449Z" fill="#F4F4F4"/>
<path d="M1030.19 12.5449L1033.3 18.8897L1040.31 19.8991L1035.26 24.8308L1036.45 31.81L1030.19 28.5223L1023.93 31.81L1025.11 24.8308L1020.07 19.8991L1027.07 18.8897L1030.19 12.5449Z" fill="#F4F4F4"/>
<path d="M1086.37 12.5449L1089.48 18.8897L1096.49 19.8991L1091.44 24.8308L1092.63 31.81L1086.37 28.5223L1080.11 31.81L1081.29 24.8308L1076.25 19.8991L1083.25 18.8897L1086.37 12.5449Z" fill="#F4F4F4"/>
<path d="M1142.55 12.5449L1145.66 18.8897L1152.67 19.8991L1147.62 24.8308L1148.81 31.81L1142.55 28.5223L1136.29 31.81L1137.47 24.8308L1132.43 19.8991L1139.43 18.8897L1142.55 12.5449Z" fill="#F4F4F4"/>
<path d="M1198.73 12.5449L1201.84 18.8897L1208.85 19.8991L1203.81 24.8308L1204.99 31.81L1198.73 28.5223L1192.47 31.81L1193.65 24.8308L1188.61 19.8991L1195.61 18.8897L1198.73 12.5449Z" fill="#F4F4F4"/>
<path d="M1254.91 12.5449L1258.02 18.8897L1265.03 19.8991L1259.99 24.8308L1261.17 31.81L1254.91 28.5223L1248.65 31.81L1249.83 24.8308L1244.79 19.8991L1251.79 18.8897L1254.91 12.5449Z" fill="#F4F4F4"/>
<path d="M1311.09 12.5449L1314.2 18.8897L1321.21 19.8991L1316.17 24.8308L1317.35 31.81L1311.09 28.5223L1304.83 31.81L1306.01 24.8308L1300.97 19.8991L1307.98 18.8897L1311.09 12.5449Z" fill="#F4F4F4"/>
<path d="M1367.27 12.5449L1370.39 18.8897L1377.39 19.8991L1372.35 24.8308L1373.53 31.81L1367.27 28.5223L1361.01 31.81L1362.19 24.8308L1357.15 19.8991L1364.16 18.8897L1367.27 12.5449Z" fill="#F4F4F4"/>
<path d="M1423.45 12.5449L1426.57 18.8897L1433.57 19.8991L1428.53 24.8308L1429.71 31.81L1423.45 28.5223L1417.19 31.81L1418.37 24.8308L1413.33 19.8991L1420.34 18.8897L1423.45 12.5449Z" fill="#F4F4F4"/>
<path d="M1479.63 12.5449L1482.75 18.8897L1489.75 19.8991L1484.71 24.8308L1485.89 31.81L1479.63 28.5223L1473.37 31.81L1474.55 24.8308L1469.51 19.8991L1476.52 18.8897L1479.63 12.5449Z" fill="#F4F4F4"/>
<path d="M1535.81 12.5449L1538.93 18.8897L1545.93 19.8991L1540.89 24.8308L1542.07 31.81L1535.81 28.5223L1529.55 31.81L1530.74 24.8308L1525.69 19.8991L1532.7 18.8897L1535.81 12.5449Z" fill="#F4F4F4"/>
<path d="M1591.99 12.5449L1595.11 18.8897L1602.11 19.8991L1597.07 24.8308L1598.25 31.81L1591.99 28.5223L1585.73 31.81L1586.92 24.8308L1581.87 19.8991L1588.88 18.8897L1591.99 12.5449Z" fill="#F4F4F4"/>
<path d="M1648.17 12.5449L1651.29 18.8897L1658.29 19.8991L1653.25 24.8308L1654.43 31.81L1648.17 28.5223L1641.91 31.81L1643.1 24.8308L1638.05 19.8991L1645.06 18.8897L1648.17 12.5449Z" fill="#F4F4F4"/>
<path d="M1704.35 12.5449L1707.47 18.8897L1714.48 19.8991L1709.43 24.8308L1710.61 31.81L1704.35 28.5223L1698.09 31.81L1699.28 24.8308L1694.23 19.8991L1701.24 18.8897L1704.35 12.5449Z" fill="#F4F4F4"/>
<path d="M1760.53 12.5449L1763.65 18.8897L1770.66 19.8991L1765.61 24.8308L1766.79 31.81L1760.53 28.5223L1754.27 31.81L1755.46 24.8308L1750.41 19.8991L1757.42 18.8897L1760.53 12.5449Z" fill="#F4F4F4"/>
<path d="M1816.71 12.5449L1819.83 18.8897L1826.84 19.8991L1821.79 24.8308L1822.97 31.81L1816.71 28.5223L1810.45 31.81L1811.64 24.8308L1806.59 19.8991L1813.6 18.8897L1816.71 12.5449Z" fill="#F4F4F4"/>
<path d="M1872.89 12.5449L1876.01 18.8897L1883.02 19.8991L1877.97 24.8308L1879.15 31.81L1872.89 28.5223L1866.64 31.81L1867.82 24.8308L1862.77 19.8991L1869.78 18.8897L1872.89 12.5449Z" fill="#F4F4F4"/>
<path d="M1929.07 12.5449L1932.19 18.8897L1939.2 19.8991L1934.15 24.8308L1935.33 31.81L1929.07 28.5223L1922.82 31.81L1924 24.8308L1918.95 19.8991L1925.96 18.8897L1929.07 12.5449Z" fill="#F4F4F4"/>
<path d="M1985.25 12.5449L1988.37 18.8897L1995.38 19.8991L1990.33 24.8308L1991.51 31.81L1985.25 28.5223L1979 31.81L1980.18 24.8308L1975.13 19.8991L1982.14 18.8897L1985.25 12.5449Z" fill="#F4F4F4"/>
</g>
<g clip-path="url(#clip4_128_24)">
<path d="M2004 197H562V243.259H2004V197Z" fill="#271F91"/>
<path d="M580.746 209.545L583.861 215.89L590.869 216.899L585.822 221.831L587.004 228.81L580.746 225.522L574.488 228.81L575.67 221.831L570.623 216.899L577.631 215.89L580.746 209.545Z" fill="#F4F4F4"/>
<path d="M636.926 209.545L640.041 215.89L647.049 216.899L642.002 221.831L643.184 228.81L636.926 225.522L630.668 228.81L631.85 221.831L626.803 216.899L633.811 215.89L636.926 209.545Z" fill="#F4F4F4"/>
<path d="M693.106 209.545L696.221 215.89L703.229 216.899L698.182 221.831L699.365 228.81L693.106 225.522L686.848 228.81L688.031 221.831L682.984 216.899L689.992 215.89L693.106 209.545Z" fill="#F4F4F4"/>
<path d="M749.287 209.545L752.401 215.89L759.409 216.899L754.362 221.831L755.545 228.81L749.287 225.522L743.028 228.81L744.211 221.831L739.164 216.899L746.172 215.89L749.287 209.545Z" fill="#F4F4F4"/>
<path d="M805.467 209.545L808.582 215.89L815.59 216.899L810.543 221.831L811.725 228.81L805.467 225.522L799.209 228.81L800.391 221.831L795.344 216.899L802.352 215.89L805.467 209.545Z" fill="#F4F4F4"/>
<path d="M861.647 209.545L864.762 215.89L871.77 216.899L866.723 221.831L867.906 228.81L861.647 225.522L855.389 228.81L856.571 221.831L851.524 216.899L858.533 215.89L861.647 209.545Z" fill="#F4F4F4"/>
<path d="M917.828 209.545L920.943 215.89L927.951 216.899L922.904 221.831L924.086 228.81L917.828 225.522L911.57 228.81L912.752 221.831L907.705 216.899L914.713 215.89L917.828 209.545Z" fill="#F4F4F4"/>
<path d="M974.008 209.545L977.123 215.89L984.131 216.899L979.084 221.831L980.267 228.81L974.008 225.522L967.75 228.81L968.932 221.831L963.885 216.899L970.894 215.89L974.008 209.545Z" fill="#F4F4F4"/>
<path d="M1030.19 209.545L1033.3 215.89L1040.31 216.899L1035.26 221.831L1036.45 228.81L1030.19 225.522L1023.93 228.81L1025.11 221.831L1020.07 216.899L1027.07 215.89L1030.19 209.545Z" fill="#F4F4F4"/>
<path d="M1086.37 209.545L1089.48 215.89L1096.49 216.899L1091.44 221.831L1092.63 228.81L1086.37 225.522L1080.11 228.81L1081.29 221.831L1076.25 216.899L1083.25 215.89L1086.37 209.545Z" fill="#F4F4F4"/>
<path d="M1142.55 209.545L1145.66 215.89L1152.67 216.899L1147.62 221.831L1148.81 228.81L1142.55 225.522L1136.29 228.81L1137.47 221.831L1132.43 216.899L1139.43 215.89L1142.55 209.545Z" fill="#F4F4F4"/>
<path d="M1198.73 209.545L1201.84 215.89L1208.85 216.899L1203.81 221.831L1204.99 228.81L1198.73 225.522L1192.47 228.81L1193.65 221.831L1188.61 216.899L1195.61 215.89L1198.73 209.545Z" fill="#F4F4F4"/>
<path d="M1254.91 209.545L1258.02 215.89L1265.03 216.899L1259.99 221.831L1261.17 228.81L1254.91 225.522L1248.65 228.81L1249.83 221.831L1244.79 216.899L1251.79 215.89L1254.91 209.545Z" fill="#F4F4F4"/>
<path d="M1311.09 209.545L1314.2 215.89L1321.21 216.899L1316.17 221.831L1317.35 228.81L1311.09 225.522L1304.83 228.81L1306.01 221.831L1300.97 216.899L1307.98 215.89L1311.09 209.545Z" fill="#F4F4F4"/>
<path d="M1367.27 209.545L1370.39 215.89L1377.39 216.899L1372.35 221.831L1373.53 228.81L1367.27 225.522L1361.01 228.81L1362.19 221.831L1357.15 216.899L1364.16 215.89L1367.27 209.545Z" fill="#F4F4F4"/>
<path d="M1423.45 209.545L1426.57 215.89L1433.57 216.899L1428.53 221.831L1429.71 228.81L1423.45 225.522L1417.19 228.81L1418.37 221.831L1413.33 216.899L1420.34 215.89L1423.45 209.545Z" fill="#F4F4F4"/>
<path d="M1479.63 209.545L1482.75 215.89L1489.75 216.899L1484.71 221.831L1485.89 228.81L1479.63 225.522L1473.37 228.81L1474.55 221.831L1469.51 216.899L1476.52 215.89L1479.63 209.545Z" fill="#F4F4F4"/>
<path d="M1535.81 209.545L1538.93 215.89L1545.93 216.899L1540.89 221.831L1542.07 228.81L1535.81 225.522L1529.55 228.81L1530.74 221.831L1525.69 216.899L1532.7 215.89L1535.81 209.545Z" fill="#F4F4F4"/>
<path d="M1591.99 209.545L1595.11 215.89L1602.11 216.899L1597.07 221.831L1598.25 228.81L1591.99 225.522L1585.73 228.81L1586.92 221.831L1581.87 216.899L1588.88 215.89L1591.99 209.545Z" fill="#F4F4F4"/>
<path d="M1648.17 209.545L1651.29 215.89L1658.29 216.899L1653.25 221.831L1654.43 228.81L1648.17 225.522L1641.91 228.81L1643.1 221.831L1638.05 216.899L1645.06 215.89L1648.17 209.545Z" fill="#F4F4F4"/>
<path d="M1704.35 209.545L1707.47 215.89L1714.48 216.899L1709.43 221.831L1710.61 228.81L1704.35 225.522L1698.09 228.81L1699.28 221.831L1694.23 216.899L1701.24 215.89L1704.35 209.545Z" fill="#F4F4F4"/>
<path d="M1760.53 209.545L1763.65 215.89L1770.66 216.899L1765.61 221.831L1766.79 228.81L1760.53 225.522L1754.27 228.81L1755.46 221.831L1750.41 216.899L1757.42 215.89L1760.53 209.545Z" fill="#F4F4F4"/>
<path d="M1816.71 209.545L1819.83 215.89L1826.84 216.899L1821.79 221.831L1822.97 228.81L1816.71 225.522L1810.45 228.81L1811.64 221.831L1806.59 216.899L1813.6 215.89L1816.71 209.545Z" fill="#F4F4F4"/>
<path d="M1872.89 209.545L1876.01 215.89L1883.02 216.899L1877.97 221.831L1879.15 228.81L1872.89 225.522L1866.64 228.81L1867.82 221.831L1862.77 216.899L1869.78 215.89L1872.89 209.545Z" fill="#F4F4F4"/>
<path d="M1929.07 209.545L1932.19 215.89L1939.2 216.899L1934.15 221.831L1935.33 228.81L1929.07 225.522L1922.82 228.81L1924 221.831L1918.95 216.899L1925.96 215.89L1929.07 209.545Z" fill="#F4F4F4"/>
<path d="M1985.25 209.545L1988.37 215.89L1995.38 216.899L1990.33 221.831L1991.51 228.81L1985.25 225.522L1979 228.81L1980.18 221.831L1975.13 216.899L1982.14 215.89L1985.25 209.545Z" fill="#F4F4F4"/>
</g>
<defs>
<clipPath id="clip0_128_24">
<rect width="1442" height="46.2594" fill="white"/>
</clipPath>
<clipPath id="clip1_128_24">
<rect width="1442" height="46.2594" fill="white" transform="translate(0 197)"/>
</clipPath>
<clipPath id="clip2_128_24">
<rect width="1442" height="46.2594" fill="white" transform="translate(932 167)"/>
</clipPath>
<clipPath id="clip3_128_24">
<rect width="1442" height="46.2594" fill="white" transform="translate(562)"/>
</clipPath>
<clipPath id="clip4_128_24">
<rect width="1442" height="46.2594" fill="white" transform="translate(562 197)"/>
</clipPath>
</defs>
</svg>
