<svg width="46" height="46" viewBox="0 0 46 46" fill="none" xmlns="http://www.w3.org/2000/svg">
<rect x="1.62219" y="1.95862" width="42.3496" height="42.3496" fill="#34AADF"/>
<rect x="1.62219" y="1.95862" width="42.3496" height="42.3496" stroke="url(#paint0_linear_171_376)" stroke-width="2.08277"/>
<path d="M22.797 43.2669C33.9163 43.2669 42.9305 34.2527 42.9305 23.1334C42.9305 12.0141 33.9165 3 22.797 3C11.6776 3 2.66357 12.0141 2.66357 23.1334C2.66357 34.2527 11.6777 43.2669 22.797 43.2669Z" fill="#34AADF"/>
<path d="M11.0428 22.9588C11.0428 22.9588 21.1095 18.8275 24.6008 17.3727C25.9391 16.7908 30.4778 14.9287 30.4778 14.9287C30.4778 14.9287 32.5727 14.114 32.3981 16.0925C32.3399 16.9072 31.8745 19.7584 31.409 22.8425C30.7107 27.2067 29.9542 31.9783 29.9542 31.9783C29.9542 31.9783 29.8378 33.3166 28.8486 33.5495C27.8595 33.7824 26.2302 32.735 25.9393 32.5021C25.7065 32.3277 21.575 29.709 20.0622 28.4289C19.6549 28.0798 19.1894 27.3814 20.1204 26.5668C22.2152 24.6465 24.7174 22.2608 26.2302 20.7479C26.9284 20.0495 27.6268 18.4203 24.7173 20.3987C20.5859 23.2499 16.5126 25.9267 16.5126 25.9267C16.5126 25.9267 15.5815 26.5086 13.836 25.9848C12.0902 25.4612 10.0537 24.7628 10.0537 24.7628C10.0537 24.7628 8.65706 23.89 11.0428 22.9588Z" fill="white"/>
<defs>
<linearGradient id="paint0_linear_171_376" x1="2.66357" y1="3" x2="42.9305" y2="43.2669" gradientUnits="userSpaceOnUse">
<stop offset="0.499747" stop-color="white"/>
<stop offset="0.50082" stop-color="#075578"/>
</linearGradient>
</defs>
</svg>
