<svg width="1440" height="1578" viewBox="0 0 1440 1578" fill="none" xmlns="http://www.w3.org/2000/svg">
<rect y="0.549316" width="1442" height="1457.02" fill="url(#paint0_linear_153_197)"/>
<g opacity="0.5">
<g style="mix-blend-mode:screen" opacity="0.5">
<path d="M-28.5279 2L-22.1455 28.5895L0.588295 27.7704L-18.1895 43.3965L-10.5413 69.482L-28.5279 52.5327L-46.5409 69.482L-38.8926 43.3965L-57.6704 27.7704L-34.9366 28.5895L-28.5279 2Z" fill="#001F50"/>
<path d="M74.6708 2L81.0532 28.5895L103.813 27.7704L85.0092 43.3965L92.6838 69.482L74.6708 52.5327L56.6579 69.482L64.3325 43.3965L45.5283 27.7704L68.2621 28.5895L74.6708 2Z" fill="#001F50"/>
<path d="M177.87 2L184.252 28.5895L207.012 27.7704L188.208 43.3965L195.883 69.482L177.87 52.5327L159.857 69.482L167.531 43.3965L148.727 27.7704L171.487 28.5895L177.87 2Z" fill="#001F50"/>
<path d="M281.069 2L287.451 28.5895L310.211 27.7704L291.407 43.3965L299.082 69.482L281.069 52.5327L263.056 69.482L270.73 43.3965L251.926 27.7704L274.686 28.5895L281.069 2Z" fill="#001F50"/>
<path d="M384.268 2L390.676 28.5895L413.41 27.7704L394.632 43.3965L402.281 69.482L384.268 52.5327L366.255 69.482L373.929 43.3965L355.125 27.7704L377.885 28.5895L384.268 2Z" fill="#001F50"/>
<path d="M487.466 2L493.875 28.5895L516.609 27.7704L497.831 43.3965L505.479 69.482L487.466 52.5327L469.48 69.482L477.128 43.3965L458.35 27.7704L481.084 28.5895L487.466 2Z" fill="#001F50"/>
<path d="M590.692 2L597.074 28.5895L619.834 27.7704L601.03 43.3965L608.705 69.482L590.692 52.5327L572.679 69.482L580.327 43.3965L561.549 27.7704L584.283 28.5895L590.692 2Z" fill="#001F50"/>
<path d="M693.891 2L700.273 28.5895L723.033 27.7704L704.229 43.3965L711.903 69.482L693.891 52.5327L675.877 69.482L683.552 43.3965L664.748 27.7704L687.482 28.5895L693.891 2Z" fill="#001F50"/>
<path d="M797.089 2L803.471 28.5895L826.232 27.7704L807.427 43.3965L815.102 69.482L797.089 52.5327L779.076 69.482L786.751 43.3965L767.947 27.7704L790.707 28.5895L797.089 2Z" fill="#001F50"/>
<path d="M900.288 2L906.697 28.5895L929.431 27.7704L910.626 43.3965L918.301 69.482L900.288 52.5327L882.275 69.482L889.95 43.3965L871.146 27.7704L893.906 28.5895L900.288 2Z" fill="#001F50"/>
<path d="M1003.49 2L1009.9 28.5895L1032.63 27.7704L1013.85 43.3965L1021.5 69.482L1003.49 52.5327L985.5 69.482L993.148 43.3965L974.344 27.7704L997.104 28.5895L1003.49 2Z" fill="#001F50"/>
<path d="M1106.71 2L1113.09 28.5895L1135.83 27.7704L1117.05 43.3965L1124.7 69.482L1106.71 52.5327L1088.7 69.482L1096.35 43.3965L1077.57 27.7704L1100.3 28.5895L1106.71 2Z" fill="#001F50"/>
<path d="M1209.91 2L1216.29 28.5895L1239.05 27.7704L1220.25 43.3965L1227.92 69.482L1209.91 52.5327L1191.9 69.482L1199.57 43.3965L1180.77 27.7704L1203.5 28.5895L1209.91 2Z" fill="#001F50"/>
<path d="M1313.11 2L1319.49 28.5895L1342.25 27.7704L1323.45 43.3965L1331.12 69.482L1313.11 52.5327L1295.1 69.482L1302.77 43.3965L1283.97 27.7704L1306.73 28.5895L1313.11 2Z" fill="#001F50"/>
<path d="M1416.31 2L1422.72 28.5895L1445.45 27.7704L1426.65 43.3965L1434.32 69.482L1416.31 52.5327L1398.3 69.482L1405.97 43.3965L1387.17 27.7704L1409.93 28.5895L1416.31 2Z" fill="#001F50"/>
<path d="M23.058 127.638L29.4668 154.228L52.2006 153.409L33.3964 169.035L41.071 195.12L23.058 178.202L5.04508 195.12L12.7197 169.035L-6.08447 153.409L16.6757 154.228L23.058 127.638Z" fill="#001F50"/>
<path d="M126.257 127.638L132.666 154.228L155.4 153.409L136.622 169.035L144.27 195.12L126.257 178.202L108.244 195.12L115.919 169.035L97.1147 153.409L119.875 154.228L126.257 127.638Z" fill="#001F50"/>
<path d="M229.482 127.638L235.865 154.228L258.599 153.409L239.821 169.035L247.469 195.12L229.482 178.202L211.469 195.12L219.118 169.035L200.34 153.409L223.074 154.228L229.482 127.638Z" fill="#001F50"/>
<path d="M332.681 127.638L339.063 154.228L361.824 153.409L343.019 169.035L350.694 195.12L332.681 178.202L314.668 195.12L322.316 169.035L303.539 153.409L326.272 154.228L332.681 127.638Z" fill="#001F50"/>
<path d="M435.88 127.638L442.262 154.228L465.023 153.409L446.218 169.035L453.893 195.12L435.88 178.202L417.867 195.12L425.542 169.035L406.738 153.409L429.471 154.228L435.88 127.638Z" fill="#001F50"/>
<path d="M539.079 127.638L545.461 154.228L568.221 153.409L549.417 169.035L557.092 195.12L539.079 178.202L521.066 195.12L528.741 169.035L509.936 153.409L532.697 154.228L539.079 127.638Z" fill="#001F50"/>
<path d="M642.278 127.638L648.686 154.228L671.42 153.409L652.616 169.035L660.291 195.12L642.278 178.202L624.265 195.12L631.939 169.035L613.135 153.409L635.895 154.228L642.278 127.638Z" fill="#001F50"/>
<path d="M745.477 127.638L751.885 154.228L774.619 153.409L755.841 169.035L763.49 195.12L745.477 178.202L727.49 195.12L735.138 169.035L716.361 153.409L739.094 154.228L745.477 127.638Z" fill="#001F50"/>
<path d="M848.702 127.638L855.084 154.228L877.844 153.409L859.04 169.035L866.688 195.12L848.702 178.202L830.689 195.12L838.337 169.035L819.559 153.409L842.293 154.228L848.702 127.638Z" fill="#001F50"/>
<path d="M951.901 127.638L958.283 154.228L981.043 153.409L962.239 169.035L969.914 195.12L951.901 178.202L933.888 195.12L941.562 169.035L922.758 153.409L945.492 154.228L951.901 127.638Z" fill="#001F50"/>
<path d="M1055.1 127.638L1061.48 154.228L1084.24 153.409L1065.44 169.035L1073.11 195.12L1055.1 178.202L1037.09 195.12L1044.76 169.035L1025.96 153.409L1048.72 154.228L1055.1 127.638Z" fill="#001F50"/>
<path d="M1158.3 127.638L1164.71 154.228L1187.44 153.409L1168.64 169.035L1176.31 195.12L1158.3 178.202L1140.29 195.12L1147.96 169.035L1129.16 153.409L1151.92 154.228L1158.3 127.638Z" fill="#001F50"/>
<path d="M1261.5 127.638L1267.91 154.228L1290.64 153.409L1271.86 169.035L1279.51 195.12L1261.5 178.202L1243.51 195.12L1251.16 169.035L1232.35 153.409L1255.11 154.228L1261.5 127.638Z" fill="#001F50"/>
<path d="M1364.72 127.638L1371.1 154.228L1393.84 153.409L1375.06 169.035L1382.71 195.12L1364.72 178.202L1346.71 195.12L1354.36 169.035L1335.58 153.409L1358.31 154.228L1364.72 127.638Z" fill="#001F50"/>
<path d="M1467.92 127.638L1474.3 154.228L1497.06 153.409L1478.26 169.035L1485.93 195.12L1467.92 178.202L1449.91 195.12L1457.58 169.035L1438.78 153.409L1461.51 154.228L1467.92 127.638Z" fill="#001F50"/>
<path d="M-28.5279 253.277L-22.1455 279.866L0.588295 279.047L-18.1895 294.673L-10.5413 320.759L-28.5279 303.841L-46.5409 320.759L-38.8926 294.673L-57.6704 279.047L-34.9366 279.866L-28.5279 253.277Z" fill="#001F50"/>
<path d="M74.6708 253.277L81.0532 279.866L103.813 279.047L85.0092 294.673L92.6838 320.759L74.6708 303.841L56.6579 320.759L64.3325 294.673L45.5283 279.047L68.2621 279.866L74.6708 253.277Z" fill="#001F50"/>
<path d="M177.87 253.277L184.252 279.866L207.012 279.047L188.208 294.673L195.883 320.759L177.87 303.841L159.857 320.759L167.531 294.673L148.727 279.047L171.487 279.866L177.87 253.277Z" fill="#001F50"/>
<path d="M281.069 253.277L287.451 279.866L310.211 279.047L291.407 294.673L299.082 320.759L281.069 303.841L263.056 320.759L270.73 294.673L251.926 279.047L274.686 279.866L281.069 253.277Z" fill="#001F50"/>
<path d="M384.268 253.277L390.676 279.866L413.41 279.047L394.632 294.673L402.281 320.759L384.268 303.841L366.255 320.759L373.929 294.673L355.125 279.047L377.885 279.866L384.268 253.277Z" fill="#001F50"/>
<path d="M487.466 253.277L493.875 279.866L516.609 279.047L497.831 294.673L505.479 320.759L487.466 303.841L469.48 320.759L477.128 294.673L458.35 279.047L481.084 279.866L487.466 253.277Z" fill="#001F50"/>
<path d="M590.692 253.277L597.074 279.866L619.834 279.047L601.03 294.673L608.705 320.759L590.692 303.841L572.679 320.759L580.327 294.673L561.549 279.047L584.283 279.866L590.692 253.277Z" fill="#001F50"/>
<path d="M693.891 253.277L700.273 279.866L723.033 279.047L704.229 294.673L711.903 320.759L693.891 303.841L675.877 320.759L683.552 294.673L664.748 279.047L687.482 279.866L693.891 253.277Z" fill="#001F50"/>
<path d="M797.089 253.277L803.471 279.866L826.232 279.047L807.427 294.673L815.102 320.759L797.089 303.841L779.076 320.759L786.751 294.673L767.947 279.047L790.707 279.866L797.089 253.277Z" fill="#001F50"/>
<path d="M900.288 253.277L906.697 279.866L929.431 279.047L910.626 294.673L918.301 320.759L900.288 303.841L882.275 320.759L889.95 294.673L871.146 279.047L893.906 279.866L900.288 253.277Z" fill="#001F50"/>
<path d="M1003.49 253.277L1009.9 279.866L1032.63 279.047L1013.85 294.673L1021.5 320.759L1003.49 303.841L985.5 320.759L993.148 294.673L974.344 279.047L997.104 279.866L1003.49 253.277Z" fill="#001F50"/>
<path d="M1106.71 253.277L1113.09 279.866L1135.83 279.047L1117.05 294.673L1124.7 320.759L1106.71 303.841L1088.7 320.759L1096.35 294.673L1077.57 279.047L1100.3 279.866L1106.71 253.277Z" fill="#001F50"/>
<path d="M1209.91 253.277L1216.29 279.866L1239.05 279.047L1220.25 294.673L1227.92 320.759L1209.91 303.841L1191.9 320.759L1199.57 294.673L1180.77 279.047L1203.5 279.866L1209.91 253.277Z" fill="#001F50"/>
<path d="M1313.11 253.277L1319.49 279.866L1342.25 279.047L1323.45 294.673L1331.12 320.759L1313.11 303.841L1295.1 320.759L1302.77 294.673L1283.97 279.047L1306.73 279.866L1313.11 253.277Z" fill="#001F50"/>
<path d="M1416.31 253.277L1422.72 279.866L1445.45 279.047L1426.65 294.673L1434.32 320.759L1416.31 303.841L1398.3 320.759L1405.97 294.673L1387.17 279.047L1409.93 279.866L1416.31 253.277Z" fill="#001F50"/>
<path d="M23.058 378.947L29.4668 405.537L52.2006 404.718L33.3964 420.312L41.071 446.398L23.058 429.48L5.04508 446.398L12.7197 420.312L-6.08447 404.718L16.6757 405.537L23.058 378.947Z" fill="#001F50"/>
<path d="M126.257 378.947L132.666 405.537L155.4 404.718L136.622 420.312L144.27 446.398L126.257 429.48L108.244 446.398L115.919 420.312L97.1147 404.718L119.875 405.537L126.257 378.947Z" fill="#001F50"/>
<path d="M229.482 378.947L235.865 405.537L258.599 404.718L239.821 420.312L247.469 446.398L229.482 429.48L211.469 446.398L219.118 420.312L200.34 404.718L223.074 405.537L229.482 378.947Z" fill="#001F50"/>
<path d="M332.681 378.947L339.063 405.537L361.824 404.718L343.019 420.312L350.694 446.398L332.681 429.48L314.668 446.398L322.316 420.312L303.539 404.718L326.272 405.537L332.681 378.947Z" fill="#001F50"/>
<path d="M435.88 378.947L442.262 405.537L465.023 404.718L446.218 420.312L453.893 446.398L435.88 429.48L417.867 446.398L425.542 420.312L406.738 404.718L429.471 405.537L435.88 378.947Z" fill="#001F50"/>
<path d="M539.079 378.947L545.461 405.537L568.221 404.718L549.417 420.312L557.092 446.398L539.079 429.48L521.066 446.398L528.741 420.312L509.936 404.718L532.697 405.537L539.079 378.947Z" fill="#001F50"/>
<path d="M642.278 378.947L648.686 405.537L671.42 404.718L652.616 420.312L660.291 446.398L642.278 429.48L624.265 446.398L631.939 420.312L613.135 404.718L635.895 405.537L642.278 378.947Z" fill="#001F50"/>
<path d="M745.477 378.947L751.885 405.537L774.619 404.718L755.841 420.312L763.49 446.398L745.477 429.48L727.49 446.398L735.138 420.312L716.361 404.718L739.094 405.537L745.477 378.947Z" fill="#001F50"/>
<path d="M848.702 378.947L855.084 405.537L877.844 404.718L859.04 420.312L866.688 446.398L848.702 429.48L830.689 446.398L838.337 420.312L819.559 404.718L842.293 405.537L848.702 378.947Z" fill="#001F50"/>
<path d="M951.901 378.947L958.283 405.537L981.043 404.718L962.239 420.312L969.914 446.398L951.901 429.48L933.888 446.398L941.562 420.312L922.758 404.718L945.492 405.537L951.901 378.947Z" fill="#001F50"/>
<path d="M1055.1 378.947L1061.48 405.537L1084.24 404.718L1065.44 420.312L1073.11 446.398L1055.1 429.48L1037.09 446.398L1044.76 420.312L1025.96 404.718L1048.72 405.537L1055.1 378.947Z" fill="#001F50"/>
<path d="M1158.3 378.947L1164.71 405.537L1187.44 404.718L1168.64 420.312L1176.31 446.398L1158.3 429.48L1140.29 446.398L1147.96 420.312L1129.16 404.718L1151.92 405.537L1158.3 378.947Z" fill="#001F50"/>
<path d="M1261.5 378.947L1267.91 405.537L1290.64 404.718L1271.86 420.312L1279.51 446.398L1261.5 429.48L1243.51 446.398L1251.16 420.312L1232.35 404.718L1255.11 405.537L1261.5 378.947Z" fill="#001F50"/>
<path d="M1364.72 378.947L1371.1 405.537L1393.84 404.718L1375.06 420.312L1382.71 446.398L1364.72 429.48L1346.71 446.398L1354.36 420.312L1335.58 404.718L1358.31 405.537L1364.72 378.947Z" fill="#001F50"/>
<path d="M1467.92 378.947L1474.3 405.537L1497.06 404.718L1478.26 420.312L1485.93 446.398L1467.92 429.48L1449.91 446.398L1457.58 420.312L1438.78 404.718L1461.51 405.537L1467.92 378.947Z" fill="#001F50"/>
<path d="M-28.5279 504.586L-22.1455 531.175L0.588295 530.356L-18.1895 545.982L-10.5413 572.068L-28.5279 555.119L-46.5409 572.068L-38.8926 545.982L-57.6704 530.356L-34.9366 531.175L-28.5279 504.586Z" fill="#001F50"/>
<path d="M74.6708 504.586L81.0532 531.175L103.813 530.356L85.0092 545.982L92.6838 572.068L74.6708 555.119L56.6579 572.068L64.3325 545.982L45.5283 530.356L68.2621 531.175L74.6708 504.586Z" fill="#001F50"/>
<path d="M177.87 504.586L184.252 531.175L207.012 530.356L188.208 545.982L195.883 572.068L177.87 555.119L159.857 572.068L167.531 545.982L148.727 530.356L171.487 531.175L177.87 504.586Z" fill="#001F50"/>
<path d="M281.069 504.586L287.451 531.175L310.211 530.356L291.407 545.982L299.082 572.068L281.069 555.119L263.056 572.068L270.73 545.982L251.926 530.356L274.686 531.175L281.069 504.586Z" fill="#001F50"/>
<path d="M384.268 504.586L390.676 531.175L413.41 530.356L394.632 545.982L402.281 572.068L384.268 555.119L366.255 572.068L373.929 545.982L355.125 530.356L377.885 531.175L384.268 504.586Z" fill="#001F50"/>
<path d="M487.466 504.586L493.875 531.175L516.609 530.356L497.831 545.982L505.479 572.068L487.466 555.119L469.48 572.068L477.128 545.982L458.35 530.356L481.084 531.175L487.466 504.586Z" fill="#001F50"/>
<path d="M590.692 504.586L597.074 531.175L619.834 530.356L601.03 545.982L608.705 572.068L590.692 555.119L572.679 572.068L580.327 545.982L561.549 530.356L584.283 531.175L590.692 504.586Z" fill="#001F50"/>
<path d="M693.891 504.586L700.273 531.175L723.033 530.356L704.229 545.982L711.903 572.068L693.891 555.119L675.877 572.068L683.552 545.982L664.748 530.356L687.482 531.175L693.891 504.586Z" fill="#001F50"/>
<path d="M797.089 504.586L803.471 531.175L826.232 530.356L807.427 545.982L815.102 572.068L797.089 555.119L779.076 572.068L786.751 545.982L767.947 530.356L790.707 531.175L797.089 504.586Z" fill="#001F50"/>
<path d="M900.288 504.586L906.697 531.175L929.431 530.356L910.626 545.982L918.301 572.068L900.288 555.119L882.275 572.068L889.95 545.982L871.146 530.356L893.906 531.175L900.288 504.586Z" fill="#001F50"/>
<path d="M1003.49 504.586L1009.9 531.175L1032.63 530.356L1013.85 545.982L1021.5 572.068L1003.49 555.119L985.5 572.068L993.148 545.982L974.344 530.356L997.104 531.175L1003.49 504.586Z" fill="#001F50"/>
<path d="M1106.71 504.586L1113.09 531.175L1135.83 530.356L1117.05 545.982L1124.7 572.068L1106.71 555.119L1088.7 572.068L1096.35 545.982L1077.57 530.356L1100.3 531.175L1106.71 504.586Z" fill="#001F50"/>
<path d="M1209.91 504.586L1216.29 531.175L1239.05 530.356L1220.25 545.982L1227.92 572.068L1209.91 555.119L1191.9 572.068L1199.57 545.982L1180.77 530.356L1203.5 531.175L1209.91 504.586Z" fill="#001F50"/>
<path d="M1313.11 504.586L1319.49 531.175L1342.25 530.356L1323.45 545.982L1331.12 572.068L1313.11 555.119L1295.1 572.068L1302.77 545.982L1283.97 530.356L1306.73 531.175L1313.11 504.586Z" fill="#001F50"/>
<path d="M1416.31 504.586L1422.72 531.175L1445.45 530.356L1426.65 545.982L1434.32 572.068L1416.31 555.119L1398.3 572.068L1405.97 545.982L1387.17 530.356L1409.93 531.175L1416.31 504.586Z" fill="#001F50"/>
<path d="M23.058 630.226L29.4668 656.815L52.2006 655.996L33.3964 671.622L41.071 697.708L23.058 680.758L5.04508 697.708L12.7197 671.622L-6.08447 655.996L16.6757 656.815L23.058 630.226Z" fill="#001F50"/>
<path d="M126.257 630.226L132.666 656.815L155.4 655.996L136.622 671.622L144.27 697.708L126.257 680.758L108.244 697.708L115.919 671.622L97.1147 655.996L119.875 656.815L126.257 630.226Z" fill="#001F50"/>
<path d="M229.482 630.226L235.865 656.815L258.599 655.996L239.821 671.622L247.469 697.708L229.482 680.758L211.469 697.708L219.118 671.622L200.34 655.996L223.074 656.815L229.482 630.226Z" fill="#001F50"/>
<path d="M332.681 630.226L339.063 656.815L361.824 655.996L343.019 671.622L350.694 697.708L332.681 680.758L314.668 697.708L322.316 671.622L303.539 655.996L326.272 656.815L332.681 630.226Z" fill="#001F50"/>
<path d="M435.88 630.226L442.262 656.815L465.023 655.996L446.218 671.622L453.893 697.708L435.88 680.758L417.867 697.708L425.542 671.622L406.738 655.996L429.471 656.815L435.88 630.226Z" fill="#001F50"/>
<path d="M539.079 630.226L545.461 656.815L568.221 655.996L549.417 671.622L557.092 697.708L539.079 680.758L521.066 697.708L528.741 671.622L509.936 655.996L532.697 656.815L539.079 630.226Z" fill="#001F50"/>
<path d="M642.278 630.226L648.686 656.815L671.42 655.996L652.616 671.622L660.291 697.708L642.278 680.758L624.265 697.708L631.939 671.622L613.135 655.996L635.895 656.815L642.278 630.226Z" fill="#001F50"/>
<path d="M745.477 630.226L751.885 656.815L774.619 655.996L755.841 671.622L763.49 697.708L745.477 680.758L727.49 697.708L735.138 671.622L716.361 655.996L739.094 656.815L745.477 630.226Z" fill="#001F50"/>
<path d="M848.702 630.226L855.084 656.815L877.844 655.996L859.04 671.622L866.688 697.708L848.702 680.758L830.689 697.708L838.337 671.622L819.559 655.996L842.293 656.815L848.702 630.226Z" fill="#001F50"/>
<path d="M951.901 630.226L958.283 656.815L981.043 655.996L962.239 671.622L969.914 697.708L951.901 680.758L933.888 697.708L941.562 671.622L922.758 655.996L945.492 656.815L951.901 630.226Z" fill="#001F50"/>
<path d="M1055.1 630.226L1061.48 656.815L1084.24 655.996L1065.44 671.622L1073.11 697.708L1055.1 680.758L1037.09 697.708L1044.76 671.622L1025.96 655.996L1048.72 656.815L1055.1 630.226Z" fill="#001F50"/>
<path d="M1158.3 630.226L1164.71 656.815L1187.44 655.996L1168.64 671.622L1176.31 697.708L1158.3 680.758L1140.29 697.708L1147.96 671.622L1129.16 655.996L1151.92 656.815L1158.3 630.226Z" fill="#001F50"/>
<path d="M1261.5 630.226L1267.91 656.815L1290.64 655.996L1271.86 671.622L1279.51 697.708L1261.5 680.758L1243.51 697.708L1251.16 671.622L1232.35 655.996L1255.11 656.815L1261.5 630.226Z" fill="#001F50"/>
<path d="M1364.72 630.226L1371.1 656.815L1393.84 655.996L1375.06 671.622L1382.71 697.708L1364.72 680.758L1346.71 697.708L1354.36 671.622L1335.58 655.996L1358.31 656.815L1364.72 630.226Z" fill="#001F50"/>
<path d="M1467.92 630.226L1474.3 656.815L1497.06 655.996L1478.26 671.622L1485.93 697.708L1467.92 680.758L1449.91 697.708L1457.58 671.622L1438.78 655.996L1461.51 656.815L1467.92 630.226Z" fill="#001F50"/>
<path d="M-28.5279 755.863L-22.1455 782.453L0.588295 781.634L-18.1895 797.26L-10.5413 823.345L-28.5279 806.396L-46.5409 823.345L-38.8926 797.26L-57.6704 781.634L-34.9366 782.453L-28.5279 755.863Z" fill="#001F50"/>
<path d="M74.6708 755.863L81.0532 782.453L103.813 781.634L85.0092 797.26L92.6838 823.345L74.6708 806.396L56.6579 823.345L64.3325 797.26L45.5283 781.634L68.2621 782.453L74.6708 755.863Z" fill="#001F50"/>
<path d="M177.87 755.863L184.252 782.453L207.012 781.634L188.208 797.26L195.883 823.345L177.87 806.396L159.857 823.345L167.531 797.26L148.727 781.634L171.487 782.453L177.87 755.863Z" fill="#001F50"/>
<path d="M281.069 755.863L287.451 782.453L310.211 781.634L291.407 797.26L299.082 823.345L281.069 806.396L263.056 823.345L270.73 797.26L251.926 781.634L274.686 782.453L281.069 755.863Z" fill="#001F50"/>
<path d="M384.268 755.863L390.676 782.453L413.41 781.634L394.632 797.26L402.281 823.345L384.268 806.396L366.255 823.345L373.929 797.26L355.125 781.634L377.885 782.453L384.268 755.863Z" fill="#001F50"/>
<path d="M487.466 755.863L493.875 782.453L516.609 781.634L497.831 797.26L505.479 823.345L487.466 806.396L469.48 823.345L477.128 797.26L458.35 781.634L481.084 782.453L487.466 755.863Z" fill="#001F50"/>
<path d="M590.692 755.863L597.074 782.453L619.834 781.634L601.03 797.26L608.705 823.345L590.692 806.396L572.679 823.345L580.327 797.26L561.549 781.634L584.283 782.453L590.692 755.863Z" fill="#001F50"/>
<path d="M693.891 755.863L700.273 782.453L723.033 781.634L704.229 797.26L711.903 823.345L693.891 806.396L675.877 823.345L683.552 797.26L664.748 781.634L687.482 782.453L693.891 755.863Z" fill="#001F50"/>
<path d="M797.089 755.863L803.471 782.453L826.232 781.634L807.427 797.26L815.102 823.345L797.089 806.396L779.076 823.345L786.751 797.26L767.947 781.634L790.707 782.453L797.089 755.863Z" fill="#001F50"/>
<path d="M900.288 755.863L906.697 782.453L929.431 781.634L910.626 797.26L918.301 823.345L900.288 806.396L882.275 823.345L889.95 797.26L871.146 781.634L893.906 782.453L900.288 755.863Z" fill="#001F50"/>
<path d="M1003.49 755.863L1009.9 782.453L1032.63 781.634L1013.85 797.26L1021.5 823.345L1003.49 806.396L985.5 823.345L993.148 797.26L974.344 781.634L997.104 782.453L1003.49 755.863Z" fill="#001F50"/>
<path d="M1106.71 755.863L1113.09 782.453L1135.83 781.634L1117.05 797.26L1124.7 823.345L1106.71 806.396L1088.7 823.345L1096.35 797.26L1077.57 781.634L1100.3 782.453L1106.71 755.863Z" fill="#001F50"/>
<path d="M1209.91 755.863L1216.29 782.453L1239.05 781.634L1220.25 797.26L1227.92 823.345L1209.91 806.396L1191.9 823.345L1199.57 797.26L1180.77 781.634L1203.5 782.453L1209.91 755.863Z" fill="#001F50"/>
<path d="M1313.11 755.863L1319.49 782.453L1342.25 781.634L1323.45 797.26L1331.12 823.345L1313.11 806.396L1295.1 823.345L1302.77 797.26L1283.97 781.634L1306.73 782.453L1313.11 755.863Z" fill="#001F50"/>
<path d="M1416.31 755.863L1422.72 782.453L1445.45 781.634L1426.65 797.26L1434.32 823.345L1416.31 806.396L1398.3 823.345L1405.97 797.26L1387.17 781.634L1409.93 782.453L1416.31 755.863Z" fill="#001F50"/>
<path d="M23.058 881.502L29.4668 908.092L52.2006 907.273L33.3964 922.899L41.071 948.984L23.058 932.067L5.04508 948.984L12.7197 922.899L-6.08447 907.273L16.6757 908.092L23.058 881.502Z" fill="#001F50"/>
<path d="M126.257 881.502L132.666 908.092L155.4 907.273L136.622 922.899L144.27 948.984L126.257 932.067L108.244 948.984L115.919 922.899L97.1147 907.273L119.875 908.092L126.257 881.502Z" fill="#001F50"/>
<path d="M229.482 881.502L235.865 908.092L258.599 907.273L239.821 922.899L247.469 948.984L229.482 932.067L211.469 948.984L219.118 922.899L200.34 907.273L223.074 908.092L229.482 881.502Z" fill="#001F50"/>
<path d="M332.681 881.502L339.063 908.092L361.824 907.273L343.019 922.899L350.694 948.984L332.681 932.067L314.668 948.984L322.316 922.899L303.539 907.273L326.272 908.092L332.681 881.502Z" fill="#001F50"/>
<path d="M435.88 881.502L442.262 908.092L465.023 907.273L446.218 922.899L453.893 948.984L435.88 932.067L417.867 948.984L425.542 922.899L406.738 907.273L429.471 908.092L435.88 881.502Z" fill="#001F50"/>
<path d="M539.079 881.502L545.461 908.092L568.221 907.273L549.417 922.899L557.092 948.984L539.079 932.067L521.066 948.984L528.741 922.899L509.936 907.273L532.697 908.092L539.079 881.502Z" fill="#001F50"/>
<path d="M642.278 881.502L648.686 908.092L671.42 907.273L652.616 922.899L660.291 948.984L642.278 932.067L624.265 948.984L631.939 922.899L613.135 907.273L635.895 908.092L642.278 881.502Z" fill="#001F50"/>
<path d="M745.477 881.502L751.885 908.092L774.619 907.273L755.841 922.899L763.49 948.984L745.477 932.067L727.49 948.984L735.138 922.899L716.361 907.273L739.094 908.092L745.477 881.502Z" fill="#001F50"/>
<path d="M848.702 881.502L855.084 908.092L877.844 907.273L859.04 922.899L866.688 948.984L848.702 932.067L830.689 948.984L838.337 922.899L819.559 907.273L842.293 908.092L848.702 881.502Z" fill="#001F50"/>
<path d="M951.901 881.502L958.283 908.092L981.043 907.273L962.239 922.899L969.914 948.984L951.901 932.067L933.888 948.984L941.562 922.899L922.758 907.273L945.492 908.092L951.901 881.502Z" fill="#001F50"/>
<path d="M1055.1 881.502L1061.48 908.092L1084.24 907.273L1065.44 922.899L1073.11 948.984L1055.1 932.067L1037.09 948.984L1044.76 922.899L1025.96 907.273L1048.72 908.092L1055.1 881.502Z" fill="#001F50"/>
<path d="M1158.3 881.502L1164.71 908.092L1187.44 907.273L1168.64 922.899L1176.31 948.984L1158.3 932.067L1140.29 948.984L1147.96 922.899L1129.16 907.273L1151.92 908.092L1158.3 881.502Z" fill="#001F50"/>
<path d="M1261.5 881.502L1267.91 908.092L1290.64 907.273L1271.86 922.899L1279.51 948.984L1261.5 932.067L1243.51 948.984L1251.16 922.899L1232.35 907.273L1255.11 908.092L1261.5 881.502Z" fill="#001F50"/>
<path d="M1364.72 881.502L1371.1 908.092L1393.84 907.273L1375.06 922.899L1382.71 948.984L1364.72 932.067L1346.71 948.984L1354.36 922.899L1335.58 907.273L1358.31 908.092L1364.72 881.502Z" fill="#001F50"/>
<path d="M1467.92 881.502L1474.3 908.092L1497.06 907.273L1478.26 922.899L1485.93 948.984L1467.92 932.067L1449.91 948.984L1457.58 922.899L1438.78 907.273L1461.51 908.092L1467.92 881.502Z" fill="#001F50"/>
<path d="M-28.5279 1007.14L-22.1455 1033.73L0.588295 1032.94L-18.1895 1048.54L-10.5413 1074.62L-28.5279 1057.7L-46.5409 1074.62L-38.8926 1048.54L-57.6704 1032.94L-34.9366 1033.73L-28.5279 1007.14Z" fill="#001F50"/>
<path d="M74.6708 1007.14L81.0532 1033.73L103.813 1032.94L85.0092 1048.54L92.6838 1074.62L74.6708 1057.7L56.6579 1074.62L64.3325 1048.54L45.5283 1032.94L68.2621 1033.73L74.6708 1007.14Z" fill="#001F50"/>
<path d="M177.87 1007.14L184.252 1033.73L207.012 1032.94L188.208 1048.54L195.883 1074.62L177.87 1057.7L159.857 1074.62L167.531 1048.54L148.727 1032.94L171.487 1033.73L177.87 1007.14Z" fill="#001F50"/>
<path d="M281.069 1007.14L287.451 1033.73L310.211 1032.94L291.407 1048.54L299.082 1074.62L281.069 1057.7L263.056 1074.62L270.73 1048.54L251.926 1032.94L274.686 1033.73L281.069 1007.14Z" fill="#001F50"/>
<path d="M384.268 1007.14L390.676 1033.73L413.41 1032.94L394.632 1048.54L402.281 1074.62L384.268 1057.7L366.255 1074.62L373.929 1048.54L355.125 1032.94L377.885 1033.73L384.268 1007.14Z" fill="#001F50"/>
<path d="M487.466 1007.14L493.875 1033.73L516.609 1032.94L497.831 1048.54L505.479 1074.62L487.466 1057.7L469.48 1074.62L477.128 1048.54L458.35 1032.94L481.084 1033.73L487.466 1007.14Z" fill="#001F50"/>
<path d="M590.692 1007.14L597.074 1033.73L619.834 1032.94L601.03 1048.54L608.705 1074.62L590.692 1057.7L572.679 1074.62L580.327 1048.54L561.549 1032.94L584.283 1033.73L590.692 1007.14Z" fill="#001F50"/>
<path d="M693.891 1007.14L700.273 1033.73L723.033 1032.94L704.229 1048.54L711.903 1074.62L693.891 1057.7L675.877 1074.62L683.552 1048.54L664.748 1032.94L687.482 1033.73L693.891 1007.14Z" fill="#001F50"/>
<path d="M797.089 1007.14L803.471 1033.73L826.232 1032.94L807.427 1048.54L815.102 1074.62L797.089 1057.7L779.076 1074.62L786.751 1048.54L767.947 1032.94L790.707 1033.73L797.089 1007.14Z" fill="#001F50"/>
<path d="M900.288 1007.14L906.697 1033.73L929.431 1032.94L910.626 1048.54L918.301 1074.62L900.288 1057.7L882.275 1074.62L889.95 1048.54L871.146 1032.94L893.906 1033.73L900.288 1007.14Z" fill="#001F50"/>
<path d="M1003.49 1007.14L1009.9 1033.73L1032.63 1032.94L1013.85 1048.54L1021.5 1074.62L1003.49 1057.7L985.5 1074.62L993.148 1048.54L974.344 1032.94L997.104 1033.73L1003.49 1007.14Z" fill="#001F50"/>
<path d="M1106.71 1007.14L1113.09 1033.73L1135.83 1032.94L1117.05 1048.54L1124.7 1074.62L1106.71 1057.7L1088.7 1074.62L1096.35 1048.54L1077.57 1032.94L1100.3 1033.73L1106.71 1007.14Z" fill="#001F50"/>
<path d="M1209.91 1007.14L1216.29 1033.73L1239.05 1032.94L1220.25 1048.54L1227.92 1074.62L1209.91 1057.7L1191.9 1074.62L1199.57 1048.54L1180.77 1032.94L1203.5 1033.73L1209.91 1007.14Z" fill="#001F50"/>
<path d="M1313.11 1007.14L1319.49 1033.73L1342.25 1032.94L1323.45 1048.54L1331.12 1074.62L1313.11 1057.7L1295.1 1074.62L1302.77 1048.54L1283.97 1032.94L1306.73 1033.73L1313.11 1007.14Z" fill="#001F50"/>
<path d="M1416.31 1007.14L1422.72 1033.73L1445.45 1032.94L1426.65 1048.54L1434.32 1074.62L1416.31 1057.7L1398.3 1074.62L1405.97 1048.54L1387.17 1032.94L1409.93 1033.73L1416.31 1007.14Z" fill="#001F50"/>
<path d="M23.058 1132.81L29.4668 1159.4L52.2006 1158.58L33.3964 1174.18L41.071 1200.26L23.058 1183.34L5.04508 1200.26L12.7197 1174.18L-6.08447 1158.58L16.6757 1159.4L23.058 1132.81Z" fill="#001F50"/>
<path d="M126.257 1132.81L132.666 1159.4L155.4 1158.58L136.622 1174.18L144.27 1200.26L126.257 1183.34L108.244 1200.26L115.919 1174.18L97.1147 1158.58L119.875 1159.4L126.257 1132.81Z" fill="#001F50"/>
<path d="M229.482 1132.81L235.865 1159.4L258.599 1158.58L239.821 1174.18L247.469 1200.26L229.482 1183.34L211.469 1200.26L219.118 1174.18L200.34 1158.58L223.074 1159.4L229.482 1132.81Z" fill="#001F50"/>
<path d="M332.681 1132.81L339.063 1159.4L361.824 1158.58L343.019 1174.18L350.694 1200.26L332.681 1183.34L314.668 1200.26L322.316 1174.18L303.539 1158.58L326.272 1159.4L332.681 1132.81Z" fill="#001F50"/>
<path d="M435.88 1132.81L442.262 1159.4L465.023 1158.58L446.218 1174.18L453.893 1200.26L435.88 1183.34L417.867 1200.26L425.542 1174.18L406.738 1158.58L429.471 1159.4L435.88 1132.81Z" fill="#001F50"/>
<path d="M539.079 1132.81L545.461 1159.4L568.221 1158.58L549.417 1174.18L557.092 1200.26L539.079 1183.34L521.066 1200.26L528.741 1174.18L509.936 1158.58L532.697 1159.4L539.079 1132.81Z" fill="#001F50"/>
<path d="M642.278 1132.81L648.686 1159.4L671.42 1158.58L652.616 1174.18L660.291 1200.26L642.278 1183.34L624.265 1200.26L631.939 1174.18L613.135 1158.58L635.895 1159.4L642.278 1132.81Z" fill="#001F50"/>
<path d="M745.477 1132.81L751.885 1159.4L774.619 1158.58L755.841 1174.18L763.49 1200.26L745.477 1183.34L727.49 1200.26L735.138 1174.18L716.361 1158.58L739.094 1159.4L745.477 1132.81Z" fill="#001F50"/>
<path d="M848.702 1132.81L855.084 1159.4L877.844 1158.58L859.04 1174.18L866.688 1200.26L848.702 1183.34L830.689 1200.26L838.337 1174.18L819.559 1158.58L842.293 1159.4L848.702 1132.81Z" fill="#001F50"/>
<path d="M951.901 1132.81L958.283 1159.4L981.043 1158.58L962.239 1174.18L969.914 1200.26L951.901 1183.34L933.888 1200.26L941.562 1174.18L922.758 1158.58L945.492 1159.4L951.901 1132.81Z" fill="#001F50"/>
<path d="M1055.1 1132.81L1061.48 1159.4L1084.24 1158.58L1065.44 1174.18L1073.11 1200.26L1055.1 1183.34L1037.09 1200.26L1044.76 1174.18L1025.96 1158.58L1048.72 1159.4L1055.1 1132.81Z" fill="#001F50"/>
<path d="M1158.3 1132.81L1164.71 1159.4L1187.44 1158.58L1168.64 1174.18L1176.31 1200.26L1158.3 1183.34L1140.29 1200.26L1147.96 1174.18L1129.16 1158.58L1151.92 1159.4L1158.3 1132.81Z" fill="#001F50"/>
<path d="M1261.5 1132.81L1267.91 1159.4L1290.64 1158.58L1271.86 1174.18L1279.51 1200.26L1261.5 1183.34L1243.51 1200.26L1251.16 1174.18L1232.35 1158.58L1255.11 1159.4L1261.5 1132.81Z" fill="#001F50"/>
<path d="M1364.72 1132.81L1371.1 1159.4L1393.84 1158.58L1375.06 1174.18L1382.71 1200.26L1364.72 1183.34L1346.71 1200.26L1354.36 1174.18L1335.58 1158.58L1358.31 1159.4L1364.72 1132.81Z" fill="#001F50"/>
<path d="M1467.92 1132.81L1474.3 1159.4L1497.06 1158.58L1478.26 1174.18L1485.93 1200.26L1467.92 1183.34L1449.91 1200.26L1457.58 1174.18L1438.78 1158.58L1461.51 1159.4L1467.92 1132.81Z" fill="#001F50"/>
<path d="M-28.5279 1258.45L-22.1455 1285.04L0.588295 1284.22L-18.1895 1299.85L-10.5413 1325.93L-28.5279 1308.98L-46.5409 1325.93L-38.8926 1299.85L-57.6704 1284.22L-34.9366 1285.04L-28.5279 1258.45Z" fill="#001F50"/>
<path d="M74.6708 1258.45L81.0532 1285.04L103.813 1284.22L85.0092 1299.85L92.6838 1325.93L74.6708 1308.98L56.6579 1325.93L64.3325 1299.85L45.5283 1284.22L68.2621 1285.04L74.6708 1258.45Z" fill="#001F50"/>
<path d="M177.87 1258.45L184.252 1285.04L207.012 1284.22L188.208 1299.85L195.883 1325.93L177.87 1308.98L159.857 1325.93L167.531 1299.85L148.727 1284.22L171.487 1285.04L177.87 1258.45Z" fill="#001F50"/>
<path d="M281.069 1258.45L287.451 1285.04L310.211 1284.22L291.407 1299.85L299.082 1325.93L281.069 1308.98L263.056 1325.93L270.73 1299.85L251.926 1284.22L274.686 1285.04L281.069 1258.45Z" fill="#001F50"/>
<path d="M384.268 1258.45L390.676 1285.04L413.41 1284.22L394.632 1299.85L402.281 1325.93L384.268 1308.98L366.255 1325.93L373.929 1299.85L355.125 1284.22L377.885 1285.04L384.268 1258.45Z" fill="#001F50"/>
<path d="M487.466 1258.45L493.875 1285.04L516.609 1284.22L497.831 1299.85L505.479 1325.93L487.466 1308.98L469.48 1325.93L477.128 1299.85L458.35 1284.22L481.084 1285.04L487.466 1258.45Z" fill="#001F50"/>
<path d="M590.692 1258.45L597.074 1285.04L619.834 1284.22L601.03 1299.85L608.705 1325.93L590.692 1308.98L572.679 1325.93L580.327 1299.85L561.549 1284.22L584.283 1285.04L590.692 1258.45Z" fill="#001F50"/>
<path d="M693.891 1258.45L700.273 1285.04L723.033 1284.22L704.229 1299.85L711.903 1325.93L693.891 1308.98L675.877 1325.93L683.552 1299.85L664.748 1284.22L687.482 1285.04L693.891 1258.45Z" fill="#001F50"/>
<path d="M797.089 1258.45L803.471 1285.04L826.232 1284.22L807.427 1299.85L815.102 1325.93L797.089 1308.98L779.076 1325.93L786.751 1299.85L767.947 1284.22L790.707 1285.04L797.089 1258.45Z" fill="#001F50"/>
<path d="M900.288 1258.45L906.697 1285.04L929.431 1284.22L910.626 1299.85L918.301 1325.93L900.288 1308.98L882.275 1325.93L889.95 1299.85L871.146 1284.22L893.906 1285.04L900.288 1258.45Z" fill="#001F50"/>
<path d="M1003.49 1258.45L1009.9 1285.04L1032.63 1284.22L1013.85 1299.85L1021.5 1325.93L1003.49 1308.98L985.5 1325.93L993.148 1299.85L974.344 1284.22L997.104 1285.04L1003.49 1258.45Z" fill="#001F50"/>
<path d="M1106.71 1258.45L1113.09 1285.04L1135.83 1284.22L1117.05 1299.85L1124.7 1325.93L1106.71 1308.98L1088.7 1325.93L1096.35 1299.85L1077.57 1284.22L1100.3 1285.04L1106.71 1258.45Z" fill="#001F50"/>
<path d="M1209.91 1258.45L1216.29 1285.04L1239.05 1284.22L1220.25 1299.85L1227.92 1325.93L1209.91 1308.98L1191.9 1325.93L1199.57 1299.85L1180.77 1284.22L1203.5 1285.04L1209.91 1258.45Z" fill="#001F50"/>
<path d="M1313.11 1258.45L1319.49 1285.04L1342.25 1284.22L1323.45 1299.85L1331.12 1325.93L1313.11 1308.98L1295.1 1325.93L1302.77 1299.85L1283.97 1284.22L1306.73 1285.04L1313.11 1258.45Z" fill="#001F50"/>
<path d="M1416.31 1258.45L1422.72 1285.04L1445.45 1284.22L1426.65 1299.85L1434.32 1325.93L1416.31 1308.98L1398.3 1325.93L1405.97 1299.85L1387.17 1284.22L1409.93 1285.04L1416.31 1258.45Z" fill="#001F50"/>
<path d="M23.058 1384.09L29.4668 1410.68L52.2006 1409.86L33.3964 1425.49L41.071 1451.57L23.058 1434.62L5.04508 1451.57L12.7197 1425.49L-6.08447 1409.86L16.6757 1410.68L23.058 1384.09Z" fill="#001F50"/>
<path d="M126.257 1384.09L132.666 1410.68L155.4 1409.86L136.622 1425.49L144.27 1451.57L126.257 1434.62L108.244 1451.57L115.919 1425.49L97.1147 1409.86L119.875 1410.68L126.257 1384.09Z" fill="#001F50"/>
<path d="M229.482 1384.09L235.865 1410.68L258.599 1409.86L239.821 1425.49L247.469 1451.57L229.482 1434.62L211.469 1451.57L219.118 1425.49L200.34 1409.86L223.074 1410.68L229.482 1384.09Z" fill="#001F50"/>
<path d="M332.681 1384.09L339.063 1410.68L361.824 1409.86L343.019 1425.49L350.694 1451.57L332.681 1434.62L314.668 1451.57L322.316 1425.49L303.539 1409.86L326.272 1410.68L332.681 1384.09Z" fill="#001F50"/>
<path d="M435.88 1384.09L442.262 1410.68L465.023 1409.86L446.218 1425.49L453.893 1451.57L435.88 1434.62L417.867 1451.57L425.542 1425.49L406.738 1409.86L429.471 1410.68L435.88 1384.09Z" fill="#001F50"/>
<path d="M539.079 1384.09L545.461 1410.68L568.221 1409.86L549.417 1425.49L557.092 1451.57L539.079 1434.62L521.066 1451.57L528.741 1425.49L509.936 1409.86L532.697 1410.68L539.079 1384.09Z" fill="#001F50"/>
<path d="M642.278 1384.09L648.686 1410.68L671.42 1409.86L652.616 1425.49L660.291 1451.57L642.278 1434.62L624.265 1451.57L631.939 1425.49L613.135 1409.86L635.895 1410.68L642.278 1384.09Z" fill="#001F50"/>
<path d="M745.477 1384.09L751.885 1410.68L774.619 1409.86L755.841 1425.49L763.49 1451.57L745.477 1434.62L727.49 1451.57L735.138 1425.49L716.361 1409.86L739.094 1410.68L745.477 1384.09Z" fill="#001F50"/>
<path d="M848.702 1384.09L855.084 1410.68L877.844 1409.86L859.04 1425.49L866.688 1451.57L848.702 1434.62L830.689 1451.57L838.337 1425.49L819.559 1409.86L842.293 1410.68L848.702 1384.09Z" fill="#001F50"/>
<path d="M951.901 1384.09L958.283 1410.68L981.043 1409.86L962.239 1425.49L969.914 1451.57L951.901 1434.62L933.888 1451.57L941.562 1425.49L922.758 1409.86L945.492 1410.68L951.901 1384.09Z" fill="#001F50"/>
<path d="M1055.1 1384.09L1061.48 1410.68L1084.24 1409.86L1065.44 1425.49L1073.11 1451.57L1055.1 1434.62L1037.09 1451.57L1044.76 1425.49L1025.96 1409.86L1048.72 1410.68L1055.1 1384.09Z" fill="#001F50"/>
<path d="M1158.3 1384.09L1164.71 1410.68L1187.44 1409.86L1168.64 1425.49L1176.31 1451.57L1158.3 1434.62L1140.29 1451.57L1147.96 1425.49L1129.16 1409.86L1151.92 1410.68L1158.3 1384.09Z" fill="#001F50"/>
<path d="M1261.5 1384.09L1267.91 1410.68L1290.64 1409.86L1271.86 1425.49L1279.51 1451.57L1261.5 1434.62L1243.51 1451.57L1251.16 1425.49L1232.35 1409.86L1255.11 1410.68L1261.5 1384.09Z" fill="#001F50"/>
<path d="M1364.72 1384.09L1371.1 1410.68L1393.84 1409.86L1375.06 1425.49L1382.71 1451.57L1364.72 1434.62L1346.71 1451.57L1354.36 1425.49L1335.58 1409.86L1358.31 1410.68L1364.72 1384.09Z" fill="#001F50"/>
<path d="M1467.92 1384.09L1474.3 1410.68L1497.06 1409.86L1478.26 1425.49L1485.93 1451.57L1467.92 1434.62L1449.91 1451.57L1457.58 1425.49L1438.78 1409.86L1461.51 1410.68L1467.92 1384.09Z" fill="#001F50"/>
<path d="M-28.5279 1509.73L-22.1455 1536.32L0.588295 1535.5L-18.1895 1551.12L-10.5413 1577.21L-28.5279 1560.26L-46.5409 1577.21L-38.8926 1551.12L-57.6704 1535.5L-34.9366 1536.32L-28.5279 1509.73Z" fill="#001F50"/>
<path d="M74.6708 1509.73L81.0532 1536.32L103.813 1535.5L85.0092 1551.12L92.6838 1577.21L74.6708 1560.26L56.6579 1577.21L64.3325 1551.12L45.5283 1535.5L68.2621 1536.32L74.6708 1509.73Z" fill="#001F50"/>
<path d="M177.87 1509.73L184.252 1536.32L207.012 1535.5L188.208 1551.12L195.883 1577.21L177.87 1560.26L159.857 1577.21L167.531 1551.12L148.727 1535.5L171.487 1536.32L177.87 1509.73Z" fill="#001F50"/>
<path d="M281.069 1509.73L287.451 1536.32L310.211 1535.5L291.407 1551.12L299.082 1577.21L281.069 1560.26L263.056 1577.21L270.73 1551.12L251.926 1535.5L274.686 1536.32L281.069 1509.73Z" fill="#001F50"/>
<path d="M384.268 1509.73L390.676 1536.32L413.41 1535.5L394.632 1551.12L402.281 1577.21L384.268 1560.26L366.255 1577.21L373.929 1551.12L355.125 1535.5L377.885 1536.32L384.268 1509.73Z" fill="#001F50"/>
<path d="M487.466 1509.73L493.875 1536.32L516.609 1535.5L497.831 1551.12L505.479 1577.21L487.466 1560.26L469.48 1577.21L477.128 1551.12L458.35 1535.5L481.084 1536.32L487.466 1509.73Z" fill="#001F50"/>
<path d="M590.692 1509.73L597.074 1536.32L619.834 1535.5L601.03 1551.12L608.705 1577.21L590.692 1560.26L572.679 1577.21L580.327 1551.12L561.549 1535.5L584.283 1536.32L590.692 1509.73Z" fill="#001F50"/>
<path d="M693.891 1509.73L700.273 1536.32L723.033 1535.5L704.229 1551.12L711.903 1577.21L693.891 1560.26L675.877 1577.21L683.552 1551.12L664.748 1535.5L687.482 1536.32L693.891 1509.73Z" fill="#001F50"/>
<path d="M797.089 1509.73L803.471 1536.32L826.232 1535.5L807.427 1551.12L815.102 1577.21L797.089 1560.26L779.076 1577.21L786.751 1551.12L767.947 1535.5L790.707 1536.32L797.089 1509.73Z" fill="#001F50"/>
<path d="M900.288 1509.73L906.697 1536.32L929.431 1535.5L910.626 1551.12L918.301 1577.21L900.288 1560.26L882.275 1577.21L889.95 1551.12L871.146 1535.5L893.906 1536.32L900.288 1509.73Z" fill="#001F50"/>
<path d="M1003.49 1509.73L1009.9 1536.32L1032.63 1535.5L1013.85 1551.12L1021.5 1577.21L1003.49 1560.26L985.5 1577.21L993.148 1551.12L974.344 1535.5L997.104 1536.32L1003.49 1509.73Z" fill="#001F50"/>
<path d="M1106.71 1509.73L1113.09 1536.32L1135.83 1535.5L1117.05 1551.12L1124.7 1577.21L1106.71 1560.26L1088.7 1577.21L1096.35 1551.12L1077.57 1535.5L1100.3 1536.32L1106.71 1509.73Z" fill="#001F50"/>
<path d="M1209.91 1509.73L1216.29 1536.32L1239.05 1535.5L1220.25 1551.12L1227.92 1577.21L1209.91 1560.26L1191.9 1577.21L1199.57 1551.12L1180.77 1535.5L1203.5 1536.32L1209.91 1509.73Z" fill="#001F50"/>
<path d="M1313.11 1509.73L1319.49 1536.32L1342.25 1535.5L1323.45 1551.12L1331.12 1577.21L1313.11 1560.26L1295.1 1577.21L1302.77 1551.12L1283.97 1535.5L1306.73 1536.32L1313.11 1509.73Z" fill="#001F50"/>
<path d="M1416.31 1509.73L1422.72 1536.32L1445.45 1535.5L1426.65 1551.12L1434.32 1577.21L1416.31 1560.26L1398.3 1577.21L1405.97 1551.12L1387.17 1535.5L1409.93 1536.32L1416.31 1509.73Z" fill="#001F50"/>
</g>
</g>
<defs>
<linearGradient id="paint0_linear_153_197" x1="721" y1="0.549316" x2="721" y2="1457.57" gradientUnits="userSpaceOnUse">
<stop stop-color="#2734BD"/>
<stop offset="1" stop-color="#121857"/>
</linearGradient>
</defs>
</svg>
