<svg width="2280" height="47" viewBox="0 0 2280 47" fill="none" xmlns="http://www.w3.org/2000/svg">
<g clip-path="url(#clip0_176_127)">
<path d="M1442 0H0V46.2594H1442V0Z" fill="#271F90"/>
<path d="M18.7459 12.5449L21.8606 18.8897L28.8687 19.8991L23.8217 24.8308L25.0042 31.81L18.7459 28.5223L12.4876 31.81L13.67 24.8308L8.62305 19.8991L15.6312 18.8897L18.7459 12.5449Z" fill="#F4F4F4"/>
<path d="M74.9261 12.5449L78.0408 18.8897L85.0489 19.8991L80.0019 24.8308L81.1843 31.81L74.9261 28.5223L68.6678 31.81L69.8502 24.8308L64.8032 19.8991L71.8113 18.8897L74.9261 12.5449Z" fill="#F4F4F4"/>
<path d="M131.106 12.5449L134.221 18.8897L141.229 19.8991L136.182 24.8308L137.365 31.81L131.106 28.5223L124.848 31.81L126.031 24.8308L120.984 19.8991L127.992 18.8897L131.106 12.5449Z" fill="#F4F4F4"/>
<path d="M187.287 12.5449L190.401 18.8897L197.409 19.8991L192.362 24.8308L193.545 31.81L187.287 28.5223L181.028 31.81L182.211 24.8308L177.164 19.8991L184.172 18.8897L187.287 12.5449Z" fill="#F4F4F4"/>
<path d="M243.467 12.5449L246.582 18.8897L253.59 19.8991L248.543 24.8308L249.725 31.81L243.467 28.5223L237.209 31.81L238.391 24.8308L233.344 19.8991L240.352 18.8897L243.467 12.5449Z" fill="#F4F4F4"/>
<path d="M299.647 12.5449L302.762 18.8897L309.77 19.8991L304.723 24.8308L305.906 31.81L299.647 28.5223L293.389 31.81L294.571 24.8308L289.524 19.8991L296.533 18.8897L299.647 12.5449Z" fill="#F4F4F4"/>
<path d="M355.828 12.5449L358.943 18.8897L365.951 19.8991L360.904 24.8308L362.086 31.81L355.828 28.5223L349.57 31.81L350.752 24.8308L345.705 19.8991L352.713 18.8897L355.828 12.5449Z" fill="#F4F4F4"/>
<path d="M412.008 12.5449L415.123 18.8897L422.131 19.8991L417.084 24.8308L418.267 31.81L412.008 28.5223L405.75 31.81L406.932 24.8308L401.885 19.8991L408.894 18.8897L412.008 12.5449Z" fill="#F4F4F4"/>
<path d="M468.189 12.5449L471.303 18.8897L478.311 19.8991L473.264 24.8308L474.447 31.81L468.189 28.5223L461.93 31.81L463.113 24.8308L458.066 19.8991L465.074 18.8897L468.189 12.5449Z" fill="#F4F4F4"/>
<path d="M524.369 12.5449L527.484 18.8897L534.492 19.8991L529.445 24.8308L530.627 31.81L524.369 28.5223L518.111 31.81L519.293 24.8308L514.246 19.8991L521.254 18.8897L524.369 12.5449Z" fill="#F4F4F4"/>
<path d="M580.549 12.5449L583.664 18.8897L590.672 19.8991L585.625 24.8308L586.807 31.81L580.549 28.5223L574.291 31.81L575.473 24.8308L570.426 19.8991L577.434 18.8897L580.549 12.5449Z" fill="#F4F4F4"/>
<path d="M636.73 12.5449L639.844 18.8897L646.852 19.8991L641.805 24.8308L642.988 31.81L636.73 28.5223L630.471 31.81L631.654 24.8308L626.607 19.8991L633.615 18.8897L636.73 12.5449Z" fill="#F4F4F4"/>
<path d="M692.91 12.5449L696.024 18.8897L703.033 19.8991L697.986 24.8308L699.168 31.81L692.91 28.5223L686.651 31.81L687.834 24.8308L682.787 19.8991L689.795 18.8897L692.91 12.5449Z" fill="#F4F4F4"/>
<path d="M749.09 12.5449L752.205 18.8897L759.213 19.8991L754.166 24.8308L755.348 31.81L749.09 28.5223L742.832 31.81L744.014 24.8308L738.967 19.8991L745.975 18.8897L749.09 12.5449Z" fill="#F4F4F4"/>
<path d="M805.27 12.5449L808.385 18.8897L815.393 19.8991L810.346 24.8308L811.529 31.81L805.27 28.5223L799.012 31.81L800.194 24.8308L795.147 19.8991L802.156 18.8897L805.27 12.5449Z" fill="#F4F4F4"/>
<path d="M861.451 12.5449L864.565 18.8897L871.573 19.8991L866.526 24.8308L867.709 31.81L861.451 28.5223L855.192 31.81L856.375 24.8308L851.328 19.8991L858.336 18.8897L861.451 12.5449Z" fill="#F4F4F4"/>
<path d="M917.631 12.5449L920.745 18.8897L927.754 19.8991L922.707 24.8308L923.889 31.81L917.631 28.5223L911.372 31.81L912.555 24.8308L907.508 19.8991L914.516 18.8897L917.631 12.5449Z" fill="#F4F4F4"/>
<path d="M973.811 12.5449L976.926 18.8897L983.934 19.8991L978.887 24.8308L980.069 31.81L973.811 28.5223L967.553 31.81L968.735 24.8308L963.688 19.8991L970.696 18.8897L973.811 12.5449Z" fill="#F4F4F4"/>
<path d="M1029.99 12.5449L1033.11 18.8897L1040.11 19.8991L1035.07 24.8308L1036.25 31.81L1029.99 28.5223L1023.73 31.81L1024.92 24.8308L1019.87 19.8991L1026.88 18.8897L1029.99 12.5449Z" fill="#F4F4F4"/>
<path d="M1086.17 12.5449L1089.29 18.8897L1096.29 19.8991L1091.25 24.8308L1092.43 31.81L1086.17 28.5223L1079.91 31.81L1081.1 24.8308L1076.05 19.8991L1083.06 18.8897L1086.17 12.5449Z" fill="#F4F4F4"/>
<path d="M1142.35 12.5449L1145.47 18.8897L1152.48 19.8991L1147.43 24.8308L1148.61 31.81L1142.35 28.5223L1136.09 31.81L1137.28 24.8308L1132.23 19.8991L1139.24 18.8897L1142.35 12.5449Z" fill="#F4F4F4"/>
<path d="M1198.53 12.5449L1201.65 18.8897L1208.66 19.8991L1203.61 24.8308L1204.79 31.81L1198.53 28.5223L1192.27 31.81L1193.46 24.8308L1188.41 19.8991L1195.42 18.8897L1198.53 12.5449Z" fill="#F4F4F4"/>
<path d="M1254.71 12.5449L1257.83 18.8897L1264.84 19.8991L1259.79 24.8308L1260.97 31.81L1254.71 28.5223L1248.45 31.81L1249.64 24.8308L1244.59 19.8991L1251.6 18.8897L1254.71 12.5449Z" fill="#F4F4F4"/>
<path d="M1310.89 12.5449L1314.01 18.8897L1321.02 19.8991L1315.97 24.8308L1317.15 31.81L1310.89 28.5223L1304.64 31.81L1305.82 24.8308L1300.77 19.8991L1307.78 18.8897L1310.89 12.5449Z" fill="#F4F4F4"/>
<path d="M1367.07 12.5449L1370.19 18.8897L1377.2 19.8991L1372.15 24.8308L1373.33 31.81L1367.07 28.5223L1360.82 31.81L1362 24.8308L1356.95 19.8991L1363.96 18.8897L1367.07 12.5449Z" fill="#F4F4F4"/>
<path d="M1423.25 12.5449L1426.37 18.8897L1433.38 19.8991L1428.33 24.8308L1429.51 31.81L1423.25 28.5223L1417 31.81L1418.18 24.8308L1413.13 19.8991L1420.14 18.8897L1423.25 12.5449Z" fill="#F4F4F4"/>
</g>
<g clip-path="url(#clip1_176_127)">
<path d="M2280 0H838V46.2594H2280V0Z" fill="#271F90"/>
<path d="M856.746 12.5449L859.861 18.8897L866.869 19.8991L861.822 24.8308L863.004 31.81L856.746 28.5223L850.488 31.81L851.67 24.8308L846.623 19.8991L853.631 18.8897L856.746 12.5449Z" fill="#F4F4F4"/>
<path d="M912.926 12.5449L916.041 18.8897L923.049 19.8991L918.002 24.8308L919.184 31.81L912.926 28.5223L906.668 31.81L907.85 24.8308L902.803 19.8991L909.811 18.8897L912.926 12.5449Z" fill="#F4F4F4"/>
<path d="M969.106 12.5449L972.221 18.8897L979.229 19.8991L974.182 24.8308L975.365 31.81L969.106 28.5223L962.848 31.81L964.031 24.8308L958.984 19.8991L965.992 18.8897L969.106 12.5449Z" fill="#F4F4F4"/>
<path d="M1025.29 12.5449L1028.4 18.8897L1035.41 19.8991L1030.36 24.8308L1031.55 31.81L1025.29 28.5223L1019.03 31.81L1020.21 24.8308L1015.16 19.8991L1022.17 18.8897L1025.29 12.5449Z" fill="#F4F4F4"/>
<path d="M1081.47 12.5449L1084.58 18.8897L1091.59 19.8991L1086.54 24.8308L1087.73 31.81L1081.47 28.5223L1075.21 31.81L1076.39 24.8308L1071.34 19.8991L1078.35 18.8897L1081.47 12.5449Z" fill="#F4F4F4"/>
<path d="M1137.65 12.5449L1140.76 18.8897L1147.77 19.8991L1142.72 24.8308L1143.91 31.81L1137.65 28.5223L1131.39 31.81L1132.57 24.8308L1127.52 19.8991L1134.53 18.8897L1137.65 12.5449Z" fill="#F4F4F4"/>
<path d="M1193.83 12.5449L1196.94 18.8897L1203.95 19.8991L1198.9 24.8308L1200.09 31.81L1193.83 28.5223L1187.57 31.81L1188.75 24.8308L1183.71 19.8991L1190.71 18.8897L1193.83 12.5449Z" fill="#F4F4F4"/>
<path d="M1250.01 12.5449L1253.12 18.8897L1260.13 19.8991L1255.08 24.8308L1256.27 31.81L1250.01 28.5223L1243.75 31.81L1244.93 24.8308L1239.89 19.8991L1246.89 18.8897L1250.01 12.5449Z" fill="#F4F4F4"/>
<path d="M1306.19 12.5449L1309.3 18.8897L1316.31 19.8991L1311.26 24.8308L1312.45 31.81L1306.19 28.5223L1299.93 31.81L1301.11 24.8308L1296.07 19.8991L1303.07 18.8897L1306.19 12.5449Z" fill="#F4F4F4"/>
<path d="M1362.37 12.5449L1365.48 18.8897L1372.49 19.8991L1367.44 24.8308L1368.63 31.81L1362.37 28.5223L1356.11 31.81L1357.29 24.8308L1352.25 19.8991L1359.25 18.8897L1362.37 12.5449Z" fill="#F4F4F4"/>
<path d="M1418.55 12.5449L1421.66 18.8897L1428.67 19.8991L1423.63 24.8308L1424.81 31.81L1418.55 28.5223L1412.29 31.81L1413.47 24.8308L1408.43 19.8991L1415.43 18.8897L1418.55 12.5449Z" fill="#F4F4F4"/>
<path d="M1474.73 12.5449L1477.84 18.8897L1484.85 19.8991L1479.81 24.8308L1480.99 31.81L1474.73 28.5223L1468.47 31.81L1469.65 24.8308L1464.61 19.8991L1471.61 18.8897L1474.73 12.5449Z" fill="#F4F4F4"/>
<path d="M1530.91 12.5449L1534.02 18.8897L1541.03 19.8991L1535.99 24.8308L1537.17 31.81L1530.91 28.5223L1524.65 31.81L1525.83 24.8308L1520.79 19.8991L1527.8 18.8897L1530.91 12.5449Z" fill="#F4F4F4"/>
<path d="M1587.09 12.5449L1590.2 18.8897L1597.21 19.8991L1592.17 24.8308L1593.35 31.81L1587.09 28.5223L1580.83 31.81L1582.01 24.8308L1576.97 19.8991L1583.98 18.8897L1587.09 12.5449Z" fill="#F4F4F4"/>
<path d="M1643.27 12.5449L1646.39 18.8897L1653.39 19.8991L1648.35 24.8308L1649.53 31.81L1643.27 28.5223L1637.01 31.81L1638.19 24.8308L1633.15 19.8991L1640.16 18.8897L1643.27 12.5449Z" fill="#F4F4F4"/>
<path d="M1699.45 12.5449L1702.57 18.8897L1709.57 19.8991L1704.53 24.8308L1705.71 31.81L1699.45 28.5223L1693.19 31.81L1694.37 24.8308L1689.33 19.8991L1696.34 18.8897L1699.45 12.5449Z" fill="#F4F4F4"/>
<path d="M1755.63 12.5449L1758.75 18.8897L1765.75 19.8991L1760.71 24.8308L1761.89 31.81L1755.63 28.5223L1749.37 31.81L1750.56 24.8308L1745.51 19.8991L1752.52 18.8897L1755.63 12.5449Z" fill="#F4F4F4"/>
<path d="M1811.81 12.5449L1814.93 18.8897L1821.93 19.8991L1816.89 24.8308L1818.07 31.81L1811.81 28.5223L1805.55 31.81L1806.74 24.8308L1801.69 19.8991L1808.7 18.8897L1811.81 12.5449Z" fill="#F4F4F4"/>
<path d="M1867.99 12.5449L1871.11 18.8897L1878.11 19.8991L1873.07 24.8308L1874.25 31.81L1867.99 28.5223L1861.73 31.81L1862.92 24.8308L1857.87 19.8991L1864.88 18.8897L1867.99 12.5449Z" fill="#F4F4F4"/>
<path d="M1924.17 12.5449L1927.29 18.8897L1934.29 19.8991L1929.25 24.8308L1930.43 31.81L1924.17 28.5223L1917.91 31.81L1919.1 24.8308L1914.05 19.8991L1921.06 18.8897L1924.17 12.5449Z" fill="#F4F4F4"/>
<path d="M1980.35 12.5449L1983.47 18.8897L1990.48 19.8991L1985.43 24.8308L1986.61 31.81L1980.35 28.5223L1974.09 31.81L1975.28 24.8308L1970.23 19.8991L1977.24 18.8897L1980.35 12.5449Z" fill="#F4F4F4"/>
<path d="M2036.53 12.5449L2039.65 18.8897L2046.66 19.8991L2041.61 24.8308L2042.79 31.81L2036.53 28.5223L2030.27 31.81L2031.46 24.8308L2026.41 19.8991L2033.42 18.8897L2036.53 12.5449Z" fill="#F4F4F4"/>
<path d="M2092.71 12.5449L2095.83 18.8897L2102.84 19.8991L2097.79 24.8308L2098.97 31.81L2092.71 28.5223L2086.45 31.81L2087.64 24.8308L2082.59 19.8991L2089.6 18.8897L2092.71 12.5449Z" fill="#F4F4F4"/>
<path d="M2148.89 12.5449L2152.01 18.8897L2159.02 19.8991L2153.97 24.8308L2155.15 31.81L2148.89 28.5223L2142.64 31.81L2143.82 24.8308L2138.77 19.8991L2145.78 18.8897L2148.89 12.5449Z" fill="#F4F4F4"/>
<path d="M2205.07 12.5449L2208.19 18.8897L2215.2 19.8991L2210.15 24.8308L2211.33 31.81L2205.07 28.5223L2198.82 31.81L2200 24.8308L2194.95 19.8991L2201.96 18.8897L2205.07 12.5449Z" fill="#F4F4F4"/>
<path d="M2261.25 12.5449L2264.37 18.8897L2271.38 19.8991L2266.33 24.8308L2267.51 31.81L2261.25 28.5223L2255 31.81L2256.18 24.8308L2251.13 19.8991L2258.14 18.8897L2261.25 12.5449Z" fill="#F4F4F4"/>
</g>
<defs>
<clipPath id="clip0_176_127">
<rect width="1442" height="46.2594" fill="white"/>
</clipPath>
<clipPath id="clip1_176_127">
<rect width="1442" height="46.2594" fill="white" transform="translate(838)"/>
</clipPath>
</defs>
</svg>
