<svg width="2004" height="47" viewBox="0 0 2004 47" fill="none" xmlns="http://www.w3.org/2000/svg">
<g clip-path="url(#clip0_145_86)">
<path d="M1442 0H0V46.2594H1442V0Z" fill="#F20505"/>
<path d="M18.7459 12.5449L21.8606 18.8897L28.8687 19.8991L23.8217 24.8308L25.0042 31.81L18.7459 28.5223L12.4876 31.81L13.67 24.8308L8.62305 19.8991L15.6312 18.8897L18.7459 12.5449Z" fill="#F4F4F4"/>
<path d="M74.9261 12.5449L78.0408 18.8897L85.0489 19.8991L80.0019 24.8308L81.1843 31.81L74.9261 28.5223L68.6678 31.81L69.8502 24.8308L64.8032 19.8991L71.8113 18.8897L74.9261 12.5449Z" fill="#F4F4F4"/>
<path d="M131.106 12.5449L134.221 18.8897L141.229 19.8991L136.182 24.8308L137.365 31.81L131.106 28.5223L124.848 31.81L126.031 24.8308L120.984 19.8991L127.992 18.8897L131.106 12.5449Z" fill="#F4F4F4"/>
<path d="M187.287 12.5449L190.401 18.8897L197.409 19.8991L192.362 24.8308L193.545 31.81L187.287 28.5223L181.028 31.81L182.211 24.8308L177.164 19.8991L184.172 18.8897L187.287 12.5449Z" fill="#F4F4F4"/>
<path d="M243.467 12.5449L246.582 18.8897L253.59 19.8991L248.543 24.8308L249.725 31.81L243.467 28.5223L237.209 31.81L238.391 24.8308L233.344 19.8991L240.352 18.8897L243.467 12.5449Z" fill="#F4F4F4"/>
<path d="M299.647 12.5449L302.762 18.8897L309.77 19.8991L304.723 24.8308L305.906 31.81L299.647 28.5223L293.389 31.81L294.571 24.8308L289.524 19.8991L296.533 18.8897L299.647 12.5449Z" fill="#F4F4F4"/>
<path d="M355.828 12.5449L358.943 18.8897L365.951 19.8991L360.904 24.8308L362.086 31.81L355.828 28.5223L349.57 31.81L350.752 24.8308L345.705 19.8991L352.713 18.8897L355.828 12.5449Z" fill="#F4F4F4"/>
<path d="M412.008 12.5449L415.123 18.8897L422.131 19.8991L417.084 24.8308L418.267 31.81L412.008 28.5223L405.75 31.81L406.932 24.8308L401.885 19.8991L408.894 18.8897L412.008 12.5449Z" fill="#F4F4F4"/>
<path d="M468.189 12.5449L471.303 18.8897L478.312 19.8991L473.265 24.8308L474.447 31.81L468.189 28.5223L461.93 31.81L463.113 24.8308L458.066 19.8991L465.074 18.8897L468.189 12.5449Z" fill="#F4F4F4"/>
<path d="M524.369 12.5449L527.484 18.8897L534.492 19.8991L529.445 24.8308L530.627 31.81L524.369 28.5223L518.111 31.81L519.293 24.8308L514.246 19.8991L521.254 18.8897L524.369 12.5449Z" fill="#F4F4F4"/>
<path d="M580.549 12.5449L583.664 18.8897L590.672 19.8991L585.625 24.8308L586.807 31.81L580.549 28.5223L574.291 31.81L575.473 24.8308L570.426 19.8991L577.434 18.8897L580.549 12.5449Z" fill="#F4F4F4"/>
<path d="M636.73 12.5449L639.844 18.8897L646.852 19.8991L641.805 24.8308L642.988 31.81L636.73 28.5223L630.471 31.81L631.654 24.8308L626.607 19.8991L633.615 18.8897L636.73 12.5449Z" fill="#F4F4F4"/>
<path d="M692.91 12.5449L696.024 18.8897L703.033 19.8991L697.986 24.8308L699.168 31.81L692.91 28.5223L686.651 31.81L687.834 24.8308L682.787 19.8991L689.795 18.8897L692.91 12.5449Z" fill="#F4F4F4"/>
<path d="M749.09 12.5449L752.205 18.8897L759.213 19.8991L754.166 24.8308L755.348 31.81L749.09 28.5223L742.832 31.81L744.014 24.8308L738.967 19.8991L745.975 18.8897L749.09 12.5449Z" fill="#F4F4F4"/>
<path d="M805.27 12.5449L808.385 18.8897L815.393 19.8991L810.346 24.8308L811.529 31.81L805.27 28.5223L799.012 31.81L800.194 24.8308L795.147 19.8991L802.156 18.8897L805.27 12.5449Z" fill="#F4F4F4"/>
<path d="M861.451 12.5449L864.565 18.8897L871.573 19.8991L866.526 24.8308L867.709 31.81L861.451 28.5223L855.192 31.81L856.375 24.8308L851.328 19.8991L858.336 18.8897L861.451 12.5449Z" fill="#F4F4F4"/>
<path d="M917.631 12.5449L920.745 18.8897L927.754 19.8991L922.707 24.8308L923.889 31.81L917.631 28.5223L911.372 31.81L912.555 24.8308L907.508 19.8991L914.516 18.8897L917.631 12.5449Z" fill="#F4F4F4"/>
<path d="M973.811 12.5449L976.926 18.8897L983.934 19.8991L978.887 24.8308L980.069 31.81L973.811 28.5223L967.553 31.81L968.735 24.8308L963.688 19.8991L970.696 18.8897L973.811 12.5449Z" fill="#F4F4F4"/>
<path d="M1029.99 12.5449L1033.11 18.8897L1040.11 19.8991L1035.07 24.8308L1036.25 31.81L1029.99 28.5223L1023.73 31.81L1024.92 24.8308L1019.87 19.8991L1026.88 18.8897L1029.99 12.5449Z" fill="#F4F4F4"/>
<path d="M1086.17 12.5449L1089.29 18.8897L1096.29 19.8991L1091.25 24.8308L1092.43 31.81L1086.17 28.5223L1079.91 31.81L1081.1 24.8308L1076.05 19.8991L1083.06 18.8897L1086.17 12.5449Z" fill="#F4F4F4"/>
<path d="M1142.35 12.5449L1145.47 18.8897L1152.48 19.8991L1147.43 24.8308L1148.61 31.81L1142.35 28.5223L1136.09 31.81L1137.28 24.8308L1132.23 19.8991L1139.24 18.8897L1142.35 12.5449Z" fill="#F4F4F4"/>
<path d="M1198.53 12.5449L1201.65 18.8897L1208.66 19.8991L1203.61 24.8308L1204.79 31.81L1198.53 28.5223L1192.27 31.81L1193.46 24.8308L1188.41 19.8991L1195.42 18.8897L1198.53 12.5449Z" fill="#F4F4F4"/>
<path d="M1254.71 12.5449L1257.83 18.8897L1264.84 19.8991L1259.79 24.8308L1260.97 31.81L1254.71 28.5223L1248.45 31.81L1249.64 24.8308L1244.59 19.8991L1251.6 18.8897L1254.71 12.5449Z" fill="#F4F4F4"/>
<path d="M1310.89 12.5449L1314.01 18.8897L1321.02 19.8991L1315.97 24.8308L1317.15 31.81L1310.89 28.5223L1304.64 31.81L1305.82 24.8308L1300.77 19.8991L1307.78 18.8897L1310.89 12.5449Z" fill="#F4F4F4"/>
<path d="M1367.07 12.5449L1370.19 18.8897L1377.2 19.8991L1372.15 24.8308L1373.33 31.81L1367.07 28.5223L1360.82 31.81L1362 24.8308L1356.95 19.8991L1363.96 18.8897L1367.07 12.5449Z" fill="#F4F4F4"/>
<path d="M1423.25 12.5449L1426.37 18.8897L1433.38 19.8991L1428.33 24.8308L1429.51 31.81L1423.25 28.5223L1417 31.81L1418.18 24.8308L1413.13 19.8991L1420.14 18.8897L1423.25 12.5449Z" fill="#F4F4F4"/>
</g>
<g clip-path="url(#clip1_145_86)">
<path d="M2004 0H562V46.2594H2004V0Z" fill="#F20505"/>
<path d="M580.746 12.5449L583.861 18.8897L590.869 19.8991L585.822 24.8308L587.004 31.81L580.746 28.5223L574.488 31.81L575.67 24.8308L570.623 19.8991L577.631 18.8897L580.746 12.5449Z" fill="#F4F4F4"/>
<path d="M636.926 12.5449L640.041 18.8897L647.049 19.8991L642.002 24.8308L643.184 31.81L636.926 28.5223L630.668 31.81L631.85 24.8308L626.803 19.8991L633.811 18.8897L636.926 12.5449Z" fill="#F4F4F4"/>
<path d="M693.106 12.5449L696.221 18.8897L703.229 19.8991L698.182 24.8308L699.365 31.81L693.106 28.5223L686.848 31.81L688.031 24.8308L682.984 19.8991L689.992 18.8897L693.106 12.5449Z" fill="#F4F4F4"/>
<path d="M749.287 12.5449L752.401 18.8897L759.409 19.8991L754.362 24.8308L755.545 31.81L749.287 28.5223L743.028 31.81L744.211 24.8308L739.164 19.8991L746.172 18.8897L749.287 12.5449Z" fill="#F4F4F4"/>
<path d="M805.467 12.5449L808.582 18.8897L815.59 19.8991L810.543 24.8308L811.725 31.81L805.467 28.5223L799.209 31.81L800.391 24.8308L795.344 19.8991L802.352 18.8897L805.467 12.5449Z" fill="#F4F4F4"/>
<path d="M861.647 12.5449L864.762 18.8897L871.77 19.8991L866.723 24.8308L867.906 31.81L861.647 28.5223L855.389 31.81L856.571 24.8308L851.524 19.8991L858.533 18.8897L861.647 12.5449Z" fill="#F4F4F4"/>
<path d="M917.828 12.5449L920.943 18.8897L927.951 19.8991L922.904 24.8308L924.086 31.81L917.828 28.5223L911.57 31.81L912.752 24.8308L907.705 19.8991L914.713 18.8897L917.828 12.5449Z" fill="#F4F4F4"/>
<path d="M974.008 12.5449L977.123 18.8897L984.131 19.8991L979.084 24.8308L980.267 31.81L974.008 28.5223L967.75 31.81L968.932 24.8308L963.885 19.8991L970.894 18.8897L974.008 12.5449Z" fill="#F4F4F4"/>
<path d="M1030.19 12.5449L1033.3 18.8897L1040.31 19.8991L1035.26 24.8308L1036.45 31.81L1030.19 28.5223L1023.93 31.81L1025.11 24.8308L1020.07 19.8991L1027.07 18.8897L1030.19 12.5449Z" fill="#F4F4F4"/>
<path d="M1086.37 12.5449L1089.48 18.8897L1096.49 19.8991L1091.44 24.8308L1092.63 31.81L1086.37 28.5223L1080.11 31.81L1081.29 24.8308L1076.25 19.8991L1083.25 18.8897L1086.37 12.5449Z" fill="#F4F4F4"/>
<path d="M1142.55 12.5449L1145.66 18.8897L1152.67 19.8991L1147.62 24.8308L1148.81 31.81L1142.55 28.5223L1136.29 31.81L1137.47 24.8308L1132.43 19.8991L1139.43 18.8897L1142.55 12.5449Z" fill="#F4F4F4"/>
<path d="M1198.73 12.5449L1201.84 18.8897L1208.85 19.8991L1203.81 24.8308L1204.99 31.81L1198.73 28.5223L1192.47 31.81L1193.65 24.8308L1188.61 19.8991L1195.61 18.8897L1198.73 12.5449Z" fill="#F4F4F4"/>
<path d="M1254.91 12.5449L1258.02 18.8897L1265.03 19.8991L1259.99 24.8308L1261.17 31.81L1254.91 28.5223L1248.65 31.81L1249.83 24.8308L1244.79 19.8991L1251.79 18.8897L1254.91 12.5449Z" fill="#F4F4F4"/>
<path d="M1311.09 12.5449L1314.2 18.8897L1321.21 19.8991L1316.17 24.8308L1317.35 31.81L1311.09 28.5223L1304.83 31.81L1306.01 24.8308L1300.97 19.8991L1307.98 18.8897L1311.09 12.5449Z" fill="#F4F4F4"/>
<path d="M1367.27 12.5449L1370.39 18.8897L1377.39 19.8991L1372.35 24.8308L1373.53 31.81L1367.27 28.5223L1361.01 31.81L1362.19 24.8308L1357.15 19.8991L1364.16 18.8897L1367.27 12.5449Z" fill="#F4F4F4"/>
<path d="M1423.45 12.5449L1426.57 18.8897L1433.57 19.8991L1428.53 24.8308L1429.71 31.81L1423.45 28.5223L1417.19 31.81L1418.37 24.8308L1413.33 19.8991L1420.34 18.8897L1423.45 12.5449Z" fill="#F4F4F4"/>
<path d="M1479.63 12.5449L1482.75 18.8897L1489.75 19.8991L1484.71 24.8308L1485.89 31.81L1479.63 28.5223L1473.37 31.81L1474.55 24.8308L1469.51 19.8991L1476.52 18.8897L1479.63 12.5449Z" fill="#F4F4F4"/>
<path d="M1535.81 12.5449L1538.93 18.8897L1545.93 19.8991L1540.89 24.8308L1542.07 31.81L1535.81 28.5223L1529.55 31.81L1530.74 24.8308L1525.69 19.8991L1532.7 18.8897L1535.81 12.5449Z" fill="#F4F4F4"/>
<path d="M1591.99 12.5449L1595.11 18.8897L1602.11 19.8991L1597.07 24.8308L1598.25 31.81L1591.99 28.5223L1585.73 31.81L1586.92 24.8308L1581.87 19.8991L1588.88 18.8897L1591.99 12.5449Z" fill="#F4F4F4"/>
<path d="M1648.17 12.5449L1651.29 18.8897L1658.29 19.8991L1653.25 24.8308L1654.43 31.81L1648.17 28.5223L1641.91 31.81L1643.1 24.8308L1638.05 19.8991L1645.06 18.8897L1648.17 12.5449Z" fill="#F4F4F4"/>
<path d="M1704.35 12.5449L1707.47 18.8897L1714.48 19.8991L1709.43 24.8308L1710.61 31.81L1704.35 28.5223L1698.09 31.81L1699.28 24.8308L1694.23 19.8991L1701.24 18.8897L1704.35 12.5449Z" fill="#F4F4F4"/>
<path d="M1760.53 12.5449L1763.65 18.8897L1770.66 19.8991L1765.61 24.8308L1766.79 31.81L1760.53 28.5223L1754.27 31.81L1755.46 24.8308L1750.41 19.8991L1757.42 18.8897L1760.53 12.5449Z" fill="#F4F4F4"/>
<path d="M1816.71 12.5449L1819.83 18.8897L1826.84 19.8991L1821.79 24.8308L1822.97 31.81L1816.71 28.5223L1810.45 31.81L1811.64 24.8308L1806.59 19.8991L1813.6 18.8897L1816.71 12.5449Z" fill="#F4F4F4"/>
<path d="M1872.89 12.5449L1876.01 18.8897L1883.02 19.8991L1877.97 24.8308L1879.15 31.81L1872.89 28.5223L1866.64 31.81L1867.82 24.8308L1862.77 19.8991L1869.78 18.8897L1872.89 12.5449Z" fill="#F4F4F4"/>
<path d="M1929.07 12.5449L1932.19 18.8897L1939.2 19.8991L1934.15 24.8308L1935.33 31.81L1929.07 28.5223L1922.82 31.81L1924 24.8308L1918.95 19.8991L1925.96 18.8897L1929.07 12.5449Z" fill="#F4F4F4"/>
<path d="M1985.25 12.5449L1988.37 18.8897L1995.38 19.8991L1990.33 24.8308L1991.51 31.81L1985.25 28.5223L1979 31.81L1980.18 24.8308L1975.13 19.8991L1982.14 18.8897L1985.25 12.5449Z" fill="#F4F4F4"/>
</g>
<defs>
<clipPath id="clip0_145_86">
<rect width="1442" height="46.2594" fill="white"/>
</clipPath>
<clipPath id="clip1_145_86">
<rect width="1442" height="46.2594" fill="white" transform="translate(562)"/>
</clipPath>
</defs>
</svg>
