<svg width="129" height="33" viewBox="0 0 129 33" fill="none" xmlns="http://www.w3.org/2000/svg">
<g filter="url(#filter0_d_171_394)">
<mask id="path-1-outside-1_171_394" maskUnits="userSpaceOnUse" x="5" y="7" width="119" height="20" fill="black">
<rect fill="white" x="5" y="7" width="119" height="20"/>
<path d="M30.7215 11.714H28.8318L25.2036 26H21.1219L18.1992 15.7957L15.3521 26H11.3459L7.23903 11.714H5.75248V8.01021H13.5884V11.714H11.9002L13.5884 18.4665L16.2591 8.01021H20.0637L23.0368 18.3405L24.5989 11.714H22.8352V8.01021H30.7215V11.714ZM51.3301 26H43.1163V22.8001H44.8296L44.3005 21.1876H39.2613L38.7826 22.8001H40.4959V26H32.5592V22.2962H34.2977L38.6566 11.714H36.9433V8.01021H43.8217L49.6168 22.2962H51.3301V26ZM43.217 17.7358L41.7809 13.2005L40.3447 17.7358H43.217ZM68.8272 26H54.9191V22.2962H56.6576V11.714H54.9191V8.01021H62.8306V11.714H61.0921V22.0191H64.4179V20.079H68.8272V26ZM86.6817 26H72.7737V22.2962H74.5122V11.714H72.7737V8.01021H80.6851V11.714H78.9466V22.0191H82.2725V20.079H86.6817V26ZM104.335 26H90.6282V22.2962H92.3667V11.714H90.6282V8.01021H104.335V13.9312H99.9003V11.9911H96.8012V15.1658H100.984V18.6176H96.8012V22.0191H99.9003V20.079H104.335V26ZM123.089 14.2336H119.612V11.9156H117.747V22.2962H119.486V26H111.574V22.2962H113.313V11.9156H111.524V14.2336H108.022V8.01021H123.089V14.2336Z"/>
</mask>
<path d="M30.7215 11.714H28.8318L25.2036 26H21.1219L18.1992 15.7957L15.3521 26H11.3459L7.23903 11.714H5.75248V8.01021H13.5884V11.714H11.9002L13.5884 18.4665L16.2591 8.01021H20.0637L23.0368 18.3405L24.5989 11.714H22.8352V8.01021H30.7215V11.714ZM51.3301 26H43.1163V22.8001H44.8296L44.3005 21.1876H39.2613L38.7826 22.8001H40.4959V26H32.5592V22.2962H34.2977L38.6566 11.714H36.9433V8.01021H43.8217L49.6168 22.2962H51.3301V26ZM43.217 17.7358L41.7809 13.2005L40.3447 17.7358H43.217ZM68.8272 26H54.9191V22.2962H56.6576V11.714H54.9191V8.01021H62.8306V11.714H61.0921V22.0191H64.4179V20.079H68.8272V26ZM86.6817 26H72.7737V22.2962H74.5122V11.714H72.7737V8.01021H80.6851V11.714H78.9466V22.0191H82.2725V20.079H86.6817V26ZM104.335 26H90.6282V22.2962H92.3667V11.714H90.6282V8.01021H104.335V13.9312H99.9003V11.9911H96.8012V15.1658H100.984V18.6176H96.8012V22.0191H99.9003V20.079H104.335V26ZM123.089 14.2336H119.612V11.9156H117.747V22.2962H119.486V26H111.574V22.2962H113.313V11.9156H111.524V14.2336H108.022V8.01021H123.089V14.2336Z" fill="url(#paint0_linear_171_394)"/>
<path d="M30.7215 11.714V12.1107H31.1182V11.714H30.7215ZM28.8318 11.714V11.3173H28.5233L28.4474 11.6163L28.8318 11.714ZM25.2036 26V26.3967H25.5121L25.5881 26.0976L25.2036 26ZM21.1219 26L20.7406 26.1092L20.8229 26.3967H21.1219V26ZM18.1992 15.7957L18.5805 15.6865L18.1942 14.3376L17.8171 15.6891L18.1992 15.7957ZM15.3521 26V26.3967H15.6532L15.7341 26.1066L15.3521 26ZM11.3459 26L10.9647 26.1096L11.0472 26.3967H11.3459V26ZM7.23903 11.714L7.62025 11.6044L7.53773 11.3173H7.23903V11.714ZM5.75248 11.714H5.35581V12.1107H5.75248V11.714ZM5.75248 8.01021V7.61354H5.35581V8.01021H5.75248ZM13.5884 8.01021H13.985V7.61354H13.5884V8.01021ZM13.5884 11.714V12.1107H13.985V11.714H13.5884ZM11.9002 11.714V11.3173H11.3922L11.5154 11.8102L11.9002 11.714ZM13.5884 18.4665L13.2035 18.5627L13.9727 18.5646L13.5884 18.4665ZM16.2591 8.01021V7.61354H15.951L15.8748 7.91204L16.2591 8.01021ZM20.0637 8.01021L20.4449 7.9005L20.3623 7.61354H20.0637V8.01021ZM23.0368 18.3405L22.6556 18.4502L23.075 19.9073L23.4229 18.4315L23.0368 18.3405ZM24.5989 11.714L24.985 11.805L25.1 11.3173H24.5989V11.714ZM22.8352 11.714H22.4386V12.1107H22.8352V11.714ZM22.8352 8.01021V7.61354H22.4386V8.01021H22.8352ZM30.7215 8.01021H31.1182V7.61354H30.7215V8.01021ZM30.7215 11.3173H28.8318V12.1107H30.7215V11.3173ZM28.4474 11.6163L24.8192 25.9024L25.5881 26.0976L29.2163 11.8116L28.4474 11.6163ZM25.2036 25.6033H21.1219V26.3967H25.2036V25.6033ZM21.5032 25.8908L18.5805 15.6865L17.8179 15.9049L20.7406 26.1092L21.5032 25.8908ZM17.8171 15.6891L14.97 25.8934L15.7341 26.1066L18.5813 15.9023L17.8171 15.6891ZM15.3521 25.6033H11.3459V26.3967H15.3521V25.6033ZM11.7272 25.8904L7.62025 11.6044L6.8578 11.8236L10.9647 26.1096L11.7272 25.8904ZM7.23903 11.3173H5.75248V12.1107H7.23903V11.3173ZM6.14914 11.714V8.01021H5.35581V11.714H6.14914ZM5.75248 8.40687H13.5884V7.61354H5.75248V8.40687ZM13.1917 8.01021V11.714H13.985V8.01021H13.1917ZM13.5884 11.3173H11.9002V12.1107H13.5884V11.3173ZM11.5154 11.8102L13.2035 18.5627L13.9732 18.3703L12.2851 11.6178L11.5154 11.8102ZM13.9727 18.5646L16.6434 8.10837L15.8748 7.91204L13.204 18.3683L13.9727 18.5646ZM16.2591 8.40687H20.0637V7.61354H16.2591V8.40687ZM19.6825 8.11991L22.6556 18.4502L23.418 18.2308L20.4449 7.9005L19.6825 8.11991ZM23.4229 18.4315L24.985 11.805L24.2128 11.623L22.6507 18.2495L23.4229 18.4315ZM24.5989 11.3173H22.8352V12.1107H24.5989V11.3173ZM23.2319 11.714V8.01021H22.4386V11.714H23.2319ZM22.8352 8.40687H30.7215V7.61354H22.8352V8.40687ZM30.3248 8.01021V11.714H31.1182V8.01021H30.3248ZM51.3301 26V26.3967H51.7268V26H51.3301ZM43.1163 26H42.7196V26.3967H43.1163V26ZM43.1163 22.8001V22.4035H42.7196V22.8001H43.1163ZM44.8296 22.8001V23.1968H45.3772L45.2065 22.6765L44.8296 22.8001ZM44.3005 21.1876L44.6774 21.0639L44.5878 20.7909H44.3005V21.1876ZM39.2613 21.1876V20.7909H38.9653L38.881 21.0747L39.2613 21.1876ZM38.7826 22.8001L38.4023 22.6872L38.251 23.1968H38.7826V22.8001ZM40.4959 22.8001H40.8926V22.4035H40.4959V22.8001ZM40.4959 26V26.3967H40.8926V26H40.4959ZM32.5592 26H32.1626V26.3967H32.5592V26ZM32.5592 22.2962V21.8996H32.1626V22.2962H32.5592ZM34.2977 22.2962V22.6929H34.5633L34.6645 22.4473L34.2977 22.2962ZM38.6566 11.714L39.0234 11.8651L39.249 11.3173H38.6566V11.714ZM36.9433 11.714H36.5466V12.1107H36.9433V11.714ZM36.9433 8.01021V7.61354H36.5466V8.01021H36.9433ZM43.8217 8.01021L44.1893 7.8611L44.0889 7.61354H43.8217V8.01021ZM49.6168 22.2962L49.2492 22.4453L49.3496 22.6929H49.6168V22.2962ZM51.3301 22.2962H51.7268V21.8996H51.3301V22.2962ZM43.217 17.7358V18.1324H43.7587L43.5952 17.616L43.217 17.7358ZM41.7809 13.2005L42.159 13.0808L41.7809 11.8866L41.4027 13.0808L41.7809 13.2005ZM40.3447 17.7358L39.9666 17.616L39.803 18.1324H40.3447V17.7358ZM51.3301 25.6033H43.1163V26.3967H51.3301V25.6033ZM43.5129 26V22.8001H42.7196V26H43.5129ZM43.1163 23.1968H44.8296V22.4035H43.1163V23.1968ZM45.2065 22.6765L44.6774 21.0639L43.9236 21.3113L44.4527 22.9238L45.2065 22.6765ZM44.3005 20.7909H39.2613V21.5843H44.3005V20.7909ZM38.881 21.0747L38.4023 22.6872L39.1628 22.913L39.6416 21.3005L38.881 21.0747ZM38.7826 23.1968H40.4959V22.4035H38.7826V23.1968ZM40.0992 22.8001V26H40.8926V22.8001H40.0992ZM40.4959 25.6033H32.5592V26.3967H40.4959V25.6033ZM32.9559 26V22.2962H32.1626V26H32.9559ZM32.5592 22.6929H34.2977V21.8996H32.5592V22.6929ZM34.6645 22.4473L39.0234 11.8651L38.2898 11.5629L33.931 22.1451L34.6645 22.4473ZM38.6566 11.3173H36.9433V12.1107H38.6566V11.3173ZM37.34 11.714V8.01021H36.5466V11.714H37.34ZM36.9433 8.40687H43.8217V7.61354H36.9433V8.40687ZM43.4542 8.15931L49.2492 22.4453L49.9843 22.1471L44.1893 7.8611L43.4542 8.15931ZM49.6168 22.6929H51.3301V21.8996H49.6168V22.6929ZM50.9334 22.2962V26H51.7268V22.2962H50.9334ZM43.5952 17.616L42.159 13.0808L41.4027 13.3203L42.8389 17.8555L43.5952 17.616ZM41.4027 13.0808L39.9666 17.616L40.7229 17.8555L42.159 13.3203L41.4027 13.0808ZM40.3447 18.1324H43.217V17.3391H40.3447V18.1324ZM68.8272 26V26.3967H69.2238V26H68.8272ZM54.9191 26H54.5224V26.3967H54.9191V26ZM54.9191 22.2962V21.8996H54.5224V22.2962H54.9191ZM56.6576 22.2962V22.6929H57.0543V22.2962H56.6576ZM56.6576 11.714H57.0543V11.3173H56.6576V11.714ZM54.9191 11.714H54.5224V12.1107H54.9191V11.714ZM54.9191 8.01021V7.61354H54.5224V8.01021H54.9191ZM62.8306 8.01021H63.2272V7.61354H62.8306V8.01021ZM62.8306 11.714V12.1107H63.2272V11.714H62.8306ZM61.0921 11.714V11.3173H60.6954V11.714H61.0921ZM61.0921 22.0191H60.6954V22.4157H61.0921V22.0191ZM64.4179 22.0191V22.4157H64.8146V22.0191H64.4179ZM64.4179 20.079V19.6823H64.0213V20.079H64.4179ZM68.8272 20.079H69.2238V19.6823H68.8272V20.079ZM68.8272 25.6033H54.9191V26.3967H68.8272V25.6033ZM55.3158 26V22.2962H54.5224V26H55.3158ZM54.9191 22.6929H56.6576V21.8996H54.9191V22.6929ZM57.0543 22.2962V11.714H56.2609V22.2962H57.0543ZM56.6576 11.3173H54.9191V12.1107H56.6576V11.3173ZM55.3158 11.714V8.01021H54.5224V11.714H55.3158ZM54.9191 8.40687H62.8306V7.61354H54.9191V8.40687ZM62.4339 8.01021V11.714H63.2272V8.01021H62.4339ZM62.8306 11.3173H61.0921V12.1107H62.8306V11.3173ZM60.6954 11.714V22.0191H61.4887V11.714H60.6954ZM61.0921 22.4157H64.4179V21.6224H61.0921V22.4157ZM64.8146 22.0191V20.079H64.0213V22.0191H64.8146ZM64.4179 20.4757H68.8272V19.6823H64.4179V20.4757ZM68.4305 20.079V26H69.2238V20.079H68.4305ZM86.6817 26V26.3967H87.0784V26H86.6817ZM72.7737 26H72.377V26.3967H72.7737V26ZM72.7737 22.2962V21.8996H72.377V22.2962H72.7737ZM74.5122 22.2962V22.6929H74.9088V22.2962H74.5122ZM74.5122 11.714H74.9088V11.3173H74.5122V11.714ZM72.7737 11.714H72.377V12.1107H72.7737V11.714ZM72.7737 8.01021V7.61354H72.377V8.01021H72.7737ZM80.6851 8.01021H81.0818V7.61354H80.6851V8.01021ZM80.6851 11.714V12.1107H81.0818V11.714H80.6851ZM78.9466 11.714V11.3173H78.55V11.714H78.9466ZM78.9466 22.0191H78.55V22.4157H78.9466V22.0191ZM82.2725 22.0191V22.4157H82.6691V22.0191H82.2725ZM82.2725 20.079V19.6823H81.8758V20.079H82.2725ZM86.6817 20.079H87.0784V19.6823H86.6817V20.079ZM86.6817 25.6033H72.7737V26.3967H86.6817V25.6033ZM73.1703 26V22.2962H72.377V26H73.1703ZM72.7737 22.6929H74.5122V21.8996H72.7737V22.6929ZM74.9088 22.2962V11.714H74.1155V22.2962H74.9088ZM74.5122 11.3173H72.7737V12.1107H74.5122V11.3173ZM73.1703 11.714V8.01021H72.377V11.714H73.1703ZM72.7737 8.40687H80.6851V7.61354H72.7737V8.40687ZM80.2885 8.01021V11.714H81.0818V8.01021H80.2885ZM80.6851 11.3173H78.9466V12.1107H80.6851V11.3173ZM78.55 11.714V22.0191H79.3433V11.714H78.55ZM78.9466 22.4157H82.2725V21.6224H78.9466V22.4157ZM82.6691 22.0191V20.079H81.8758V22.0191H82.6691ZM82.2725 20.4757H86.6817V19.6823H82.2725V20.4757ZM86.2851 20.079V26H87.0784V20.079H86.2851ZM104.335 26V26.3967H104.731V26H104.335ZM90.6282 26H90.2316V26.3967H90.6282V26ZM90.6282 22.2962V21.8996H90.2316V22.2962H90.6282ZM92.3667 22.2962V22.6929H92.7634V22.2962H92.3667ZM92.3667 11.714H92.7634V11.3173H92.3667V11.714ZM90.6282 11.714H90.2316V12.1107H90.6282V11.714ZM90.6282 8.01021V7.61354H90.2316V8.01021H90.6282ZM104.335 8.01021H104.731V7.61354H104.335V8.01021ZM104.335 13.9312V14.3279H104.731V13.9312H104.335ZM99.9003 13.9312H99.5036V14.3279H99.9003V13.9312ZM99.9003 11.9911H100.297V11.5945H99.9003V11.9911ZM96.8012 11.9911V11.5945H96.4045V11.9911H96.8012ZM96.8012 15.1658H96.4045V15.5625H96.8012V15.1658ZM100.984 15.1658H101.38V14.7691H100.984V15.1658ZM100.984 18.6176V19.0143H101.38V18.6176H100.984ZM96.8012 18.6176V18.221H96.4045V18.6176H96.8012ZM96.8012 22.0191H96.4045V22.4157H96.8012V22.0191ZM99.9003 22.0191V22.4157H100.297V22.0191H99.9003ZM99.9003 20.079V19.6823H99.5036V20.079H99.9003ZM104.335 20.079H104.731V19.6823H104.335V20.079ZM104.335 25.6033H90.6282V26.3967H104.335V25.6033ZM91.0249 26V22.2962H90.2316V26H91.0249ZM90.6282 22.6929H92.3667V21.8996H90.6282V22.6929ZM92.7634 22.2962V11.714H91.9701V22.2962H92.7634ZM92.3667 11.3173H90.6282V12.1107H92.3667V11.3173ZM91.0249 11.714V8.01021H90.2316V11.714H91.0249ZM90.6282 8.40687H104.335V7.61354H90.6282V8.40687ZM103.938 8.01021V13.9312H104.731V8.01021H103.938ZM104.335 13.5345H99.9003V14.3279H104.335V13.5345ZM100.297 13.9312V11.9911H99.5036V13.9312H100.297ZM99.9003 11.5945H96.8012V12.3878H99.9003V11.5945ZM96.4045 11.9911V15.1658H97.1979V11.9911H96.4045ZM96.8012 15.5625H100.984V14.7691H96.8012V15.5625ZM100.587 15.1658V18.6176H101.38V15.1658H100.587ZM100.984 18.221H96.8012V19.0143H100.984V18.221ZM96.4045 18.6176V22.0191H97.1979V18.6176H96.4045ZM96.8012 22.4157H99.9003V21.6224H96.8012V22.4157ZM100.297 22.0191V20.079H99.5036V22.0191H100.297ZM99.9003 20.4757H104.335V19.6823H99.9003V20.4757ZM103.938 20.079V26H104.731V20.079H103.938ZM123.089 14.2336V14.6302H123.485V14.2336H123.089ZM119.612 14.2336H119.215V14.6302H119.612V14.2336ZM119.612 11.9156H120.008V11.5189H119.612V11.9156ZM117.747 11.9156V11.5189H117.35V11.9156H117.747ZM117.747 22.2962H117.35V22.6929H117.747V22.2962ZM119.486 22.2962H119.882V21.8996H119.486V22.2962ZM119.486 26V26.3967H119.882V26H119.486ZM111.574 26H111.178V26.3967H111.574V26ZM111.574 22.2962V21.8996H111.178V22.2962H111.574ZM113.313 22.2962V22.6929H113.709V22.2962H113.313ZM113.313 11.9156H113.709V11.5189H113.313V11.9156ZM111.524 11.9156V11.5189H111.127V11.9156H111.524ZM111.524 14.2336V14.6302H111.92V14.2336H111.524ZM108.022 14.2336H107.625V14.6302H108.022V14.2336ZM108.022 8.01021V7.61354H107.625V8.01021H108.022ZM123.089 8.01021H123.485V7.61354H123.089V8.01021ZM123.089 13.8369H119.612V14.6302H123.089V13.8369ZM120.008 14.2336V11.9156H119.215V14.2336H120.008ZM119.612 11.5189H117.747V12.3122H119.612V11.5189ZM117.35 11.9156V22.2962H118.144V11.9156H117.35ZM117.747 22.6929H119.486V21.8996H117.747V22.6929ZM119.089 22.2962V26H119.882V22.2962H119.089ZM119.486 25.6033H111.574V26.3967H119.486V25.6033ZM111.971 26V22.2962H111.178V26H111.971ZM111.574 22.6929H113.313V21.8996H111.574V22.6929ZM113.709 22.2962V11.9156H112.916V22.2962H113.709ZM113.313 11.5189H111.524V12.3122H113.313V11.5189ZM111.127 11.9156V14.2336H111.92V11.9156H111.127ZM111.524 13.8369H108.022V14.6302H111.524V13.8369ZM108.418 14.2336V8.01021H107.625V14.2336H108.418ZM108.022 8.40687H123.089V7.61354H108.022V8.40687ZM122.692 8.01021V14.2336H123.485V8.01021H122.692Z" fill="url(#paint1_linear_171_394)" mask="url(#path-1-outside-1_171_394)"/>
</g>
<defs>
<filter id="filter0_d_171_394" x="5.35596" y="7.61353" width="118.129" height="19.5765" filterUnits="userSpaceOnUse" color-interpolation-filters="sRGB">
<feFlood flood-opacity="0" result="BackgroundImageFix"/>
<feColorMatrix in="SourceAlpha" type="matrix" values="0 0 0 0 0 0 0 0 0 0 0 0 0 0 0 0 0 0 127 0" result="hardAlpha"/>
<feOffset dy="0.793333"/>
<feComposite in2="hardAlpha" operator="out"/>
<feColorMatrix type="matrix" values="0 0 0 0 0 0 0 0 0 0 0 0 0 0 0 0 0 0 1 0"/>
<feBlend mode="normal" in2="BackgroundImageFix" result="effect1_dropShadow_171_394"/>
<feBlend mode="normal" in="SourceGraphic" in2="effect1_dropShadow_171_394" result="shape"/>
</filter>
<linearGradient id="paint0_linear_171_394" x1="68.8647" y1="27.2739" x2="68.9209" y2="7.61286" gradientUnits="userSpaceOnUse">
<stop stop-color="#936522"/>
<stop offset="0.635" stop-color="#FCF3BF"/>
<stop offset="1" stop-color="#936522"/>
</linearGradient>
<linearGradient id="paint1_linear_171_394" x1="64.5" y1="25.3163" x2="64.5" y2="8.66943" gradientUnits="userSpaceOnUse">
<stop stop-color="#E9CA88"/>
<stop offset="1" stop-color="#C18B3D"/>
</linearGradient>
</defs>
</svg>
